<?xml version="1.0" encoding="UTF-8" standalone="no"?>
<!DOCTYPE svg PUBLIC "-//W3C//DTD SVG 1.1//EN"
 "http://www.w3.org/Graphics/SVG/1.1/DTD/svg11.dtd">
<!-- Generated by graphviz version 2.47.0 (20210316.0004)
 -->
<!-- Title: InheritanceGraph Pages: 1 -->
<svg width="618pt" height="656pt"
 viewBox="0.00 0.00 618.00 656.00" xmlns="http://www.w3.org/2000/svg" xmlns:xlink="http://www.w3.org/1999/xlink">
<g id="graph0" class="graph" transform="scale(1 1) rotate(0) translate(4 652)">
<title>InheritanceGraph</title>
<g id="clust1" class="cluster">
<title>cluster_builtins</title>
<path fill="transparent" stroke="#bcd2ee" stroke-width="2" stroke-dasharray="5,2" d="M20,-315C20,-315 55,-315 55,-315 61,-315 67,-321 67,-327 67,-327 67,-358 67,-358 67,-364 61,-370 55,-370 55,-370 20,-370 20,-370 14,-370 8,-364 8,-358 8,-358 8,-327 8,-327 8,-321 14,-315 20,-315"/>
<text text-anchor="middle" x="37.5" y="-358" font-family="Arial" font-size="10.00">builtins</text>
</g>
<g id="clust2" class="cluster">
<title>cluster_pang.cloud</title>
<path fill="transparent" stroke="#bcd2ee" stroke-width="2" stroke-dasharray="5,2" d="M110,-580C110,-580 150,-580 150,-580 156,-580 162,-586 162,-592 162,-592 162,-623 162,-623 162,-629 156,-635 150,-635 150,-635 110,-635 110,-635 104,-635 98,-629 98,-623 98,-623 98,-592 98,-592 98,-586 104,-580 110,-580"/>
<text text-anchor="middle" x="130" y="-623" font-family="Arial" font-size="10.00">pang.cloud</text>
</g>
<g id="clust3" class="cluster">
<title>cluster_pang.commands</title>
<path fill="transparent" stroke="#bcd2ee" stroke-width="2" stroke-dasharray="5,2" d="M203,-563C203,-563 377,-563 377,-563 383,-563 389,-569 389,-575 389,-575 389,-628 389,-628 389,-634 383,-640 377,-640 377,-640 203,-640 203,-640 197,-640 191,-634 191,-628 191,-628 191,-575 191,-575 191,-569 197,-563 203,-563"/>
<text text-anchor="middle" x="290" y="-628" font-family="Arial" font-size="10.00">pang.commands</text>
</g>
<g id="clust4" class="cluster">
<title>cluster_pang.indicators</title>
<path fill="transparent" stroke="#bcd2ee" stroke-width="2" stroke-dasharray="5,2" d="M327,-500C327,-500 493,-500 493,-500 499,-500 505,-506 505,-512 505,-512 505,-543 505,-543 505,-549 499,-555 493,-555 493,-555 327,-555 327,-555 321,-555 315,-549 315,-543 315,-543 315,-512 315,-512 315,-506 321,-500 327,-500"/>
<text text-anchor="middle" x="410" y="-543" font-family="Arial" font-size="10.00">pang.indicators</text>
</g>
<g id="clust5" class="cluster">
<title>cluster_pang.noteserver</title>
<path fill="transparent" stroke="#bcd2ee" stroke-width="2" stroke-dasharray="5,2" d="M99.5,-439C99.5,-439 161.5,-439 161.5,-439 167.5,-439 173.5,-445 173.5,-451 173.5,-451 173.5,-492 173.5,-492 173.5,-498 167.5,-504 161.5,-504 161.5,-504 99.5,-504 99.5,-504 93.5,-504 87.5,-498 87.5,-492 87.5,-492 87.5,-451 87.5,-451 87.5,-445 93.5,-439 99.5,-439"/>
<text text-anchor="middle" x="130.5" y="-492" font-family="Arial" font-size="10.00">pang.noteserver</text>
</g>
<g id="clust6" class="cluster">
<title>cluster_pang.postprocessors</title>
<path fill="transparent" stroke="#bcd2ee" stroke-width="2" stroke-dasharray="5,2" d="M109,-334C109,-334 372,-334 372,-334 378,-334 384,-340 384,-346 384,-346 384,-419 384,-419 384,-425 378,-431 372,-431 372,-431 109,-431 109,-431 103,-431 97,-425 97,-419 97,-419 97,-346 97,-346 97,-340 103,-334 109,-334"/>
<text text-anchor="middle" x="240.5" y="-419" font-family="Arial" font-size="10.00">pang.postprocessors</text>
</g>
<g id="clust7" class="cluster">
<title>cluster_pang.scoping</title>
<path fill="transparent" stroke="#bcd2ee" stroke-width="2" stroke-dasharray="5,2" d="M205,-271C205,-271 255,-271 255,-271 261,-271 267,-277 267,-283 267,-283 267,-314 267,-314 267,-320 261,-326 255,-326 255,-326 205,-326 205,-326 199,-326 193,-320 193,-314 193,-314 193,-283 193,-283 193,-277 199,-271 205,-271"/>
<text text-anchor="middle" x="230" y="-314" font-family="Arial" font-size="10.00">pang.scoping</text>
</g>
<g id="clust8" class="cluster">
<title>cluster_pang.segmentmaker</title>
<path fill="transparent" stroke="#bcd2ee" stroke-width="2" stroke-dasharray="5,2" d="M310,-228C310,-228 391,-228 391,-228 397,-228 403,-234 403,-240 403,-240 403,-281 403,-281 403,-287 397,-293 391,-293 391,-293 310,-293 310,-293 304,-293 298,-287 298,-281 298,-281 298,-240 298,-240 298,-234 304,-228 310,-228"/>
<text text-anchor="middle" x="350.5" y="-281" font-family="Arial" font-size="10.00">pang.segmentmaker</text>
</g>
<g id="clust9" class="cluster">
<title>cluster_pang.sequences</title>
<path fill="transparent" stroke="#bcd2ee" stroke-width="2" stroke-dasharray="5,2" d="M98,-179C98,-179 162,-179 162,-179 168,-179 174,-185 174,-191 174,-191 174,-222 174,-222 174,-228 168,-234 162,-234 162,-234 98,-234 98,-234 92,-234 86,-228 86,-222 86,-222 86,-191 86,-191 86,-185 92,-179 98,-179"/>
<text text-anchor="middle" x="130" y="-222" font-family="Arial" font-size="10.00">pang.sequences</text>
</g>
<g id="clust10" class="cluster">
<title>cluster_pang.soundpointsgenerators</title>
<path fill="transparent" stroke="#bcd2ee" stroke-width="2" stroke-dasharray="5,2" d="M204.5,-8C204.5,-8 590,-8 590,-8 596,-8 602,-14 602,-20 602,-20 602,-205 602,-205 602,-211 596,-217 590,-217 590,-217 204.5,-217 204.5,-217 198.5,-217 192.5,-211 192.5,-205 192.5,-205 192.5,-20 192.5,-20 192.5,-14 198.5,-8 204.5,-8"/>
<text text-anchor="middle" x="397.25" y="-205" font-family="Arial" font-size="10.00">pang.soundpointsgenerators</text>
</g>
<!-- builtins.object&#45;&gt;pang.cloud.Cloud -->
<g id="edge9" class="edge">
<title>builtins.object&#45;&gt;pang.cloud.Cloud</title>
<path fill="none" stroke="lightslategrey" d="M39.32,-342.6C42.89,-382.59 58.18,-535.7 86,-574 89.6,-578.96 94.57,-583.03 99.84,-586.31"/>
<polygon fill="lightslategrey" stroke="lightslategrey" points="98.36,-589.49 108.83,-591.12 101.66,-583.32 98.36,-589.49"/>
</g>
<!-- builtins.object&#45;&gt;pang.commands.Command -->
<g id="edge10" class="edge">
<title>builtins.object&#45;&gt;pang.commands.Command</title>
<path fill="none" stroke="lightslategrey" d="M39.53,-342.65C43.58,-378.92 59.51,-506.52 86,-536 99.94,-551.51 151.49,-566.99 188.7,-576.53"/>
<polygon fill="lightslategrey" stroke="lightslategrey" points="188.22,-580.02 198.77,-579.06 189.92,-573.23 188.22,-580.02"/>
</g>
<!-- builtins.object&#45;&gt;pang.indicators.Indicator -->
<g id="edge11" class="edge">
<title>builtins.object&#45;&gt;pang.indicators.Indicator</title>
<path fill="none" stroke="lightslategrey" d="M39.67,-342.93C43.87,-376.8 59.39,-486.84 86,-508 120.05,-535.08 248.93,-527.41 312.75,-521.7"/>
<polygon fill="lightslategrey" stroke="lightslategrey" points="313.14,-525.18 322.77,-520.77 312.49,-518.21 313.14,-525.18"/>
</g>
<!-- builtins.object&#45;&gt;pang.noteserver.NoteServer -->
<g id="edge12" class="edge">
<title>builtins.object&#45;&gt;pang.noteserver.NoteServer</title>
<path fill="none" stroke="lightslategrey" d="M41.01,-342.75C46.43,-362.21 60.8,-406.44 86,-435 89.72,-439.21 94.25,-443 98.96,-446.32"/>
<polygon fill="lightslategrey" stroke="lightslategrey" points="97.18,-449.34 107.5,-451.76 100.95,-443.43 97.18,-449.34"/>
</g>
<!-- builtins.object&#45;&gt;pang.postprocessors.OttavaHandler -->
<g id="edge13" class="edge">
<title>builtins.object&#45;&gt;pang.postprocessors.OttavaHandler</title>
<path fill="none" stroke="lightslategrey" d="M59.04,-339.81C69.63,-343.32 82.83,-347.69 94.9,-351.7"/>
<polygon fill="lightslategrey" stroke="lightslategrey" points="94.1,-355.12 104.69,-354.94 96.3,-348.47 94.1,-355.12"/>
</g>
<!-- builtins.object&#45;&gt;pang.scoping.Scope -->
<g id="edge14" class="edge">
<title>builtins.object&#45;&gt;pang.scoping.Scope</title>
<path fill="none" stroke="lightslategrey" d="M59.25,-328.21C92.8,-320.46 159.13,-305.14 198.21,-296.11"/>
<polygon fill="lightslategrey" stroke="lightslategrey" points="199.03,-299.51 207.99,-293.85 197.45,-292.69 199.03,-299.51"/>
</g>
<!-- builtins.object&#45;&gt;pang.segmentmaker.SegmentMaker -->
<g id="edge15" class="edge">
<title>builtins.object&#45;&gt;pang.segmentmaker.SegmentMaker</title>
<path fill="none" stroke="lightslategrey" d="M49.11,-323.48C58.3,-315.68 72.24,-304.84 86,-298 160.03,-261.22 258.45,-252.87 311.42,-251.19"/>
<polygon fill="lightslategrey" stroke="lightslategrey" points="311.79,-254.69 321.7,-250.94 311.62,-247.69 311.79,-254.69"/>
</g>
<!-- builtins.object&#45;&gt;pang.sequences.Sequence -->
<g id="edge16" class="edge">
<title>builtins.object&#45;&gt;pang.sequences.Sequence</title>
<path fill="none" stroke="lightslategrey" d="M41.98,-323.49C48.76,-305.67 64.96,-266.47 86,-238 92.48,-229.23 100.95,-220.71 108.65,-213.73"/>
<polygon fill="lightslategrey" stroke="lightslategrey" points="111.34,-216.03 116.58,-206.82 106.74,-210.75 111.34,-216.03"/>
</g>
<!-- builtins.object&#45;&gt;pang.soundpointsgenerators.SoundPoint -->
<g id="edge17" class="edge">
<title>builtins.object&#45;&gt;pang.soundpointsgenerators.SoundPoint</title>
<path fill="none" stroke="lightslategrey" d="M38.06,-323.25C37.39,-295.11 39.67,-213.36 86,-175 117.09,-149.25 165.97,-150.05 197.75,-154.13"/>
<polygon fill="lightslategrey" stroke="lightslategrey" points="197.42,-157.62 207.82,-155.6 198.44,-150.69 197.42,-157.62"/>
</g>
<!-- builtins.object&#45;&gt;pang.soundpointsgenerators.SoundPointsGenerator -->
<g id="edge18" class="edge">
<title>builtins.object&#45;&gt;pang.soundpointsgenerators.SoundPointsGenerator</title>
<path fill="none" stroke="lightslategrey" d="M37.88,-323.33C36.5,-292.87 36.54,-197.92 86,-147 113.2,-119 158.13,-109.77 190.37,-106.91"/>
<polygon fill="lightslategrey" stroke="lightslategrey" points="190.63,-110.4 200.35,-106.19 190.13,-103.42 190.63,-110.4"/>
</g>
<!-- pang.commands.Command&#45;&gt;pang.commands.QuantizeSequenceCommand -->
<g id="edge1" class="edge">
<title>pang.commands.Command&#45;&gt;pang.commands.QuantizeSequenceCommand</title>
<path fill="none" stroke="lightslategrey" d="M261.08,-587.53C275.51,-588.26 292.99,-589.15 308.56,-589.94"/>
<polygon fill="lightslategrey" stroke="lightslategrey" points="308.81,-593.46 318.97,-590.47 309.16,-586.47 308.81,-593.46"/>
</g>
<!-- pang.indicators.Indicator&#45;&gt;pang.indicators.Harmonics -->
<g id="edge2" class="edge">
<title>pang.indicators.Indicator&#45;&gt;pang.indicators.Harmonics</title>
<path fill="none" stroke="lightslategrey" d="M377.21,-518C390.66,-518 407.37,-518 422.53,-518"/>
<polygon fill="lightslategrey" stroke="lightslategrey" points="422.71,-521.5 432.71,-518 422.71,-514.5 422.71,-521.5"/>
</g>
<!-- pang.postprocessors.OttavaHandler&#45;&gt;pang.postprocessors.ManualOttavaHandler -->
<g id="edge3" class="edge">
<title>pang.postprocessors.OttavaHandler&#45;&gt;pang.postprocessors.ManualOttavaHandler</title>
<path fill="none" stroke="lightslategrey" d="M155.22,-363C167.12,-363 181.66,-363 194.68,-363"/>
<polygon fill="lightslategrey" stroke="lightslategrey" points="194.71,-366.5 204.71,-363 194.71,-359.5 194.71,-366.5"/>
</g>
<!-- pang.postprocessors.OttavaHandler&#45;&gt;pang.postprocessors.VerboseOttavaHandler -->
<g id="edge4" class="edge">
<title>pang.postprocessors.OttavaHandler&#45;&gt;pang.postprocessors.VerboseOttavaHandler</title>
<path fill="none" stroke="lightslategrey" d="M154.83,-378.11C165.47,-384 178.42,-390.03 191,-393 232.52,-402.8 281.77,-397.04 314.11,-390.99"/>
<polygon fill="lightslategrey" stroke="lightslategrey" points="314.86,-394.41 323.99,-389.03 313.5,-387.54 314.86,-394.41"/>
</g>
<!-- pang.soundpointsgenerators.SoundPointsGenerator&#45;&gt;pang.soundpointsgenerators.AtaxicSoundPointsGenerator -->
<g id="edge5" class="edge">
<title>pang.soundpointsgenerators.SoundPointsGenerator&#45;&gt;pang.soundpointsgenerators.AtaxicSoundPointsGenerator</title>
<path fill="none" stroke="lightslategrey" d="M259.56,-90.51C275.1,-82.08 294.52,-71.55 311.29,-62.45"/>
<polygon fill="lightslategrey" stroke="lightslategrey" points="313.17,-65.42 320.29,-57.57 309.83,-59.26 313.17,-65.42"/>
</g>
<!-- pang.soundpointsgenerators.SoundPointsGenerator&#45;&gt;pang.soundpointsgenerators.GRWSoundPointsGenerator -->
<g id="edge6" class="edge">
<title>pang.soundpointsgenerators.SoundPointsGenerator&#45;&gt;pang.soundpointsgenerators.GRWSoundPointsGenerator</title>
<path fill="none" stroke="lightslategrey" d="M259.57,-101.22C299.87,-94.47 373.74,-82.11 420.78,-74.23"/>
<polygon fill="lightslategrey" stroke="lightslategrey" points="421.39,-77.68 430.68,-72.58 420.24,-70.78 421.39,-77.68"/>
</g>
<!-- pang.soundpointsgenerators.SoundPointsGenerator&#45;&gt;pang.soundpointsgenerators.ManualSoundPointsGenerator -->
<g id="edge7" class="edge">
<title>pang.soundpointsgenerators.SoundPointsGenerator&#45;&gt;pang.soundpointsgenerators.ManualSoundPointsGenerator</title>
<path fill="none" stroke="lightslategrey" d="M259.64,-106.09C319.3,-106.27 456.96,-106.68 524.59,-106.88"/>
<polygon fill="lightslategrey" stroke="lightslategrey" points="524.8,-110.38 534.81,-106.91 524.83,-103.38 524.8,-110.38"/>
</g>
<!-- pang.soundpointsgenerators.SoundPointsGenerator&#45;&gt;pang.soundpointsgenerators.RandomWalkSoundPointsGenerator -->
<g id="edge8" class="edge">
<title>pang.soundpointsgenerators.SoundPointsGenerator&#45;&gt;pang.soundpointsgenerators.RandomWalkSoundPointsGenerator</title>
<path fill="none" stroke="lightslategrey" d="M259.56,-118.59C274.96,-125.37 294.16,-133.83 310.82,-141.18"/>
<polygon fill="lightslategrey" stroke="lightslategrey" points="309.73,-144.52 320.29,-145.35 312.55,-138.11 309.73,-144.52"/>
</g>
<!-- builtins.object -->
<g id="node1" class="node">
<title>builtins.object</title>
<g id="a_node1"><a xlink:href="https://docs.python.org/3.9/library/functions.html#object" xlink:title="object" target="_top">
<path fill="#fbb4ae" stroke="#fbb4ae" stroke-width="2" d="M52.67,-342.5C52.67,-342.5 22.33,-342.5 22.33,-342.5 19.17,-342.5 16,-339.33 16,-336.17 16,-336.17 16,-329.83 16,-329.83 16,-326.67 19.17,-323.5 22.33,-323.5 22.33,-323.5 52.67,-323.5 52.67,-323.5 55.83,-323.5 59,-326.67 59,-329.83 59,-329.83 59,-336.17 59,-336.17 59,-339.33 55.83,-342.5 52.67,-342.5"/>
<text text-anchor="middle" x="37.5" y="-330.5" font-family="Arial" font-size="10.00">object</text>
</a>
</g>
</g>
<!-- pang.cloud.Cloud -->
<g id="node2" class="node">
<title>pang.cloud.Cloud</title>
<g id="a_node2"><a xlink:href="../api/pang/cloud.html#pang.cloud.Cloud" xlink:title="Cloud" target="_top">
<path fill="#b3cde3" stroke="#b3cde3" stroke-width="2" d="M144.67,-607.5C144.67,-607.5 115.33,-607.5 115.33,-607.5 112.17,-607.5 109,-604.33 109,-601.17 109,-601.17 109,-594.83 109,-594.83 109,-591.67 112.17,-588.5 115.33,-588.5 115.33,-588.5 144.67,-588.5 144.67,-588.5 147.83,-588.5 151,-591.67 151,-594.83 151,-594.83 151,-601.17 151,-601.17 151,-604.33 147.83,-607.5 144.67,-607.5"/>
<text text-anchor="middle" x="130" y="-595.5" font-family="Arial" font-size="10.00">Cloud</text>
</a>
</g>
</g>
<!-- pang.commands.Command -->
<g id="node3" class="node">
<title>pang.commands.Command</title>
<g id="a_node3"><a xlink:href="../api/pang/commands.html#pang.commands.Command" xlink:title="Command" target="_top">
<path fill="#ccebc5" stroke="#ccebc5" stroke-width="2" d="M254.67,-595.5C254.67,-595.5 205.33,-595.5 205.33,-595.5 202.17,-595.5 199,-592.33 199,-589.17 199,-589.17 199,-582.83 199,-582.83 199,-579.67 202.17,-576.5 205.33,-576.5 205.33,-576.5 254.67,-576.5 254.67,-576.5 257.83,-576.5 261,-579.67 261,-582.83 261,-582.83 261,-589.17 261,-589.17 261,-592.33 257.83,-595.5 254.67,-595.5"/>
<text text-anchor="middle" x="230" y="-583.5" font-family="Arial" font-size="10.00">Command</text>
</a>
</g>
</g>
<!-- pang.commands.QuantizeSequenceCommand -->
<g id="node4" class="node">
<title>pang.commands.QuantizeSequenceCommand</title>
<g id="a_node4"><a xlink:href="../api/pang/commands.html#pang.commands.QuantizeSequenceCommand" xlink:title="Quantize\nSequence\nCommand" target="_top">
<path fill="#ccebc5" stroke="#ccebc5" stroke-width="2" d="M369,-612.5C369,-612.5 331,-612.5 331,-612.5 325,-612.5 319,-606.5 319,-600.5 319,-600.5 319,-583.5 319,-583.5 319,-577.5 325,-571.5 331,-571.5 331,-571.5 369,-571.5 369,-571.5 375,-571.5 381,-577.5 381,-583.5 381,-583.5 381,-600.5 381,-600.5 381,-606.5 375,-612.5 369,-612.5"/>
<text text-anchor="middle" x="350" y="-600.5" font-family="Arial" font-size="10.00">Quantize</text>
<text text-anchor="middle" x="350" y="-589.5" font-family="Arial" font-size="10.00">Sequence</text>
<text text-anchor="middle" x="350" y="-578.5" font-family="Arial" font-size="10.00">Command</text>
</a>
</g>
</g>
<!-- pang.indicators.Harmonics -->
<g id="node5" class="node">
<title>pang.indicators.Harmonics</title>
<g id="a_node5"><a xlink:href="../api/pang/indicators.html#pang.indicators.Harmonics" xlink:title="Harmonics" target="_top">
<path fill="#decbe4" stroke="#decbe4" stroke-width="2" d="M490.67,-527.5C490.67,-527.5 439.33,-527.5 439.33,-527.5 436.17,-527.5 433,-524.33 433,-521.17 433,-521.17 433,-514.83 433,-514.83 433,-511.67 436.17,-508.5 439.33,-508.5 439.33,-508.5 490.67,-508.5 490.67,-508.5 493.83,-508.5 497,-511.67 497,-514.83 497,-514.83 497,-521.17 497,-521.17 497,-524.33 493.83,-527.5 490.67,-527.5"/>
<text text-anchor="middle" x="465" y="-515.5" font-family="Arial" font-size="10.00">Harmonics</text>
</a>
</g>
</g>
<!-- pang.indicators.Indicator -->
<g id="node6" class="node">
<title>pang.indicators.Indicator</title>
<g id="a_node6"><a xlink:href="../api/pang/indicators.html#pang.indicators.Indicator" xlink:title="Indicator" target="_top">
<path fill="#decbe4" stroke="#decbe4" stroke-width="2" d="M370.67,-527.5C370.67,-527.5 329.33,-527.5 329.33,-527.5 326.17,-527.5 323,-524.33 323,-521.17 323,-521.17 323,-514.83 323,-514.83 323,-511.67 326.17,-508.5 329.33,-508.5 329.33,-508.5 370.67,-508.5 370.67,-508.5 373.83,-508.5 377,-511.67 377,-514.83 377,-514.83 377,-521.17 377,-521.17 377,-524.33 373.83,-527.5 370.67,-527.5"/>
<text text-anchor="middle" x="350" y="-515.5" font-family="Arial" font-size="10.00">Indicator</text>
</a>
</g>
</g>
<!-- pang.noteserver.NoteServer -->
<g id="node7" class="node">
<title>pang.noteserver.NoteServer</title>
<g id="a_node7"><a xlink:href="../api/pang/noteserver.html#pang.noteserver.NoteServer" xlink:title="Note\nServer" target="_top">
<path fill="#fed9a6" stroke="#fed9a6" stroke-width="2" d="M142.5,-477C142.5,-477 117.5,-477 117.5,-477 112.5,-477 107.5,-472 107.5,-467 107.5,-467 107.5,-457 107.5,-457 107.5,-452 112.5,-447 117.5,-447 117.5,-447 142.5,-447 142.5,-447 147.5,-447 152.5,-452 152.5,-457 152.5,-457 152.5,-467 152.5,-467 152.5,-472 147.5,-477 142.5,-477"/>
<text text-anchor="middle" x="130" y="-465" font-family="Arial" font-size="10.00">Note</text>
<text text-anchor="middle" x="130" y="-454" font-family="Arial" font-size="10.00">Server</text>
</a>
</g>
</g>
<!-- pang.postprocessors.ManualOttavaHandler -->
<g id="node8" class="node">
<title>pang.postprocessors.ManualOttavaHandler</title>
<g id="a_node8"><a xlink:href="../api/pang/postprocessors.html#pang.postprocessors.ManualOttavaHandler" xlink:title="Manual\nOttava\nHandler" target="_top">
<path fill="#ffffcc" stroke="#ffffcc" stroke-width="2" d="M243,-383.5C243,-383.5 217,-383.5 217,-383.5 211,-383.5 205,-377.5 205,-371.5 205,-371.5 205,-354.5 205,-354.5 205,-348.5 211,-342.5 217,-342.5 217,-342.5 243,-342.5 243,-342.5 249,-342.5 255,-348.5 255,-354.5 255,-354.5 255,-371.5 255,-371.5 255,-377.5 249,-383.5 243,-383.5"/>
<text text-anchor="middle" x="230" y="-371.5" font-family="Arial" font-size="10.00">Manual</text>
<text text-anchor="middle" x="230" y="-360.5" font-family="Arial" font-size="10.00">Ottava</text>
<text text-anchor="middle" x="230" y="-349.5" font-family="Arial" font-size="10.00">Handler</text>
</a>
</g>
</g>
<!-- pang.postprocessors.OttavaHandler -->
<g id="node9" class="node">
<title>pang.postprocessors.OttavaHandler</title>
<g id="a_node9"><a xlink:href="../api/pang/postprocessors.html#pang.postprocessors.OttavaHandler" xlink:title="Ottava\nHandler" target="_top">
<path fill="#ffffcc" stroke="#ffffcc" stroke-width="2" d="M145,-378C145,-378 115,-378 115,-378 110,-378 105,-373 105,-368 105,-368 105,-358 105,-358 105,-353 110,-348 115,-348 115,-348 145,-348 145,-348 150,-348 155,-353 155,-358 155,-358 155,-368 155,-368 155,-373 150,-378 145,-378"/>
<text text-anchor="middle" x="130" y="-366" font-family="Arial" font-size="10.00">Ottava</text>
<text text-anchor="middle" x="130" y="-355" font-family="Arial" font-size="10.00">Handler</text>
</a>
</g>
</g>
<!-- pang.postprocessors.VerboseOttavaHandler -->
<g id="node10" class="node">
<title>pang.postprocessors.VerboseOttavaHandler</title>
<g id="a_node10"><a xlink:href="../api/pang/postprocessors.html#pang.postprocessors.VerboseOttavaHandler" xlink:title="Verbose\nOttava\nHandler" target="_top">
<path fill="#ffffcc" stroke="#ffffcc" stroke-width="2" d="M364,-403.5C364,-403.5 336,-403.5 336,-403.5 330,-403.5 324,-397.5 324,-391.5 324,-391.5 324,-374.5 324,-374.5 324,-368.5 330,-362.5 336,-362.5 336,-362.5 364,-362.5 364,-362.5 370,-362.5 376,-368.5 376,-374.5 376,-374.5 376,-391.5 376,-391.5 376,-397.5 370,-403.5 364,-403.5"/>
<text text-anchor="middle" x="350" y="-391.5" font-family="Arial" font-size="10.00">Verbose</text>
<text text-anchor="middle" x="350" y="-380.5" font-family="Arial" font-size="10.00">Ottava</text>
<text text-anchor="middle" x="350" y="-369.5" font-family="Arial" font-size="10.00">Handler</text>
</a>
</g>
</g>
<!-- pang.scoping.Scope -->
<g id="node11" class="node">
<title>pang.scoping.Scope</title>
<g id="a_node11"><a xlink:href="../api/pang/scoping.html#pang.scoping.Scope" xlink:title="Scope" target="_top">
<path fill="#e5d8bd" stroke="#e5d8bd" stroke-width="2" d="M245.67,-298.5C245.67,-298.5 214.33,-298.5 214.33,-298.5 211.17,-298.5 208,-295.33 208,-292.17 208,-292.17 208,-285.83 208,-285.83 208,-282.67 211.17,-279.5 214.33,-279.5 214.33,-279.5 245.67,-279.5 245.67,-279.5 248.83,-279.5 252,-282.67 252,-285.83 252,-285.83 252,-292.17 252,-292.17 252,-295.33 248.83,-298.5 245.67,-298.5"/>
<text text-anchor="middle" x="230" y="-286.5" font-family="Arial" font-size="10.00">Scope</text>
</a>
</g>
</g>
<!-- pang.segmentmaker.SegmentMaker -->
<g id="node12" class="node">
<title>pang.segmentmaker.SegmentMaker</title>
<g id="a_node12"><a xlink:href="../api/pang/segmentmaker.html#pang.segmentmaker.SegmentMaker" xlink:title="Segment\nMaker" target="_top">
<path fill="#fddaec" stroke="#fddaec" stroke-width="2" d="M368,-266C368,-266 332,-266 332,-266 327,-266 322,-261 322,-256 322,-256 322,-246 322,-246 322,-241 327,-236 332,-236 332,-236 368,-236 368,-236 373,-236 378,-241 378,-246 378,-246 378,-256 378,-256 378,-261 373,-266 368,-266"/>
<text text-anchor="middle" x="350" y="-254" font-family="Arial" font-size="10.00">Segment</text>
<text text-anchor="middle" x="350" y="-243" font-family="Arial" font-size="10.00">Maker</text>
</a>
</g>
</g>
<!-- pang.sequences.Sequence -->
<g id="node13" class="node">
<title>pang.sequences.Sequence</title>
<g id="a_node13"><a xlink:href="../api/pang/sequences.html#pang.sequences.Sequence" xlink:title="Sequence" target="_top">
<path fill="#f2f2f2" stroke="#f2f2f2" stroke-width="2" d="M153.67,-206.5C153.67,-206.5 106.33,-206.5 106.33,-206.5 103.17,-206.5 100,-203.33 100,-200.17 100,-200.17 100,-193.83 100,-193.83 100,-190.67 103.17,-187.5 106.33,-187.5 106.33,-187.5 153.67,-187.5 153.67,-187.5 156.83,-187.5 160,-190.67 160,-193.83 160,-193.83 160,-200.17 160,-200.17 160,-203.33 156.83,-206.5 153.67,-206.5"/>
<text text-anchor="middle" x="130" y="-194.5" font-family="Arial" font-size="10.00">Sequence</text>
</a>
</g>
</g>
<!-- pang.soundpointsgenerators.AtaxicSoundPointsGenerator -->
<g id="node14" class="node">
<title>pang.soundpointsgenerators.AtaxicSoundPointsGenerator</title>
<g id="a_node14"><a xlink:href="../api/pang/soundpointsgenerators.html#pang.soundpointsgenerators.AtaxicSoundPointsGenerator" xlink:title="Ataxic\nSound\nPoints\nGenerator" target="_top">
<path fill="#fbb4ae" stroke="#fbb4ae" stroke-width="2" d="M367.5,-68C367.5,-68 332.5,-68 332.5,-68 326.5,-68 320.5,-62 320.5,-56 320.5,-56 320.5,-28 320.5,-28 320.5,-22 326.5,-16 332.5,-16 332.5,-16 367.5,-16 367.5,-16 373.5,-16 379.5,-22 379.5,-28 379.5,-28 379.5,-56 379.5,-56 379.5,-62 373.5,-68 367.5,-68"/>
<text text-anchor="middle" x="350" y="-56" font-family="Arial" font-size="10.00">Ataxic</text>
<text text-anchor="middle" x="350" y="-45" font-family="Arial" font-size="10.00">Sound</text>
<text text-anchor="middle" x="350" y="-34" font-family="Arial" font-size="10.00">Points</text>
<text text-anchor="middle" x="350" y="-23" font-family="Arial" font-size="10.00">Generator</text>
</a>
</g>
</g>
<!-- pang.soundpointsgenerators.GRWSoundPointsGenerator -->
<g id="node15" class="node">
<title>pang.soundpointsgenerators.GRWSoundPointsGenerator</title>
<g id="a_node15"><a xlink:href="../api/pang/soundpointsgenerators.html#pang.soundpointsgenerators.GRWSoundPointsGenerator" xlink:title="GRWSound\nPoints\nGenerator" target="_top">
<path fill="#fbb4ae" stroke="#fbb4ae" stroke-width="2" d="M487,-87.5C487,-87.5 443,-87.5 443,-87.5 437,-87.5 431,-81.5 431,-75.5 431,-75.5 431,-58.5 431,-58.5 431,-52.5 437,-46.5 443,-46.5 443,-46.5 487,-46.5 487,-46.5 493,-46.5 499,-52.5 499,-58.5 499,-58.5 499,-75.5 499,-75.5 499,-81.5 493,-87.5 487,-87.5"/>
<text text-anchor="middle" x="465" y="-75.5" font-family="Arial" font-size="10.00">GRWSound</text>
<text text-anchor="middle" x="465" y="-64.5" font-family="Arial" font-size="10.00">Points</text>
<text text-anchor="middle" x="465" y="-53.5" font-family="Arial" font-size="10.00">Generator</text>
</a>
</g>
</g>
<!-- pang.soundpointsgenerators.ManualSoundPointsGenerator -->
<g id="node16" class="node">
<title>pang.soundpointsgenerators.ManualSoundPointsGenerator</title>
<g id="a_node16"><a xlink:href="../api/pang/soundpointsgenerators.html#pang.soundpointsgenerators.ManualSoundPointsGenerator" xlink:title="Manual\nSound\nPoints\nGenerator" target="_top">
<path fill="#fbb4ae" stroke="#fbb4ae" stroke-width="2" d="M582,-133C582,-133 547,-133 547,-133 541,-133 535,-127 535,-121 535,-121 535,-93 535,-93 535,-87 541,-81 547,-81 547,-81 582,-81 582,-81 588,-81 594,-87 594,-93 594,-93 594,-121 594,-121 594,-127 588,-133 582,-133"/>
<text text-anchor="middle" x="564.5" y="-121" font-family="Arial" font-size="10.00">Manual</text>
<text text-anchor="middle" x="564.5" y="-110" font-family="Arial" font-size="10.00">Sound</text>
<text text-anchor="middle" x="564.5" y="-99" font-family="Arial" font-size="10.00">Points</text>
<text text-anchor="middle" x="564.5" y="-88" font-family="Arial" font-size="10.00">Generator</text>
</a>
</g>
</g>
<!-- pang.soundpointsgenerators.RandomWalkSoundPointsGenerator -->
<g id="node17" class="node">
<title>pang.soundpointsgenerators.RandomWalkSoundPointsGenerator</title>
<g id="a_node17"><a xlink:href="../api/pang/soundpointsgenerators.html#pang.soundpointsgenerators.RandomWalkSoundPointsGenerator" xlink:title="Random\nWalk\nSound\nPoints\nGenerator" target="_top">
<path fill="#fbb4ae" stroke="#fbb4ae" stroke-width="2" d="M367.5,-189.5C367.5,-189.5 332.5,-189.5 332.5,-189.5 326.5,-189.5 320.5,-183.5 320.5,-177.5 320.5,-177.5 320.5,-138.5 320.5,-138.5 320.5,-132.5 326.5,-126.5 332.5,-126.5 332.5,-126.5 367.5,-126.5 367.5,-126.5 373.5,-126.5 379.5,-132.5 379.5,-138.5 379.5,-138.5 379.5,-177.5 379.5,-177.5 379.5,-183.5 373.5,-189.5 367.5,-189.5"/>
<text text-anchor="middle" x="350" y="-177.5" font-family="Arial" font-size="10.00">Random</text>
<text text-anchor="middle" x="350" y="-166.5" font-family="Arial" font-size="10.00">Walk</text>
<text text-anchor="middle" x="350" y="-155.5" font-family="Arial" font-size="10.00">Sound</text>
<text text-anchor="middle" x="350" y="-144.5" font-family="Arial" font-size="10.00">Points</text>
<text text-anchor="middle" x="350" y="-133.5" font-family="Arial" font-size="10.00">Generator</text>
</a>
</g>
</g>
<!-- pang.soundpointsgenerators.SoundPoint -->
<g id="node18" class="node">
<title>pang.soundpointsgenerators.SoundPoint</title>
<g id="a_node18"><a xlink:href="../api/pang/soundpointsgenerators.html#pang.soundpointsgenerators.SoundPoint" xlink:title="Sound\nPoint" target="_top">
<path fill="#fbb4ae" stroke="#fbb4ae" stroke-width="2" d="M242,-175C242,-175 218,-175 218,-175 213,-175 208,-170 208,-165 208,-165 208,-155 208,-155 208,-150 213,-145 218,-145 218,-145 242,-145 242,-145 247,-145 252,-150 252,-155 252,-155 252,-165 252,-165 252,-170 247,-175 242,-175"/>
<text text-anchor="middle" x="230" y="-163" font-family="Arial" font-size="10.00">Sound</text>
<text text-anchor="middle" x="230" y="-152" font-family="Arial" font-size="10.00">Point</text>
</a>
</g>
</g>
<!-- pang.soundpointsgenerators.SoundPointsGenerator -->
<g id="node19" class="node">
<title>pang.soundpointsgenerators.SoundPointsGenerator</title>
<g id="a_node19"><a xlink:href="../api/pang/soundpointsgenerators.html#pang.soundpointsgenerators.SoundPointsGenerator" xlink:title="Sound\nPoints\nGenerator" target="_top">
<path fill="#fbb4ae" stroke="#fbb4ae" stroke-width="2" d="M247.5,-126.5C247.5,-126.5 212.5,-126.5 212.5,-126.5 206.5,-126.5 200.5,-120.5 200.5,-114.5 200.5,-114.5 200.5,-97.5 200.5,-97.5 200.5,-91.5 206.5,-85.5 212.5,-85.5 212.5,-85.5 247.5,-85.5 247.5,-85.5 253.5,-85.5 259.5,-91.5 259.5,-97.5 259.5,-97.5 259.5,-114.5 259.5,-114.5 259.5,-120.5 253.5,-126.5 247.5,-126.5"/>
<text text-anchor="middle" x="230" y="-114.5" font-family="Arial" font-size="10.00">Sound</text>
<text text-anchor="middle" x="230" y="-103.5" font-family="Arial" font-size="10.00">Points</text>
<text text-anchor="middle" x="230" y="-92.5" font-family="Arial" font-size="10.00">Generator</text>
</a>
</g>
</g>
</g>
</svg>
