<?xml version="1.0" encoding="UTF-8" standalone="no"?>
<!DOCTYPE svg PUBLIC "-//W3C//DTD SVG 1.1//EN"
 "http://www.w3.org/Graphics/SVG/1.1/DTD/svg11.dtd">
<!-- Generated by graphviz version 2.46.1 (20210213.1702)
 -->
<!-- Title: InheritanceGraph Pages: 1 -->
<svg width="421pt" height="656pt"
 viewBox="0.00 0.00 421.00 656.00" xmlns="http://www.w3.org/2000/svg" xmlns:xlink="http://www.w3.org/1999/xlink">
<g id="graph0" class="graph" transform="scale(1 1) rotate(0) translate(4 652)">
<title>InheritanceGraph</title>
<g id="clust1" class="cluster">
<title>cluster_builtins</title>
<path fill="transparent" stroke="#bcd2ee" stroke-width="2" stroke-dasharray="5,2" d="M20,-364C20,-364 55,-364 55,-364 61,-364 67,-370 67,-376 67,-376 67,-407 67,-407 67,-413 61,-419 55,-419 55,-419 20,-419 20,-419 14,-419 8,-413 8,-407 8,-407 8,-376 8,-376 8,-370 14,-364 20,-364"/>
<text text-anchor="middle" x="37.5" y="-407" font-family="Arial" font-size="10.00">builtins</text>
</g>
<g id="clust2" class="cluster">
<title>cluster_pang.cloud</title>
<path fill="transparent" stroke="#bcd2ee" stroke-width="2" stroke-dasharray="5,2" d="M118.5,-585C118.5,-585 158.5,-585 158.5,-585 164.5,-585 170.5,-591 170.5,-597 170.5,-597 170.5,-628 170.5,-628 170.5,-634 164.5,-640 158.5,-640 158.5,-640 118.5,-640 118.5,-640 112.5,-640 106.5,-634 106.5,-628 106.5,-628 106.5,-597 106.5,-597 106.5,-591 112.5,-585 118.5,-585"/>
<text text-anchor="middle" x="138.5" y="-628" font-family="Arial" font-size="10.00">pang.cloud</text>
</g>
<g id="clust3" class="cluster">
<title>cluster_pang.commands</title>
<path fill="transparent" stroke="#bcd2ee" stroke-width="2" stroke-dasharray="5,2" d="M229,-536C229,-536 390,-536 390,-536 396,-536 402,-542 402,-548 402,-548 402,-601 402,-601 402,-607 396,-613 390,-613 390,-613 229,-613 229,-613 223,-613 217,-607 217,-601 217,-601 217,-548 217,-548 217,-542 223,-536 229,-536"/>
<text text-anchor="middle" x="309.5" y="-601" font-family="Arial" font-size="10.00">pang.commands</text>
</g>
<g id="clust4" class="cluster">
<title>cluster_pang.noteserver</title>
<path fill="transparent" stroke="#bcd2ee" stroke-width="2" stroke-dasharray="5,2" d="M108,-482C108,-482 170,-482 170,-482 176,-482 182,-488 182,-494 182,-494 182,-535 182,-535 182,-541 176,-547 170,-547 170,-547 108,-547 108,-547 102,-547 96,-541 96,-535 96,-535 96,-494 96,-494 96,-488 102,-482 108,-482"/>
<text text-anchor="middle" x="139" y="-535" font-family="Arial" font-size="10.00">pang.noteserver</text>
</g>
<g id="clust5" class="cluster">
<title>cluster_pang.postprocessors</title>
<path fill="transparent" stroke="#bcd2ee" stroke-width="2" stroke-dasharray="5,2" d="M117.5,-377C117.5,-377 385,-377 385,-377 391,-377 397,-383 397,-389 397,-389 397,-462 397,-462 397,-468 391,-474 385,-474 385,-474 117.5,-474 117.5,-474 111.5,-474 105.5,-468 105.5,-462 105.5,-462 105.5,-389 105.5,-389 105.5,-383 111.5,-377 117.5,-377"/>
<text text-anchor="middle" x="251.25" y="-462" font-family="Arial" font-size="10.00">pang.postprocessors</text>
</g>
<g id="clust6" class="cluster">
<title>cluster_pang.scoping</title>
<path fill="transparent" stroke="#bcd2ee" stroke-width="2" stroke-dasharray="5,2" d="M231,-314C231,-314 281,-314 281,-314 287,-314 293,-320 293,-326 293,-326 293,-357 293,-357 293,-363 287,-369 281,-369 281,-369 231,-369 231,-369 225,-369 219,-363 219,-357 219,-357 219,-326 219,-326 219,-320 225,-314 231,-314"/>
<text text-anchor="middle" x="256" y="-357" font-family="Arial" font-size="10.00">pang.scoping</text>
</g>
<g id="clust7" class="cluster">
<title>cluster_pang.segmentmaker</title>
<path fill="transparent" stroke="#bcd2ee" stroke-width="2" stroke-dasharray="5,2" d="M98.5,-276C98.5,-276 179.5,-276 179.5,-276 185.5,-276 191.5,-282 191.5,-288 191.5,-288 191.5,-329 191.5,-329 191.5,-335 185.5,-341 179.5,-341 179.5,-341 98.5,-341 98.5,-341 92.5,-341 86.5,-335 86.5,-329 86.5,-329 86.5,-288 86.5,-288 86.5,-282 92.5,-276 98.5,-276"/>
<text text-anchor="middle" x="139" y="-329" font-family="Arial" font-size="10.00">pang.segmentmaker</text>
</g>
<g id="clust8" class="cluster">
<title>cluster_pang.sequences</title>
<path fill="transparent" stroke="#bcd2ee" stroke-width="2" stroke-dasharray="5,2" d="M224,-8C224,-8 288,-8 288,-8 294,-8 300,-14 300,-20 300,-20 300,-51 300,-51 300,-57 294,-63 288,-63 288,-63 224,-63 224,-63 218,-63 212,-57 212,-51 212,-51 212,-20 212,-20 212,-14 218,-8 224,-8"/>
<text text-anchor="middle" x="256" y="-51" font-family="Arial" font-size="10.00">pang.sequences</text>
</g>
<g id="clust9" class="cluster">
<title>cluster_pang.soundpointsgenerators</title>
<path fill="transparent" stroke="#bcd2ee" stroke-width="2" stroke-dasharray="5,2" d="M113,-71C113,-71 393,-71 393,-71 399,-71 405,-77 405,-83 405,-83 405,-256 405,-256 405,-262 399,-268 393,-268 393,-268 113,-268 113,-268 107,-268 101,-262 101,-256 101,-256 101,-83 101,-83 101,-77 107,-71 113,-71"/>
<text text-anchor="middle" x="253" y="-256" font-family="Arial" font-size="10.00">pang.soundpointsgenerators</text>
</g>
<!-- builtins.object&#45;&gt;pang.cloud.Cloud -->
<g id="edge8" class="edge">
<title>builtins.object&#45;&gt;pang.cloud.Cloud</title>
<path fill="none" stroke="lightslategrey" d="M38.09,-391.89C37.34,-423.11 39.06,-520.93 86.5,-579 92.05,-585.79 99.95,-590.76 107.89,-594.37"/>
<polygon fill="lightslategrey" stroke="lightslategrey" points="106.85,-597.72 117.44,-598.11 109.4,-591.2 106.85,-597.72"/>
</g>
<!-- builtins.object&#45;&gt;pang.commands.Command -->
<g id="edge9" class="edge">
<title>builtins.object&#45;&gt;pang.commands.Command</title>
<path fill="none" stroke="lightslategrey" d="M39.79,-391.56C44.38,-424.15 61.06,-530.07 86.5,-551 122.03,-580.24 177.23,-578.92 214.69,-573.5"/>
<polygon fill="lightslategrey" stroke="lightslategrey" points="215.43,-576.93 224.75,-571.89 214.32,-570.01 215.43,-576.93"/>
</g>
<!-- builtins.object&#45;&gt;pang.noteserver.NoteServer -->
<g id="edge10" class="edge">
<title>builtins.object&#45;&gt;pang.noteserver.NoteServer</title>
<path fill="none" stroke="lightslategrey" d="M41.14,-391.62C46.7,-410.34 61.24,-452.14 86.5,-478 92.26,-483.9 99.58,-488.79 106.87,-492.72"/>
<polygon fill="lightslategrey" stroke="lightslategrey" points="105.45,-495.92 115.97,-497.18 108.53,-489.63 105.45,-495.92"/>
</g>
<!-- builtins.object&#45;&gt;pang.postprocessors.OttavaHandler -->
<g id="edge11" class="edge">
<title>builtins.object&#45;&gt;pang.postprocessors.OttavaHandler</title>
<path fill="none" stroke="lightslategrey" d="M59.01,-386.97C71.81,-390.07 88.59,-394.14 103.35,-397.72"/>
<polygon fill="lightslategrey" stroke="lightslategrey" points="102.63,-401.15 113.17,-400.1 104.28,-394.34 102.63,-401.15"/>
</g>
<!-- builtins.object&#45;&gt;pang.scoping.Scope -->
<g id="edge12" class="edge">
<title>builtins.object&#45;&gt;pang.scoping.Scope</title>
<path fill="none" stroke="lightslategrey" d="M59.26,-377.21C97.55,-368.36 179.47,-349.44 224.24,-339.1"/>
<polygon fill="lightslategrey" stroke="lightslategrey" points="225.03,-342.51 233.99,-336.85 223.45,-335.69 225.03,-342.51"/>
</g>
<!-- builtins.object&#45;&gt;pang.segmentmaker.SegmentMaker -->
<g id="edge13" class="edge">
<title>builtins.object&#45;&gt;pang.segmentmaker.SegmentMaker</title>
<path fill="none" stroke="lightslategrey" d="M49.86,-372.48C64.86,-359.9 91.71,-337.39 111.75,-320.59"/>
<polygon fill="lightslategrey" stroke="lightslategrey" points="114.19,-323.11 119.6,-314.01 109.69,-317.75 114.19,-323.11"/>
</g>
<!-- builtins.object&#45;&gt;pang.sequences.Sequence -->
<g id="edge14" class="edge">
<title>builtins.object&#45;&gt;pang.sequences.Sequence</title>
<path fill="none" stroke="lightslategrey" d="M38.58,-372.26C39.17,-324.23 44.18,-113.19 86.5,-67 119.03,-31.49 176.7,-24.35 215.39,-23.99"/>
<polygon fill="lightslategrey" stroke="lightslategrey" points="215.74,-27.49 225.76,-24.05 215.78,-20.49 215.74,-27.49"/>
</g>
<!-- builtins.object&#45;&gt;pang.soundpointsgenerators.SoundPointsGenerator -->
<g id="edge15" class="edge">
<title>builtins.object&#45;&gt;pang.soundpointsgenerators.SoundPointsGenerator</title>
<path fill="none" stroke="lightslategrey" d="M42.07,-372.32C49.4,-352.83 67.08,-307.69 86.5,-272 95.45,-255.55 106.84,-238.09 116.59,-223.96"/>
<polygon fill="lightslategrey" stroke="lightslategrey" points="119.55,-225.83 122.41,-215.63 113.81,-221.82 119.55,-225.83"/>
</g>
<!-- pang.commands.Command&#45;&gt;pang.commands.QuantizeSequenceCommand -->
<g id="edge1" class="edge">
<title>pang.commands.Command&#45;&gt;pang.commands.QuantizeSequenceCommand</title>
<path fill="none" stroke="lightslategrey" d="M287.09,-565C297.85,-565 310.16,-565 321.65,-565"/>
<polygon fill="lightslategrey" stroke="lightslategrey" points="321.91,-568.5 331.91,-565 321.91,-561.5 321.91,-568.5"/>
</g>
<!-- pang.postprocessors.OttavaHandler&#45;&gt;pang.postprocessors.ManualOttavaHandler -->
<g id="edge2" class="edge">
<title>pang.postprocessors.OttavaHandler&#45;&gt;pang.postprocessors.ManualOttavaHandler</title>
<path fill="none" stroke="lightslategrey" d="M163.71,-406C180.27,-406 202.45,-406 220.8,-406"/>
<polygon fill="lightslategrey" stroke="lightslategrey" points="220.82,-409.5 230.82,-406 220.82,-402.5 220.82,-409.5"/>
</g>
<!-- pang.postprocessors.OttavaHandler&#45;&gt;pang.postprocessors.VerboseOttavaHandler -->
<g id="edge3" class="edge">
<title>pang.postprocessors.OttavaHandler&#45;&gt;pang.postprocessors.VerboseOttavaHandler</title>
<path fill="none" stroke="lightslategrey" d="M163.58,-418.76C177.34,-425.33 195.17,-432.65 212,-436 250.7,-443.69 296,-438.81 326.61,-433.53"/>
<polygon fill="lightslategrey" stroke="lightslategrey" points="327.59,-436.9 336.79,-431.66 326.32,-430.02 327.59,-436.9"/>
</g>
<!-- pang.soundpointsgenerators.SoundPointsGenerator&#45;&gt;pang.soundpointsgenerators.AtaxicSoundPointsGenerator -->
<g id="edge4" class="edge">
<title>pang.soundpointsgenerators.SoundPointsGenerator&#45;&gt;pang.soundpointsgenerators.AtaxicSoundPointsGenerator</title>
<path fill="none" stroke="lightslategrey" d="M166,-174.35C181.45,-162.31 201.18,-146.94 218.13,-133.73"/>
<polygon fill="lightslategrey" stroke="lightslategrey" points="220.46,-136.35 226.2,-127.44 216.16,-130.83 220.46,-136.35"/>
</g>
<!-- pang.soundpointsgenerators.SoundPointsGenerator&#45;&gt;pang.soundpointsgenerators.GRWSoundPointsGenerator -->
<g id="edge5" class="edge">
<title>pang.soundpointsgenerators.SoundPointsGenerator&#45;&gt;pang.soundpointsgenerators.GRWSoundPointsGenerator</title>
<path fill="none" stroke="lightslategrey" d="M168.29,-178.55C181.27,-171.81 197.02,-164.54 212,-160 247,-149.39 288.25,-144.11 318.63,-141.5"/>
<polygon fill="lightslategrey" stroke="lightslategrey" points="319.2,-144.96 328.89,-140.68 318.64,-137.99 319.2,-144.96"/>
</g>
<!-- pang.soundpointsgenerators.SoundPointsGenerator&#45;&gt;pang.soundpointsgenerators.ManualSoundPointsGenerator -->
<g id="edge6" class="edge">
<title>pang.soundpointsgenerators.SoundPointsGenerator&#45;&gt;pang.soundpointsgenerators.ManualSoundPointsGenerator</title>
<path fill="none" stroke="lightslategrey" d="M168.05,-195C182.63,-195 200.57,-195 216.37,-195"/>
<polygon fill="lightslategrey" stroke="lightslategrey" points="216.38,-198.5 226.38,-195 216.38,-191.5 216.38,-198.5"/>
</g>
<!-- pang.soundpointsgenerators.SoundPointsGenerator&#45;&gt;pang.soundpointsgenerators.RandomWalkSoundPointsGenerator -->
<g id="edge7" class="edge">
<title>pang.soundpointsgenerators.SoundPointsGenerator&#45;&gt;pang.soundpointsgenerators.RandomWalkSoundPointsGenerator</title>
<path fill="none" stroke="lightslategrey" d="M168.03,-212.45C180.96,-219.37 196.74,-226.51 212,-230 250.13,-238.72 261.41,-236.36 300,-230 307.88,-228.7 316.11,-226.53 323.91,-224.07"/>
<polygon fill="lightslategrey" stroke="lightslategrey" points="325.13,-227.35 333.48,-220.83 322.89,-220.72 325.13,-227.35"/>
</g>
<!-- builtins.object -->
<g id="node1" class="node">
<title>builtins.object</title>
<g id="a_node1"><a xlink:href="https://docs.python.org/3.9/library/functions.html#object" xlink:title="object" target="_top">
<path fill="#fbb4ae" stroke="#fbb4ae" stroke-width="2" d="M52.67,-391.5C52.67,-391.5 22.33,-391.5 22.33,-391.5 19.17,-391.5 16,-388.33 16,-385.17 16,-385.17 16,-378.83 16,-378.83 16,-375.67 19.17,-372.5 22.33,-372.5 22.33,-372.5 52.67,-372.5 52.67,-372.5 55.83,-372.5 59,-375.67 59,-378.83 59,-378.83 59,-385.17 59,-385.17 59,-388.33 55.83,-391.5 52.67,-391.5"/>
<text text-anchor="middle" x="37.5" y="-379.5" font-family="Arial" font-size="10.00">object</text>
</a>
</g>
</g>
<!-- pang.cloud.Cloud -->
<g id="node2" class="node">
<title>pang.cloud.Cloud</title>
<g id="a_node2"><a xlink:href="../api/pang/cloud.html#pang.cloud.Cloud" xlink:title="Cloud" target="_top">
<path fill="#b3cde3" stroke="#b3cde3" stroke-width="2" d="M153.17,-612.5C153.17,-612.5 123.83,-612.5 123.83,-612.5 120.67,-612.5 117.5,-609.33 117.5,-606.17 117.5,-606.17 117.5,-599.83 117.5,-599.83 117.5,-596.67 120.67,-593.5 123.83,-593.5 123.83,-593.5 153.17,-593.5 153.17,-593.5 156.33,-593.5 159.5,-596.67 159.5,-599.83 159.5,-599.83 159.5,-606.17 159.5,-606.17 159.5,-609.33 156.33,-612.5 153.17,-612.5"/>
<text text-anchor="middle" x="138.5" y="-600.5" font-family="Arial" font-size="10.00">Cloud</text>
</a>
</g>
</g>
<!-- pang.commands.Command -->
<g id="node3" class="node">
<title>pang.commands.Command</title>
<g id="a_node3"><a xlink:href="../api/pang/commands.html#pang.commands.Command" xlink:title="Command" target="_top">
<path fill="#ccebc5" stroke="#ccebc5" stroke-width="2" d="M280.67,-574.5C280.67,-574.5 231.33,-574.5 231.33,-574.5 228.17,-574.5 225,-571.33 225,-568.17 225,-568.17 225,-561.83 225,-561.83 225,-558.67 228.17,-555.5 231.33,-555.5 231.33,-555.5 280.67,-555.5 280.67,-555.5 283.83,-555.5 287,-558.67 287,-561.83 287,-561.83 287,-568.17 287,-568.17 287,-571.33 283.83,-574.5 280.67,-574.5"/>
<text text-anchor="middle" x="256" y="-562.5" font-family="Arial" font-size="10.00">Command</text>
</a>
</g>
</g>
<!-- pang.commands.QuantizeSequenceCommand -->
<g id="node4" class="node">
<title>pang.commands.QuantizeSequenceCommand</title>
<g id="a_node4"><a xlink:href="../api/pang/commands.html#pang.commands.QuantizeSequenceCommand" xlink:title="Quantize\nSequence\nCommand" target="_top">
<path fill="#ccebc5" stroke="#ccebc5" stroke-width="2" d="M382,-585.5C382,-585.5 344,-585.5 344,-585.5 338,-585.5 332,-579.5 332,-573.5 332,-573.5 332,-556.5 332,-556.5 332,-550.5 338,-544.5 344,-544.5 344,-544.5 382,-544.5 382,-544.5 388,-544.5 394,-550.5 394,-556.5 394,-556.5 394,-573.5 394,-573.5 394,-579.5 388,-585.5 382,-585.5"/>
<text text-anchor="middle" x="363" y="-573.5" font-family="Arial" font-size="10.00">Quantize</text>
<text text-anchor="middle" x="363" y="-562.5" font-family="Arial" font-size="10.00">Sequence</text>
<text text-anchor="middle" x="363" y="-551.5" font-family="Arial" font-size="10.00">Command</text>
</a>
</g>
</g>
<!-- pang.noteserver.NoteServer -->
<g id="node5" class="node">
<title>pang.noteserver.NoteServer</title>
<g id="a_node5"><a xlink:href="../api/pang/noteserver.html#pang.noteserver.NoteServer" xlink:title="Note\nServer" target="_top">
<path fill="#decbe4" stroke="#decbe4" stroke-width="2" d="M151,-520C151,-520 126,-520 126,-520 121,-520 116,-515 116,-510 116,-510 116,-500 116,-500 116,-495 121,-490 126,-490 126,-490 151,-490 151,-490 156,-490 161,-495 161,-500 161,-500 161,-510 161,-510 161,-515 156,-520 151,-520"/>
<text text-anchor="middle" x="138.5" y="-508" font-family="Arial" font-size="10.00">Note</text>
<text text-anchor="middle" x="138.5" y="-497" font-family="Arial" font-size="10.00">Server</text>
</a>
</g>
</g>
<!-- pang.postprocessors.ManualOttavaHandler -->
<g id="node6" class="node">
<title>pang.postprocessors.ManualOttavaHandler</title>
<g id="a_node6"><a xlink:href="../api/pang/postprocessors.html#pang.postprocessors.ManualOttavaHandler" xlink:title="Manual\nOttava\nHandler" target="_top">
<path fill="#fed9a6" stroke="#fed9a6" stroke-width="2" d="M269,-426.5C269,-426.5 243,-426.5 243,-426.5 237,-426.5 231,-420.5 231,-414.5 231,-414.5 231,-397.5 231,-397.5 231,-391.5 237,-385.5 243,-385.5 243,-385.5 269,-385.5 269,-385.5 275,-385.5 281,-391.5 281,-397.5 281,-397.5 281,-414.5 281,-414.5 281,-420.5 275,-426.5 269,-426.5"/>
<text text-anchor="middle" x="256" y="-414.5" font-family="Arial" font-size="10.00">Manual</text>
<text text-anchor="middle" x="256" y="-403.5" font-family="Arial" font-size="10.00">Ottava</text>
<text text-anchor="middle" x="256" y="-392.5" font-family="Arial" font-size="10.00">Handler</text>
</a>
</g>
</g>
<!-- pang.postprocessors.OttavaHandler -->
<g id="node7" class="node">
<title>pang.postprocessors.OttavaHandler</title>
<g id="a_node7"><a xlink:href="../api/pang/postprocessors.html#pang.postprocessors.OttavaHandler" xlink:title="Ottava\nHandler" target="_top">
<path fill="#fed9a6" stroke="#fed9a6" stroke-width="2" d="M153.5,-421C153.5,-421 123.5,-421 123.5,-421 118.5,-421 113.5,-416 113.5,-411 113.5,-411 113.5,-401 113.5,-401 113.5,-396 118.5,-391 123.5,-391 123.5,-391 153.5,-391 153.5,-391 158.5,-391 163.5,-396 163.5,-401 163.5,-401 163.5,-411 163.5,-411 163.5,-416 158.5,-421 153.5,-421"/>
<text text-anchor="middle" x="138.5" y="-409" font-family="Arial" font-size="10.00">Ottava</text>
<text text-anchor="middle" x="138.5" y="-398" font-family="Arial" font-size="10.00">Handler</text>
</a>
</g>
</g>
<!-- pang.postprocessors.VerboseOttavaHandler -->
<g id="node8" class="node">
<title>pang.postprocessors.VerboseOttavaHandler</title>
<g id="a_node8"><a xlink:href="../api/pang/postprocessors.html#pang.postprocessors.VerboseOttavaHandler" xlink:title="Verbose\nOttava\nHandler" target="_top">
<path fill="#fed9a6" stroke="#fed9a6" stroke-width="2" d="M377,-446.5C377,-446.5 349,-446.5 349,-446.5 343,-446.5 337,-440.5 337,-434.5 337,-434.5 337,-417.5 337,-417.5 337,-411.5 343,-405.5 349,-405.5 349,-405.5 377,-405.5 377,-405.5 383,-405.5 389,-411.5 389,-417.5 389,-417.5 389,-434.5 389,-434.5 389,-440.5 383,-446.5 377,-446.5"/>
<text text-anchor="middle" x="363" y="-434.5" font-family="Arial" font-size="10.00">Verbose</text>
<text text-anchor="middle" x="363" y="-423.5" font-family="Arial" font-size="10.00">Ottava</text>
<text text-anchor="middle" x="363" y="-412.5" font-family="Arial" font-size="10.00">Handler</text>
</a>
</g>
</g>
<!-- pang.scoping.Scope -->
<g id="node9" class="node">
<title>pang.scoping.Scope</title>
<g id="a_node9"><a xlink:href="../api/pang/scoping.html#pang.scoping.Scope" xlink:title="Scope" target="_top">
<path fill="#ffffcc" stroke="#ffffcc" stroke-width="2" d="M271.67,-341.5C271.67,-341.5 240.33,-341.5 240.33,-341.5 237.17,-341.5 234,-338.33 234,-335.17 234,-335.17 234,-328.83 234,-328.83 234,-325.67 237.17,-322.5 240.33,-322.5 240.33,-322.5 271.67,-322.5 271.67,-322.5 274.83,-322.5 278,-325.67 278,-328.83 278,-328.83 278,-335.17 278,-335.17 278,-338.33 274.83,-341.5 271.67,-341.5"/>
<text text-anchor="middle" x="256" y="-329.5" font-family="Arial" font-size="10.00">Scope</text>
</a>
</g>
</g>
<!-- pang.segmentmaker.SegmentMaker -->
<g id="node10" class="node">
<title>pang.segmentmaker.SegmentMaker</title>
<g id="a_node10"><a xlink:href="../api/pang/segmentmaker.html#pang.segmentmaker.SegmentMaker" xlink:title="Segment\nMaker" target="_top">
<path fill="#e5d8bd" stroke="#e5d8bd" stroke-width="2" d="M156.5,-314C156.5,-314 120.5,-314 120.5,-314 115.5,-314 110.5,-309 110.5,-304 110.5,-304 110.5,-294 110.5,-294 110.5,-289 115.5,-284 120.5,-284 120.5,-284 156.5,-284 156.5,-284 161.5,-284 166.5,-289 166.5,-294 166.5,-294 166.5,-304 166.5,-304 166.5,-309 161.5,-314 156.5,-314"/>
<text text-anchor="middle" x="138.5" y="-302" font-family="Arial" font-size="10.00">Segment</text>
<text text-anchor="middle" x="138.5" y="-291" font-family="Arial" font-size="10.00">Maker</text>
</a>
</g>
</g>
<!-- pang.sequences.Sequence -->
<g id="node11" class="node">
<title>pang.sequences.Sequence</title>
<g id="a_node11"><a xlink:href="../api/pang/sequences.html#pang.sequences.Sequence" xlink:title="Sequence" target="_top">
<path fill="#fddaec" stroke="#fddaec" stroke-width="2" d="M279.67,-35.5C279.67,-35.5 232.33,-35.5 232.33,-35.5 229.17,-35.5 226,-32.33 226,-29.17 226,-29.17 226,-22.83 226,-22.83 226,-19.67 229.17,-16.5 232.33,-16.5 232.33,-16.5 279.67,-16.5 279.67,-16.5 282.83,-16.5 286,-19.67 286,-22.83 286,-22.83 286,-29.17 286,-29.17 286,-32.33 282.83,-35.5 279.67,-35.5"/>
<text text-anchor="middle" x="256" y="-23.5" font-family="Arial" font-size="10.00">Sequence</text>
</a>
</g>
</g>
<!-- pang.soundpointsgenerators.AtaxicSoundPointsGenerator -->
<g id="node12" class="node">
<title>pang.soundpointsgenerators.AtaxicSoundPointsGenerator</title>
<g id="a_node12"><a xlink:href="../api/pang/soundpointsgenerators.html#pang.soundpointsgenerators.AtaxicSoundPointsGenerator" xlink:title="Ataxic\nSound\nPoints\nGenerator" target="_top">
<path fill="#f2f2f2" stroke="#f2f2f2" stroke-width="2" d="M273.5,-131C273.5,-131 238.5,-131 238.5,-131 232.5,-131 226.5,-125 226.5,-119 226.5,-119 226.5,-91 226.5,-91 226.5,-85 232.5,-79 238.5,-79 238.5,-79 273.5,-79 273.5,-79 279.5,-79 285.5,-85 285.5,-91 285.5,-91 285.5,-119 285.5,-119 285.5,-125 279.5,-131 273.5,-131"/>
<text text-anchor="middle" x="256" y="-119" font-family="Arial" font-size="10.00">Ataxic</text>
<text text-anchor="middle" x="256" y="-108" font-family="Arial" font-size="10.00">Sound</text>
<text text-anchor="middle" x="256" y="-97" font-family="Arial" font-size="10.00">Points</text>
<text text-anchor="middle" x="256" y="-86" font-family="Arial" font-size="10.00">Generator</text>
</a>
</g>
</g>
<!-- pang.soundpointsgenerators.GRWSoundPointsGenerator -->
<g id="node13" class="node">
<title>pang.soundpointsgenerators.GRWSoundPointsGenerator</title>
<g id="a_node13"><a xlink:href="../api/pang/soundpointsgenerators.html#pang.soundpointsgenerators.GRWSoundPointsGenerator" xlink:title="GRWSound\nPoints\nGenerator" target="_top">
<path fill="#f2f2f2" stroke="#f2f2f2" stroke-width="2" d="M385,-159.5C385,-159.5 341,-159.5 341,-159.5 335,-159.5 329,-153.5 329,-147.5 329,-147.5 329,-130.5 329,-130.5 329,-124.5 335,-118.5 341,-118.5 341,-118.5 385,-118.5 385,-118.5 391,-118.5 397,-124.5 397,-130.5 397,-130.5 397,-147.5 397,-147.5 397,-153.5 391,-159.5 385,-159.5"/>
<text text-anchor="middle" x="363" y="-147.5" font-family="Arial" font-size="10.00">GRWSound</text>
<text text-anchor="middle" x="363" y="-136.5" font-family="Arial" font-size="10.00">Points</text>
<text text-anchor="middle" x="363" y="-125.5" font-family="Arial" font-size="10.00">Generator</text>
</a>
</g>
</g>
<!-- pang.soundpointsgenerators.ManualSoundPointsGenerator -->
<g id="node14" class="node">
<title>pang.soundpointsgenerators.ManualSoundPointsGenerator</title>
<g id="a_node14"><a xlink:href="../api/pang/soundpointsgenerators.html#pang.soundpointsgenerators.ManualSoundPointsGenerator" xlink:title="Manual\nSound\nPoints\nGenerator" target="_top">
<path fill="#f2f2f2" stroke="#f2f2f2" stroke-width="2" d="M273.5,-221C273.5,-221 238.5,-221 238.5,-221 232.5,-221 226.5,-215 226.5,-209 226.5,-209 226.5,-181 226.5,-181 226.5,-175 232.5,-169 238.5,-169 238.5,-169 273.5,-169 273.5,-169 279.5,-169 285.5,-175 285.5,-181 285.5,-181 285.5,-209 285.5,-209 285.5,-215 279.5,-221 273.5,-221"/>
<text text-anchor="middle" x="256" y="-209" font-family="Arial" font-size="10.00">Manual</text>
<text text-anchor="middle" x="256" y="-198" font-family="Arial" font-size="10.00">Sound</text>
<text text-anchor="middle" x="256" y="-187" font-family="Arial" font-size="10.00">Points</text>
<text text-anchor="middle" x="256" y="-176" font-family="Arial" font-size="10.00">Generator</text>
</a>
</g>
</g>
<!-- pang.soundpointsgenerators.RandomWalkSoundPointsGenerator -->
<g id="node15" class="node">
<title>pang.soundpointsgenerators.RandomWalkSoundPointsGenerator</title>
<g id="a_node15"><a xlink:href="../api/pang/soundpointsgenerators.html#pang.soundpointsgenerators.RandomWalkSoundPointsGenerator" xlink:title="Random\nWalk\nSound\nPoints\nGenerator" target="_top">
<path fill="#f2f2f2" stroke="#f2f2f2" stroke-width="2" d="M380.5,-240.5C380.5,-240.5 345.5,-240.5 345.5,-240.5 339.5,-240.5 333.5,-234.5 333.5,-228.5 333.5,-228.5 333.5,-189.5 333.5,-189.5 333.5,-183.5 339.5,-177.5 345.5,-177.5 345.5,-177.5 380.5,-177.5 380.5,-177.5 386.5,-177.5 392.5,-183.5 392.5,-189.5 392.5,-189.5 392.5,-228.5 392.5,-228.5 392.5,-234.5 386.5,-240.5 380.5,-240.5"/>
<text text-anchor="middle" x="363" y="-228.5" font-family="Arial" font-size="10.00">Random</text>
<text text-anchor="middle" x="363" y="-217.5" font-family="Arial" font-size="10.00">Walk</text>
<text text-anchor="middle" x="363" y="-206.5" font-family="Arial" font-size="10.00">Sound</text>
<text text-anchor="middle" x="363" y="-195.5" font-family="Arial" font-size="10.00">Points</text>
<text text-anchor="middle" x="363" y="-184.5" font-family="Arial" font-size="10.00">Generator</text>
</a>
</g>
</g>
<!-- pang.soundpointsgenerators.SoundPointsGenerator -->
<g id="node16" class="node">
<title>pang.soundpointsgenerators.SoundPointsGenerator</title>
<g id="a_node16"><a xlink:href="../api/pang/soundpointsgenerators.html#pang.soundpointsgenerators.SoundPointsGenerator" xlink:title="Sound\nPoints\nGenerator" target="_top">
<path fill="#f2f2f2" stroke="#f2f2f2" stroke-width="2" d="M156,-215.5C156,-215.5 121,-215.5 121,-215.5 115,-215.5 109,-209.5 109,-203.5 109,-203.5 109,-186.5 109,-186.5 109,-180.5 115,-174.5 121,-174.5 121,-174.5 156,-174.5 156,-174.5 162,-174.5 168,-180.5 168,-186.5 168,-186.5 168,-203.5 168,-203.5 168,-209.5 162,-215.5 156,-215.5"/>
<text text-anchor="middle" x="138.5" y="-203.5" font-family="Arial" font-size="10.00">Sound</text>
<text text-anchor="middle" x="138.5" y="-192.5" font-family="Arial" font-size="10.00">Points</text>
<text text-anchor="middle" x="138.5" y="-181.5" font-family="Arial" font-size="10.00">Generator</text>
</a>
</g>
</g>
</g>
</svg>
