<?xml version="1.0" encoding="UTF-8" standalone="no"?>
<!DOCTYPE svg PUBLIC "-//W3C//DTD SVG 1.1//EN"
 "http://www.w3.org/Graphics/SVG/1.1/DTD/svg11.dtd">
<!-- Generated by graphviz version 2.47.0 (20210316.0004)
 -->
<!-- Title: InheritanceGraph Pages: 1 -->
<svg width="377pt" height="221pt"
 viewBox="0.00 0.00 377.00 221.00" xmlns="http://www.w3.org/2000/svg" xmlns:xlink="http://www.w3.org/1999/xlink">
<g id="graph0" class="graph" transform="scale(1 1) rotate(0) translate(4 217)">
<title>InheritanceGraph</title>
<g id="clust1" class="cluster">
<title>cluster_builtins</title>
<path fill="transparent" stroke="#bcd2ee" stroke-width="2" stroke-dasharray="5,2" d="M20,-107C20,-107 55,-107 55,-107 61,-107 67,-113 67,-119 67,-119 67,-150 67,-150 67,-156 61,-162 55,-162 55,-162 20,-162 20,-162 14,-162 8,-156 8,-150 8,-150 8,-119 8,-119 8,-113 14,-107 20,-107"/>
<text text-anchor="middle" x="37.5" y="-150" font-family="Arial" font-size="10.00">builtins</text>
</g>
<g id="clust2" class="cluster">
<title>cluster_pang.soundpointsgenerators</title>
<path fill="transparent" stroke="#bcd2ee" stroke-width="2" stroke-dasharray="5,2" d="M99,-8C99,-8 349,-8 349,-8 355,-8 361,-14 361,-20 361,-20 361,-193 361,-193 361,-199 355,-205 349,-205 349,-205 99,-205 99,-205 93,-205 87,-199 87,-193 87,-193 87,-20 87,-20 87,-14 93,-8 99,-8"/>
<text text-anchor="middle" x="224" y="-193" font-family="Arial" font-size="10.00">pang.soundpointsgenerators</text>
</g>
<!-- builtins.object&#45;&gt;pang.soundpointsgenerators.SoundPoint -->
<g id="edge5" class="edge">
<title>builtins.object&#45;&gt;pang.soundpointsgenerators.SoundPoint</title>
<path fill="none" stroke="lightslategrey" d="M59.08,-131.54C69.08,-134.71 81.32,-138.6 92.43,-142.13"/>
<polygon fill="lightslategrey" stroke="lightslategrey" points="91.64,-145.55 102.23,-145.24 93.75,-138.88 91.64,-145.55"/>
</g>
<!-- builtins.object&#45;&gt;pang.soundpointsgenerators.SoundPointsGenerator -->
<g id="edge6" class="edge">
<title>builtins.object&#45;&gt;pang.soundpointsgenerators.SoundPointsGenerator</title>
<path fill="none" stroke="lightslategrey" d="M59.08,-118.46C66.94,-115.97 76.19,-113.03 85.18,-110.17"/>
<polygon fill="lightslategrey" stroke="lightslategrey" points="86.29,-113.49 94.76,-107.13 84.17,-106.82 86.29,-113.49"/>
</g>
<!-- pang.soundpointsgenerators.SoundPointsGenerator&#45;&gt;pang.soundpointsgenerators.AtaxicSoundPointsGenerator -->
<g id="edge1" class="edge">
<title>pang.soundpointsgenerators.SoundPointsGenerator&#45;&gt;pang.soundpointsgenerators.AtaxicSoundPointsGenerator</title>
<path fill="none" stroke="lightslategrey" d="M154.16,-80.74C162.65,-75.63 172.07,-69.96 181.02,-64.57"/>
<polygon fill="lightslategrey" stroke="lightslategrey" points="183.01,-67.46 189.77,-59.3 179.4,-61.46 183.01,-67.46"/>
</g>
<!-- pang.soundpointsgenerators.SoundPointsGenerator&#45;&gt;pang.soundpointsgenerators.GRWSoundPointsGenerator -->
<g id="edge2" class="edge">
<title>pang.soundpointsgenerators.SoundPointsGenerator&#45;&gt;pang.soundpointsgenerators.GRWSoundPointsGenerator</title>
<path fill="none" stroke="lightslategrey" d="M154.32,-94.71C186.24,-91.06 238.06,-85.14 274.83,-80.93"/>
<polygon fill="lightslategrey" stroke="lightslategrey" points="275.24,-84.41 284.78,-79.8 274.44,-77.46 275.24,-84.41"/>
</g>
<!-- pang.soundpointsgenerators.SoundPointsGenerator&#45;&gt;pang.soundpointsgenerators.ManualSoundPointsGenerator -->
<g id="edge3" class="edge">
<title>pang.soundpointsgenerators.SoundPointsGenerator&#45;&gt;pang.soundpointsgenerators.ManualSoundPointsGenerator</title>
<path fill="none" stroke="lightslategrey" d="M154.16,-108.48C162.38,-111.48 171.48,-114.81 180.18,-117.99"/>
<polygon fill="lightslategrey" stroke="lightslategrey" points="179.18,-121.35 189.77,-121.5 181.58,-114.78 179.18,-121.35"/>
</g>
<!-- pang.soundpointsgenerators.SoundPointsGenerator&#45;&gt;pang.soundpointsgenerators.RandomWalkSoundPointsGenerator -->
<g id="edge4" class="edge">
<title>pang.soundpointsgenerators.SoundPointsGenerator&#45;&gt;pang.soundpointsgenerators.RandomWalkSoundPointsGenerator</title>
<path fill="none" stroke="lightslategrey" d="M145.16,-118.62C148.13,-121.76 151.15,-124.96 154,-128 170.12,-145.22 168.39,-157.54 190,-167 218.54,-179.49 253.61,-172.35 279.82,-163.15"/>
<polygon fill="lightslategrey" stroke="lightslategrey" points="281.26,-166.35 289.4,-159.56 278.8,-159.79 281.26,-166.35"/>
</g>
<!-- builtins.object -->
<g id="node1" class="node">
<title>builtins.object</title>
<g id="a_node1"><a xlink:href="https://docs.python.org/3.9/library/functions.html#object" xlink:title="object" target="_top">
<path fill="#fbb4ae" stroke="#fbb4ae" stroke-width="2" d="M52.67,-134.5C52.67,-134.5 22.33,-134.5 22.33,-134.5 19.17,-134.5 16,-131.33 16,-128.17 16,-128.17 16,-121.83 16,-121.83 16,-118.67 19.17,-115.5 22.33,-115.5 22.33,-115.5 52.67,-115.5 52.67,-115.5 55.83,-115.5 59,-118.67 59,-121.83 59,-121.83 59,-128.17 59,-128.17 59,-131.33 55.83,-134.5 52.67,-134.5"/>
<text text-anchor="middle" x="37.5" y="-122.5" font-family="Arial" font-size="10.00">object</text>
</a>
</g>
</g>
<!-- pang.soundpointsgenerators.AtaxicSoundPointsGenerator -->
<g id="node2" class="node">
<title>pang.soundpointsgenerators.AtaxicSoundPointsGenerator</title>
<g id="a_node2"><a xlink:href="../api/pang/soundpointsgenerators.html#pang.soundpointsgenerators.AtaxicSoundPointsGenerator" xlink:title="Ataxic\nSound\nPoints\nGenerator" target="_top">
<path fill="black" stroke="black" stroke-width="2" d="M237,-68C237,-68 202,-68 202,-68 196,-68 190,-62 190,-56 190,-56 190,-28 190,-28 190,-22 196,-16 202,-16 202,-16 237,-16 237,-16 243,-16 249,-22 249,-28 249,-28 249,-56 249,-56 249,-62 243,-68 237,-68"/>
<text text-anchor="middle" x="219.5" y="-56" font-family="Arial" font-size="10.00" fill="white">Ataxic</text>
<text text-anchor="middle" x="219.5" y="-45" font-family="Arial" font-size="10.00" fill="white">Sound</text>
<text text-anchor="middle" x="219.5" y="-34" font-family="Arial" font-size="10.00" fill="white">Points</text>
<text text-anchor="middle" x="219.5" y="-23" font-family="Arial" font-size="10.00" fill="white">Generator</text>
</a>
</g>
</g>
<!-- pang.soundpointsgenerators.GRWSoundPointsGenerator -->
<g id="node3" class="node">
<title>pang.soundpointsgenerators.GRWSoundPointsGenerator</title>
<g id="a_node3"><a xlink:href="../api/pang/soundpointsgenerators.html#pang.soundpointsgenerators.GRWSoundPointsGenerator" xlink:title="GRWSound\nPoints\nGenerator" target="_top">
<path fill="black" stroke="black" stroke-width="2" d="M341,-96.5C341,-96.5 297,-96.5 297,-96.5 291,-96.5 285,-90.5 285,-84.5 285,-84.5 285,-67.5 285,-67.5 285,-61.5 291,-55.5 297,-55.5 297,-55.5 341,-55.5 341,-55.5 347,-55.5 353,-61.5 353,-67.5 353,-67.5 353,-84.5 353,-84.5 353,-90.5 347,-96.5 341,-96.5"/>
<text text-anchor="middle" x="319" y="-84.5" font-family="Arial" font-size="10.00" fill="white">GRWSound</text>
<text text-anchor="middle" x="319" y="-73.5" font-family="Arial" font-size="10.00" fill="white">Points</text>
<text text-anchor="middle" x="319" y="-62.5" font-family="Arial" font-size="10.00" fill="white">Generator</text>
</a>
</g>
</g>
<!-- pang.soundpointsgenerators.ManualSoundPointsGenerator -->
<g id="node4" class="node">
<title>pang.soundpointsgenerators.ManualSoundPointsGenerator</title>
<g id="a_node4"><a xlink:href="../api/pang/soundpointsgenerators.html#pang.soundpointsgenerators.ManualSoundPointsGenerator" xlink:title="Manual\nSound\nPoints\nGenerator" target="_top">
<path fill="black" stroke="black" stroke-width="2" d="M237,-158C237,-158 202,-158 202,-158 196,-158 190,-152 190,-146 190,-146 190,-118 190,-118 190,-112 196,-106 202,-106 202,-106 237,-106 237,-106 243,-106 249,-112 249,-118 249,-118 249,-146 249,-146 249,-152 243,-158 237,-158"/>
<text text-anchor="middle" x="219.5" y="-146" font-family="Arial" font-size="10.00" fill="white">Manual</text>
<text text-anchor="middle" x="219.5" y="-135" font-family="Arial" font-size="10.00" fill="white">Sound</text>
<text text-anchor="middle" x="219.5" y="-124" font-family="Arial" font-size="10.00" fill="white">Points</text>
<text text-anchor="middle" x="219.5" y="-113" font-family="Arial" font-size="10.00" fill="white">Generator</text>
</a>
</g>
</g>
<!-- pang.soundpointsgenerators.RandomWalkSoundPointsGenerator -->
<g id="node5" class="node">
<title>pang.soundpointsgenerators.RandomWalkSoundPointsGenerator</title>
<g id="a_node5"><a xlink:href="../api/pang/soundpointsgenerators.html#pang.soundpointsgenerators.RandomWalkSoundPointsGenerator" xlink:title="Random\nWalk\nSound\nPoints\nGenerator" target="_top">
<path fill="black" stroke="black" stroke-width="2" d="M336.5,-177.5C336.5,-177.5 301.5,-177.5 301.5,-177.5 295.5,-177.5 289.5,-171.5 289.5,-165.5 289.5,-165.5 289.5,-126.5 289.5,-126.5 289.5,-120.5 295.5,-114.5 301.5,-114.5 301.5,-114.5 336.5,-114.5 336.5,-114.5 342.5,-114.5 348.5,-120.5 348.5,-126.5 348.5,-126.5 348.5,-165.5 348.5,-165.5 348.5,-171.5 342.5,-177.5 336.5,-177.5"/>
<text text-anchor="middle" x="319" y="-165.5" font-family="Arial" font-size="10.00" fill="white">Random</text>
<text text-anchor="middle" x="319" y="-154.5" font-family="Arial" font-size="10.00" fill="white">Walk</text>
<text text-anchor="middle" x="319" y="-143.5" font-family="Arial" font-size="10.00" fill="white">Sound</text>
<text text-anchor="middle" x="319" y="-132.5" font-family="Arial" font-size="10.00" fill="white">Points</text>
<text text-anchor="middle" x="319" y="-121.5" font-family="Arial" font-size="10.00" fill="white">Generator</text>
</a>
</g>
</g>
<!-- pang.soundpointsgenerators.SoundPoint -->
<g id="node6" class="node">
<title>pang.soundpointsgenerators.SoundPoint</title>
<g id="a_node6"><a xlink:href="../api/pang/soundpointsgenerators.html#pang.soundpointsgenerators.SoundPoint" xlink:title="Sound\nPoint" target="_top">
<path fill="black" stroke="black" stroke-width="2" d="M136.5,-167C136.5,-167 112.5,-167 112.5,-167 107.5,-167 102.5,-162 102.5,-157 102.5,-157 102.5,-147 102.5,-147 102.5,-142 107.5,-137 112.5,-137 112.5,-137 136.5,-137 136.5,-137 141.5,-137 146.5,-142 146.5,-147 146.5,-147 146.5,-157 146.5,-157 146.5,-162 141.5,-167 136.5,-167"/>
<text text-anchor="middle" x="124.5" y="-155" font-family="Arial" font-size="10.00" fill="white">Sound</text>
<text text-anchor="middle" x="124.5" y="-144" font-family="Arial" font-size="10.00" fill="white">Point</text>
</a>
</g>
</g>
<!-- pang.soundpointsgenerators.SoundPointsGenerator -->
<g id="node7" class="node">
<title>pang.soundpointsgenerators.SoundPointsGenerator</title>
<g id="a_node7"><a xlink:href="../api/pang/soundpointsgenerators.html#pang.soundpointsgenerators.SoundPointsGenerator" xlink:title="Sound\nPoints\nGenerator" target="_top">
<path fill="black" stroke="black" stroke-width="2" d="M142,-118.5C142,-118.5 107,-118.5 107,-118.5 101,-118.5 95,-112.5 95,-106.5 95,-106.5 95,-89.5 95,-89.5 95,-83.5 101,-77.5 107,-77.5 107,-77.5 142,-77.5 142,-77.5 148,-77.5 154,-83.5 154,-89.5 154,-89.5 154,-106.5 154,-106.5 154,-112.5 148,-118.5 142,-118.5"/>
<text text-anchor="middle" x="124.5" y="-106.5" font-family="Arial" font-size="10.00" fill="white">Sound</text>
<text text-anchor="middle" x="124.5" y="-95.5" font-family="Arial" font-size="10.00" fill="white">Points</text>
<text text-anchor="middle" x="124.5" y="-84.5" font-family="Arial" font-size="10.00" fill="white">Generator</text>
</a>
</g>
</g>
</g>
</svg>
