<?xml version="1.0" encoding="UTF-8" standalone="no"?>
<!DOCTYPE svg PUBLIC "-//W3C//DTD SVG 1.1//EN"
 "http://www.w3.org/Graphics/SVG/1.1/DTD/svg11.dtd">
<!-- Generated by graphviz version 2.47.0 (20210316.0004)
 -->
<!-- Title: InheritanceGraph Pages: 1 -->
<svg width="618pt" height="680pt"
 viewBox="0.00 0.00 618.00 680.00" xmlns="http://www.w3.org/2000/svg" xmlns:xlink="http://www.w3.org/1999/xlink">
<g id="graph0" class="graph" transform="scale(1 1) rotate(0) translate(4 676)">
<title>InheritanceGraph</title>
<g id="clust1" class="cluster">
<title>cluster_pang.soundpointsgenerators</title>
<path fill="transparent" stroke="#bcd2ee" stroke-width="2" stroke-dasharray="5,2" d="M204.5,-455C204.5,-455 590,-455 590,-455 596,-455 602,-461 602,-467 602,-467 602,-652 602,-652 602,-658 596,-664 590,-664 590,-664 204.5,-664 204.5,-664 198.5,-664 192.5,-658 192.5,-652 192.5,-652 192.5,-467 192.5,-467 192.5,-461 198.5,-455 204.5,-455"/>
<text text-anchor="middle" x="397.25" y="-652" font-family="Arial" font-size="10.00">pang.soundpointsgenerators</text>
</g>
<g id="clust2" class="cluster">
<title>cluster_builtins</title>
<path fill="transparent" stroke="#bcd2ee" stroke-width="2" stroke-dasharray="5,2" d="M20,-304C20,-304 55,-304 55,-304 61,-304 67,-310 67,-316 67,-316 67,-347 67,-347 67,-353 61,-359 55,-359 55,-359 20,-359 20,-359 14,-359 8,-353 8,-347 8,-347 8,-316 8,-316 8,-310 14,-304 20,-304"/>
<text text-anchor="middle" x="37.5" y="-347" font-family="Arial" font-size="10.00">builtins</text>
</g>
<g id="clust3" class="cluster">
<title>cluster_pang.cloud</title>
<path fill="transparent" stroke="#bcd2ee" stroke-width="2" stroke-dasharray="5,2" d="M110,-410C110,-410 150,-410 150,-410 156,-410 162,-416 162,-422 162,-422 162,-453 162,-453 162,-459 156,-465 150,-465 150,-465 110,-465 110,-465 104,-465 98,-459 98,-453 98,-453 98,-422 98,-422 98,-416 104,-410 110,-410"/>
<text text-anchor="middle" x="130" y="-453" font-family="Arial" font-size="10.00">pang.cloud</text>
</g>
<g id="clust4" class="cluster">
<title>cluster_pang.commands</title>
<path fill="transparent" stroke="#bcd2ee" stroke-width="2" stroke-dasharray="5,2" d="M203,-370C203,-370 377,-370 377,-370 383,-370 389,-376 389,-382 389,-382 389,-435 389,-435 389,-441 383,-447 377,-447 377,-447 203,-447 203,-447 197,-447 191,-441 191,-435 191,-435 191,-382 191,-382 191,-376 197,-370 203,-370"/>
<text text-anchor="middle" x="290" y="-435" font-family="Arial" font-size="10.00">pang.commands</text>
</g>
<g id="clust5" class="cluster">
<title>cluster_pang.indicators</title>
<path fill="transparent" stroke="#bcd2ee" stroke-width="2" stroke-dasharray="5,2" d="M327,-307C327,-307 493,-307 493,-307 499,-307 505,-313 505,-319 505,-319 505,-350 505,-350 505,-356 499,-362 493,-362 493,-362 327,-362 327,-362 321,-362 315,-356 315,-350 315,-350 315,-319 315,-319 315,-313 321,-307 327,-307"/>
<text text-anchor="middle" x="410" y="-350" font-family="Arial" font-size="10.00">pang.indicators</text>
</g>
<g id="clust6" class="cluster">
<title>cluster_pang.noteserver</title>
<path fill="transparent" stroke="#bcd2ee" stroke-width="2" stroke-dasharray="5,2" d="M99.5,-269C99.5,-269 161.5,-269 161.5,-269 167.5,-269 173.5,-275 173.5,-281 173.5,-281 173.5,-322 173.5,-322 173.5,-328 167.5,-334 161.5,-334 161.5,-334 99.5,-334 99.5,-334 93.5,-334 87.5,-328 87.5,-322 87.5,-322 87.5,-281 87.5,-281 87.5,-275 93.5,-269 99.5,-269"/>
<text text-anchor="middle" x="130.5" y="-322" font-family="Arial" font-size="10.00">pang.noteserver</text>
</g>
<g id="clust7" class="cluster">
<title>cluster_pang.postprocessors</title>
<path fill="transparent" stroke="#bcd2ee" stroke-width="2" stroke-dasharray="5,2" d="M109,-164C109,-164 372,-164 372,-164 378,-164 384,-170 384,-176 384,-176 384,-249 384,-249 384,-255 378,-261 372,-261 372,-261 109,-261 109,-261 103,-261 97,-255 97,-249 97,-249 97,-176 97,-176 97,-170 103,-164 109,-164"/>
<text text-anchor="middle" x="240.5" y="-249" font-family="Arial" font-size="10.00">pang.postprocessors</text>
</g>
<g id="clust8" class="cluster">
<title>cluster_pang.scoping</title>
<path fill="transparent" stroke="#bcd2ee" stroke-width="2" stroke-dasharray="5,2" d="M205,-101C205,-101 255,-101 255,-101 261,-101 267,-107 267,-113 267,-113 267,-144 267,-144 267,-150 261,-156 255,-156 255,-156 205,-156 205,-156 199,-156 193,-150 193,-144 193,-144 193,-113 193,-113 193,-107 199,-101 205,-101"/>
<text text-anchor="middle" x="230" y="-144" font-family="Arial" font-size="10.00">pang.scoping</text>
</g>
<g id="clust9" class="cluster">
<title>cluster_pang.segmentmaker</title>
<path fill="transparent" stroke="#bcd2ee" stroke-width="2" stroke-dasharray="5,2" d="M310,-58C310,-58 391,-58 391,-58 397,-58 403,-64 403,-70 403,-70 403,-111 403,-111 403,-117 397,-123 391,-123 391,-123 310,-123 310,-123 304,-123 298,-117 298,-111 298,-111 298,-70 298,-70 298,-64 304,-58 310,-58"/>
<text text-anchor="middle" x="350.5" y="-111" font-family="Arial" font-size="10.00">pang.segmentmaker</text>
</g>
<g id="clust10" class="cluster">
<title>cluster_pang.sequences</title>
<path fill="transparent" stroke="#bcd2ee" stroke-width="2" stroke-dasharray="5,2" d="M98,-8C98,-8 162,-8 162,-8 168,-8 174,-14 174,-20 174,-20 174,-51 174,-51 174,-57 168,-63 162,-63 162,-63 98,-63 98,-63 92,-63 86,-57 86,-51 86,-51 86,-20 86,-20 86,-14 92,-8 98,-8"/>
<text text-anchor="middle" x="130" y="-51" font-family="Arial" font-size="10.00">pang.sequences</text>
</g>
<!-- pang.soundpointsgenerators.SoundPointsGenerator&#45;&gt;pang.soundpointsgenerators.AtaxicSoundPointsGenerator -->
<g id="edge1" class="edge">
<title>pang.soundpointsgenerators.SoundPointsGenerator&#45;&gt;pang.soundpointsgenerators.AtaxicSoundPointsGenerator</title>
<path fill="none" stroke="lightslategrey" d="M259.56,-505.67C274.82,-502.83 293.8,-499.29 310.35,-496.21"/>
<polygon fill="lightslategrey" stroke="lightslategrey" points="311.1,-499.63 320.29,-494.35 309.82,-492.74 311.1,-499.63"/>
</g>
<!-- pang.soundpointsgenerators.SoundPointsGenerator&#45;&gt;pang.soundpointsgenerators.GRWSoundPointsGenerator -->
<g id="edge2" class="edge">
<title>pang.soundpointsgenerators.SoundPointsGenerator&#45;&gt;pang.soundpointsgenerators.GRWSoundPointsGenerator</title>
<path fill="none" stroke="lightslategrey" d="M259.52,-517.78C271.35,-520.27 285.26,-522.78 298,-524 344.45,-528.46 356.49,-527.79 403,-524 408.82,-523.53 414.93,-522.8 420.94,-521.95"/>
<polygon fill="lightslategrey" stroke="lightslategrey" points="421.52,-525.4 430.88,-520.43 420.46,-518.48 421.52,-525.4"/>
</g>
<!-- pang.soundpointsgenerators.SoundPointsGenerator&#45;&gt;pang.soundpointsgenerators.ManualSoundPointsGenerator -->
<g id="edge3" class="edge">
<title>pang.soundpointsgenerators.SoundPointsGenerator&#45;&gt;pang.soundpointsgenerators.ManualSoundPointsGenerator</title>
<path fill="none" stroke="lightslategrey" d="M259.76,-520.33C271.51,-523.83 285.3,-527.55 298,-530 377.71,-545.38 472.84,-550.95 524.83,-552.93"/>
<polygon fill="lightslategrey" stroke="lightslategrey" points="524.83,-556.44 534.95,-553.3 525.08,-549.44 524.83,-556.44"/>
</g>
<!-- pang.soundpointsgenerators.SoundPointsGenerator&#45;&gt;pang.soundpointsgenerators.RandomWalkSoundPointsGenerator -->
<g id="edge4" class="edge">
<title>pang.soundpointsgenerators.SoundPointsGenerator&#45;&gt;pang.soundpointsgenerators.RandomWalkSoundPointsGenerator</title>
<path fill="none" stroke="lightslategrey" d="M256.9,-531.63C273.13,-544.56 294.32,-561.44 312.27,-575.74"/>
<polygon fill="lightslategrey" stroke="lightslategrey" points="310.27,-578.62 320.27,-582.11 314.63,-573.14 310.27,-578.62"/>
</g>
<!-- builtins.object&#45;&gt;pang.soundpointsgenerators.SoundPoint -->
<g id="edge17" class="edge">
<title>builtins.object&#45;&gt;pang.soundpointsgenerators.SoundPoint</title>
<path fill="none" stroke="lightslategrey" d="M38.31,-331.86C38.28,-361.23 42.05,-449.32 86,-501 114.86,-534.94 165.32,-551.64 197.93,-559.28"/>
<polygon fill="lightslategrey" stroke="lightslategrey" points="197.32,-562.73 207.84,-561.45 198.82,-555.89 197.32,-562.73"/>
</g>
<!-- builtins.object&#45;&gt;pang.soundpointsgenerators.SoundPointsGenerator -->
<g id="edge18" class="edge">
<title>builtins.object&#45;&gt;pang.soundpointsgenerators.SoundPointsGenerator</title>
<path fill="none" stroke="lightslategrey" d="M38.68,-331.84C39.71,-358.06 46.22,-430.27 86,-469 113.82,-496.08 158.15,-505.84 190.08,-509.29"/>
<polygon fill="lightslategrey" stroke="lightslategrey" points="190.12,-512.81 200.39,-510.23 190.75,-505.84 190.12,-512.81"/>
</g>
<!-- builtins.object&#45;&gt;pang.cloud.Cloud -->
<g id="edge9" class="edge">
<title>builtins.object&#45;&gt;pang.cloud.Cloud</title>
<path fill="none" stroke="lightslategrey" d="M42.11,-331.69C48.67,-348.25 63.96,-382.3 86,-404 90.04,-407.97 94.86,-411.5 99.8,-414.54"/>
<polygon fill="lightslategrey" stroke="lightslategrey" points="98.23,-417.67 108.66,-419.48 101.64,-411.55 98.23,-417.67"/>
</g>
<!-- builtins.object&#45;&gt;pang.commands.Command -->
<g id="edge10" class="edge">
<title>builtins.object&#45;&gt;pang.commands.Command</title>
<path fill="none" stroke="lightslategrey" d="M46.13,-331.73C54.69,-341.94 69.57,-357.65 86,-366 118.28,-382.41 159.16,-389.22 188.94,-392.04"/>
<polygon fill="lightslategrey" stroke="lightslategrey" points="188.72,-395.53 198.98,-392.88 189.3,-388.56 188.72,-395.53"/>
</g>
<!-- builtins.object&#45;&gt;pang.indicators.Indicator -->
<g id="edge11" class="edge">
<title>builtins.object&#45;&gt;pang.indicators.Indicator</title>
<path fill="none" stroke="lightslategrey" d="M59.41,-330.68C67.56,-333.62 77.07,-336.54 86,-338 166.19,-351.14 261.82,-339.77 312.78,-331.58"/>
<polygon fill="lightslategrey" stroke="lightslategrey" points="313.37,-335.04 322.66,-329.95 312.23,-328.13 313.37,-335.04"/>
</g>
<!-- builtins.object&#45;&gt;pang.noteserver.NoteServer -->
<g id="edge12" class="edge">
<title>builtins.object&#45;&gt;pang.noteserver.NoteServer</title>
<path fill="none" stroke="lightslategrey" d="M59.04,-315.19C70.39,-311.43 84.75,-306.67 97.49,-302.44"/>
<polygon fill="lightslategrey" stroke="lightslategrey" points="98.89,-305.67 107.28,-299.2 96.69,-299.02 98.89,-305.67"/>
</g>
<!-- builtins.object&#45;&gt;pang.postprocessors.OttavaHandler -->
<g id="edge13" class="edge">
<title>builtins.object&#45;&gt;pang.postprocessors.OttavaHandler</title>
<path fill="none" stroke="lightslategrey" d="M46.4,-312.18C55.7,-300.7 71.68,-281.22 86,-265 92.8,-257.3 100.4,-249.05 107.31,-241.69"/>
<polygon fill="lightslategrey" stroke="lightslategrey" points="110.12,-243.81 114.45,-234.13 105.03,-239 110.12,-243.81"/>
</g>
<!-- builtins.object&#45;&gt;pang.scoping.Scope -->
<g id="edge14" class="edge">
<title>builtins.object&#45;&gt;pang.scoping.Scope</title>
<path fill="none" stroke="lightslategrey" d="M38.32,-312.39C38.35,-284.61 42.35,-203.39 86,-160 115.79,-130.39 165.43,-121.86 197.69,-119.57"/>
<polygon fill="lightslategrey" stroke="lightslategrey" points="198.11,-123.05 207.91,-119.01 197.73,-116.06 198.11,-123.05"/>
</g>
<!-- builtins.object&#45;&gt;pang.segmentmaker.SegmentMaker -->
<g id="edge15" class="edge">
<title>builtins.object&#45;&gt;pang.segmentmaker.SegmentMaker</title>
<path fill="none" stroke="lightslategrey" d="M39.37,-312.44C42.91,-275.9 57.34,-145.77 86,-118 146.63,-59.24 255.07,-65.61 311.92,-74"/>
<polygon fill="lightslategrey" stroke="lightslategrey" points="311.48,-77.47 321.91,-75.57 312.57,-70.56 311.48,-77.47"/>
</g>
<!-- builtins.object&#45;&gt;pang.sequences.Sequence -->
<g id="edge16" class="edge">
<title>builtins.object&#45;&gt;pang.sequences.Sequence</title>
<path fill="none" stroke="lightslategrey" d="M38.23,-312.03C37.68,-276.4 39.44,-152.91 86,-67 91.05,-57.68 98.98,-49.23 106.66,-42.46"/>
<polygon fill="lightslategrey" stroke="lightslategrey" points="109.25,-44.86 114.75,-35.81 104.81,-39.45 109.25,-44.86"/>
</g>
<!-- pang.commands.Command&#45;&gt;pang.commands.QuantizeSequenceCommand -->
<g id="edge5" class="edge">
<title>pang.commands.Command&#45;&gt;pang.commands.QuantizeSequenceCommand</title>
<path fill="none" stroke="lightslategrey" d="M261.08,-395.27C275.51,-395.89 292.99,-396.63 308.56,-397.29"/>
<polygon fill="lightslategrey" stroke="lightslategrey" points="308.83,-400.8 318.97,-397.73 309.13,-393.81 308.83,-400.8"/>
</g>
<!-- pang.indicators.Indicator&#45;&gt;pang.indicators.Harmonics -->
<g id="edge6" class="edge">
<title>pang.indicators.Indicator&#45;&gt;pang.indicators.Harmonics</title>
<path fill="none" stroke="lightslategrey" d="M377.21,-325C390.66,-325 407.37,-325 422.53,-325"/>
<polygon fill="lightslategrey" stroke="lightslategrey" points="422.71,-328.5 432.71,-325 422.71,-321.5 422.71,-328.5"/>
</g>
<!-- pang.postprocessors.OttavaHandler&#45;&gt;pang.postprocessors.ManualOttavaHandler -->
<g id="edge7" class="edge">
<title>pang.postprocessors.OttavaHandler&#45;&gt;pang.postprocessors.ManualOttavaHandler</title>
<path fill="none" stroke="lightslategrey" d="M155.22,-212.57C167.12,-209.42 181.66,-205.56 194.68,-202.11"/>
<polygon fill="lightslategrey" stroke="lightslategrey" points="195.95,-205.39 204.71,-199.44 194.15,-198.62 195.95,-205.39"/>
</g>
<!-- pang.postprocessors.OttavaHandler&#45;&gt;pang.postprocessors.VerboseOttavaHandler -->
<g id="edge8" class="edge">
<title>pang.postprocessors.OttavaHandler&#45;&gt;pang.postprocessors.VerboseOttavaHandler</title>
<path fill="none" stroke="lightslategrey" d="M155.21,-220.98C166.14,-221.78 179.21,-222.61 191,-223 224.76,-224.12 233.28,-225.05 267,-223 282.44,-222.06 299.42,-220.14 313.9,-218.23"/>
<polygon fill="lightslategrey" stroke="lightslategrey" points="314.52,-221.68 323.95,-216.85 313.57,-214.74 314.52,-221.68"/>
</g>
<!-- pang.soundpointsgenerators.AtaxicSoundPointsGenerator -->
<g id="node1" class="node">
<title>pang.soundpointsgenerators.AtaxicSoundPointsGenerator</title>
<g id="a_node1"><a xlink:href="../api/pang/soundpointsgenerators.html#pang.soundpointsgenerators.AtaxicSoundPointsGenerator" xlink:title="Ataxic\nSound\nPoints\nGenerator" target="_top">
<path fill="#fbb4ae" stroke="#fbb4ae" stroke-width="2" d="M367.5,-515C367.5,-515 332.5,-515 332.5,-515 326.5,-515 320.5,-509 320.5,-503 320.5,-503 320.5,-475 320.5,-475 320.5,-469 326.5,-463 332.5,-463 332.5,-463 367.5,-463 367.5,-463 373.5,-463 379.5,-469 379.5,-475 379.5,-475 379.5,-503 379.5,-503 379.5,-509 373.5,-515 367.5,-515"/>
<text text-anchor="middle" x="350" y="-503" font-family="Arial" font-size="10.00">Ataxic</text>
<text text-anchor="middle" x="350" y="-492" font-family="Arial" font-size="10.00">Sound</text>
<text text-anchor="middle" x="350" y="-481" font-family="Arial" font-size="10.00">Points</text>
<text text-anchor="middle" x="350" y="-470" font-family="Arial" font-size="10.00">Generator</text>
</a>
</g>
</g>
<!-- pang.soundpointsgenerators.GRWSoundPointsGenerator -->
<g id="node2" class="node">
<title>pang.soundpointsgenerators.GRWSoundPointsGenerator</title>
<g id="a_node2"><a xlink:href="../api/pang/soundpointsgenerators.html#pang.soundpointsgenerators.GRWSoundPointsGenerator" xlink:title="GRWSound\nPoints\nGenerator" target="_top">
<path fill="#fbb4ae" stroke="#fbb4ae" stroke-width="2" d="M487,-534.5C487,-534.5 443,-534.5 443,-534.5 437,-534.5 431,-528.5 431,-522.5 431,-522.5 431,-505.5 431,-505.5 431,-499.5 437,-493.5 443,-493.5 443,-493.5 487,-493.5 487,-493.5 493,-493.5 499,-499.5 499,-505.5 499,-505.5 499,-522.5 499,-522.5 499,-528.5 493,-534.5 487,-534.5"/>
<text text-anchor="middle" x="465" y="-522.5" font-family="Arial" font-size="10.00">GRWSound</text>
<text text-anchor="middle" x="465" y="-511.5" font-family="Arial" font-size="10.00">Points</text>
<text text-anchor="middle" x="465" y="-500.5" font-family="Arial" font-size="10.00">Generator</text>
</a>
</g>
</g>
<!-- pang.soundpointsgenerators.ManualSoundPointsGenerator -->
<g id="node3" class="node">
<title>pang.soundpointsgenerators.ManualSoundPointsGenerator</title>
<g id="a_node3"><a xlink:href="../api/pang/soundpointsgenerators.html#pang.soundpointsgenerators.ManualSoundPointsGenerator" xlink:title="Manual\nSound\nPoints\nGenerator" target="_top">
<path fill="#fbb4ae" stroke="#fbb4ae" stroke-width="2" d="M582,-580C582,-580 547,-580 547,-580 541,-580 535,-574 535,-568 535,-568 535,-540 535,-540 535,-534 541,-528 547,-528 547,-528 582,-528 582,-528 588,-528 594,-534 594,-540 594,-540 594,-568 594,-568 594,-574 588,-580 582,-580"/>
<text text-anchor="middle" x="564.5" y="-568" font-family="Arial" font-size="10.00">Manual</text>
<text text-anchor="middle" x="564.5" y="-557" font-family="Arial" font-size="10.00">Sound</text>
<text text-anchor="middle" x="564.5" y="-546" font-family="Arial" font-size="10.00">Points</text>
<text text-anchor="middle" x="564.5" y="-535" font-family="Arial" font-size="10.00">Generator</text>
</a>
</g>
</g>
<!-- pang.soundpointsgenerators.RandomWalkSoundPointsGenerator -->
<g id="node4" class="node">
<title>pang.soundpointsgenerators.RandomWalkSoundPointsGenerator</title>
<g id="a_node4"><a xlink:href="../api/pang/soundpointsgenerators.html#pang.soundpointsgenerators.RandomWalkSoundPointsGenerator" xlink:title="Random\nWalk\nSound\nPoints\nGenerator" target="_top">
<path fill="#fbb4ae" stroke="#fbb4ae" stroke-width="2" d="M367.5,-636.5C367.5,-636.5 332.5,-636.5 332.5,-636.5 326.5,-636.5 320.5,-630.5 320.5,-624.5 320.5,-624.5 320.5,-585.5 320.5,-585.5 320.5,-579.5 326.5,-573.5 332.5,-573.5 332.5,-573.5 367.5,-573.5 367.5,-573.5 373.5,-573.5 379.5,-579.5 379.5,-585.5 379.5,-585.5 379.5,-624.5 379.5,-624.5 379.5,-630.5 373.5,-636.5 367.5,-636.5"/>
<text text-anchor="middle" x="350" y="-624.5" font-family="Arial" font-size="10.00">Random</text>
<text text-anchor="middle" x="350" y="-613.5" font-family="Arial" font-size="10.00">Walk</text>
<text text-anchor="middle" x="350" y="-602.5" font-family="Arial" font-size="10.00">Sound</text>
<text text-anchor="middle" x="350" y="-591.5" font-family="Arial" font-size="10.00">Points</text>
<text text-anchor="middle" x="350" y="-580.5" font-family="Arial" font-size="10.00">Generator</text>
</a>
</g>
</g>
<!-- pang.soundpointsgenerators.SoundPoint -->
<g id="node5" class="node">
<title>pang.soundpointsgenerators.SoundPoint</title>
<g id="a_node5"><a xlink:href="../api/pang/soundpointsgenerators.html#pang.soundpointsgenerators.SoundPoint" xlink:title="Sound\nPoint" target="_top">
<path fill="#fbb4ae" stroke="#fbb4ae" stroke-width="2" d="M242,-580C242,-580 218,-580 218,-580 213,-580 208,-575 208,-570 208,-570 208,-560 208,-560 208,-555 213,-550 218,-550 218,-550 242,-550 242,-550 247,-550 252,-555 252,-560 252,-560 252,-570 252,-570 252,-575 247,-580 242,-580"/>
<text text-anchor="middle" x="230" y="-568" font-family="Arial" font-size="10.00">Sound</text>
<text text-anchor="middle" x="230" y="-557" font-family="Arial" font-size="10.00">Point</text>
</a>
</g>
</g>
<!-- pang.soundpointsgenerators.SoundPointsGenerator -->
<g id="node6" class="node">
<title>pang.soundpointsgenerators.SoundPointsGenerator</title>
<g id="a_node6"><a xlink:href="../api/pang/soundpointsgenerators.html#pang.soundpointsgenerators.SoundPointsGenerator" xlink:title="Sound\nPoints\nGenerator" target="_top">
<path fill="#fbb4ae" stroke="#fbb4ae" stroke-width="2" d="M247.5,-531.5C247.5,-531.5 212.5,-531.5 212.5,-531.5 206.5,-531.5 200.5,-525.5 200.5,-519.5 200.5,-519.5 200.5,-502.5 200.5,-502.5 200.5,-496.5 206.5,-490.5 212.5,-490.5 212.5,-490.5 247.5,-490.5 247.5,-490.5 253.5,-490.5 259.5,-496.5 259.5,-502.5 259.5,-502.5 259.5,-519.5 259.5,-519.5 259.5,-525.5 253.5,-531.5 247.5,-531.5"/>
<text text-anchor="middle" x="230" y="-519.5" font-family="Arial" font-size="10.00">Sound</text>
<text text-anchor="middle" x="230" y="-508.5" font-family="Arial" font-size="10.00">Points</text>
<text text-anchor="middle" x="230" y="-497.5" font-family="Arial" font-size="10.00">Generator</text>
</a>
</g>
</g>
<!-- builtins.object -->
<g id="node7" class="node">
<title>builtins.object</title>
<g id="a_node7"><a xlink:href="https://docs.python.org/3.9/library/functions.html#object" xlink:title="object" target="_top">
<path fill="#fbb4ae" stroke="#fbb4ae" stroke-width="2" d="M52.67,-331.5C52.67,-331.5 22.33,-331.5 22.33,-331.5 19.17,-331.5 16,-328.33 16,-325.17 16,-325.17 16,-318.83 16,-318.83 16,-315.67 19.17,-312.5 22.33,-312.5 22.33,-312.5 52.67,-312.5 52.67,-312.5 55.83,-312.5 59,-315.67 59,-318.83 59,-318.83 59,-325.17 59,-325.17 59,-328.33 55.83,-331.5 52.67,-331.5"/>
<text text-anchor="middle" x="37.5" y="-319.5" font-family="Arial" font-size="10.00">object</text>
</a>
</g>
</g>
<!-- pang.cloud.Cloud -->
<g id="node8" class="node">
<title>pang.cloud.Cloud</title>
<g id="a_node8"><a xlink:href="../api/pang/cloud.html#pang.cloud.Cloud" xlink:title="Cloud" target="_top">
<path fill="#b3cde3" stroke="#b3cde3" stroke-width="2" d="M144.67,-437.5C144.67,-437.5 115.33,-437.5 115.33,-437.5 112.17,-437.5 109,-434.33 109,-431.17 109,-431.17 109,-424.83 109,-424.83 109,-421.67 112.17,-418.5 115.33,-418.5 115.33,-418.5 144.67,-418.5 144.67,-418.5 147.83,-418.5 151,-421.67 151,-424.83 151,-424.83 151,-431.17 151,-431.17 151,-434.33 147.83,-437.5 144.67,-437.5"/>
<text text-anchor="middle" x="130" y="-425.5" font-family="Arial" font-size="10.00">Cloud</text>
</a>
</g>
</g>
<!-- pang.commands.Command -->
<g id="node9" class="node">
<title>pang.commands.Command</title>
<g id="a_node9"><a xlink:href="../api/pang/commands.html#pang.commands.Command" xlink:title="Command" target="_top">
<path fill="#ccebc5" stroke="#ccebc5" stroke-width="2" d="M254.67,-403.5C254.67,-403.5 205.33,-403.5 205.33,-403.5 202.17,-403.5 199,-400.33 199,-397.17 199,-397.17 199,-390.83 199,-390.83 199,-387.67 202.17,-384.5 205.33,-384.5 205.33,-384.5 254.67,-384.5 254.67,-384.5 257.83,-384.5 261,-387.67 261,-390.83 261,-390.83 261,-397.17 261,-397.17 261,-400.33 257.83,-403.5 254.67,-403.5"/>
<text text-anchor="middle" x="230" y="-391.5" font-family="Arial" font-size="10.00">Command</text>
</a>
</g>
</g>
<!-- pang.commands.QuantizeSequenceCommand -->
<g id="node10" class="node">
<title>pang.commands.QuantizeSequenceCommand</title>
<g id="a_node10"><a xlink:href="../api/pang/commands.html#pang.commands.QuantizeSequenceCommand" xlink:title="Quantize\nSequence\nCommand" target="_top">
<path fill="#ccebc5" stroke="#ccebc5" stroke-width="2" d="M369,-419.5C369,-419.5 331,-419.5 331,-419.5 325,-419.5 319,-413.5 319,-407.5 319,-407.5 319,-390.5 319,-390.5 319,-384.5 325,-378.5 331,-378.5 331,-378.5 369,-378.5 369,-378.5 375,-378.5 381,-384.5 381,-390.5 381,-390.5 381,-407.5 381,-407.5 381,-413.5 375,-419.5 369,-419.5"/>
<text text-anchor="middle" x="350" y="-407.5" font-family="Arial" font-size="10.00">Quantize</text>
<text text-anchor="middle" x="350" y="-396.5" font-family="Arial" font-size="10.00">Sequence</text>
<text text-anchor="middle" x="350" y="-385.5" font-family="Arial" font-size="10.00">Command</text>
</a>
</g>
</g>
<!-- pang.indicators.Harmonics -->
<g id="node11" class="node">
<title>pang.indicators.Harmonics</title>
<g id="a_node11"><a xlink:href="../api/pang/indicators.html#pang.indicators.Harmonics" xlink:title="Harmonics" target="_top">
<path fill="#decbe4" stroke="#decbe4" stroke-width="2" d="M490.67,-334.5C490.67,-334.5 439.33,-334.5 439.33,-334.5 436.17,-334.5 433,-331.33 433,-328.17 433,-328.17 433,-321.83 433,-321.83 433,-318.67 436.17,-315.5 439.33,-315.5 439.33,-315.5 490.67,-315.5 490.67,-315.5 493.83,-315.5 497,-318.67 497,-321.83 497,-321.83 497,-328.17 497,-328.17 497,-331.33 493.83,-334.5 490.67,-334.5"/>
<text text-anchor="middle" x="465" y="-322.5" font-family="Arial" font-size="10.00">Harmonics</text>
</a>
</g>
</g>
<!-- pang.indicators.Indicator -->
<g id="node12" class="node">
<title>pang.indicators.Indicator</title>
<g id="a_node12"><a xlink:href="../api/pang/indicators.html#pang.indicators.Indicator" xlink:title="Indicator" target="_top">
<path fill="#decbe4" stroke="#decbe4" stroke-width="2" d="M370.67,-334.5C370.67,-334.5 329.33,-334.5 329.33,-334.5 326.17,-334.5 323,-331.33 323,-328.17 323,-328.17 323,-321.83 323,-321.83 323,-318.67 326.17,-315.5 329.33,-315.5 329.33,-315.5 370.67,-315.5 370.67,-315.5 373.83,-315.5 377,-318.67 377,-321.83 377,-321.83 377,-328.17 377,-328.17 377,-331.33 373.83,-334.5 370.67,-334.5"/>
<text text-anchor="middle" x="350" y="-322.5" font-family="Arial" font-size="10.00">Indicator</text>
</a>
</g>
</g>
<!-- pang.noteserver.NoteServer -->
<g id="node13" class="node">
<title>pang.noteserver.NoteServer</title>
<g id="a_node13"><a xlink:href="../api/pang/noteserver.html#pang.noteserver.NoteServer" xlink:title="Note\nServer" target="_top">
<path fill="#fed9a6" stroke="#fed9a6" stroke-width="2" d="M142.5,-307C142.5,-307 117.5,-307 117.5,-307 112.5,-307 107.5,-302 107.5,-297 107.5,-297 107.5,-287 107.5,-287 107.5,-282 112.5,-277 117.5,-277 117.5,-277 142.5,-277 142.5,-277 147.5,-277 152.5,-282 152.5,-287 152.5,-287 152.5,-297 152.5,-297 152.5,-302 147.5,-307 142.5,-307"/>
<text text-anchor="middle" x="130" y="-295" font-family="Arial" font-size="10.00">Note</text>
<text text-anchor="middle" x="130" y="-284" font-family="Arial" font-size="10.00">Server</text>
</a>
</g>
</g>
<!-- pang.postprocessors.ManualOttavaHandler -->
<g id="node14" class="node">
<title>pang.postprocessors.ManualOttavaHandler</title>
<g id="a_node14"><a xlink:href="../api/pang/postprocessors.html#pang.postprocessors.ManualOttavaHandler" xlink:title="Manual\nOttava\nHandler" target="_top">
<path fill="#ffffcc" stroke="#ffffcc" stroke-width="2" d="M243,-213.5C243,-213.5 217,-213.5 217,-213.5 211,-213.5 205,-207.5 205,-201.5 205,-201.5 205,-184.5 205,-184.5 205,-178.5 211,-172.5 217,-172.5 217,-172.5 243,-172.5 243,-172.5 249,-172.5 255,-178.5 255,-184.5 255,-184.5 255,-201.5 255,-201.5 255,-207.5 249,-213.5 243,-213.5"/>
<text text-anchor="middle" x="230" y="-201.5" font-family="Arial" font-size="10.00">Manual</text>
<text text-anchor="middle" x="230" y="-190.5" font-family="Arial" font-size="10.00">Ottava</text>
<text text-anchor="middle" x="230" y="-179.5" font-family="Arial" font-size="10.00">Handler</text>
</a>
</g>
</g>
<!-- pang.postprocessors.OttavaHandler -->
<g id="node15" class="node">
<title>pang.postprocessors.OttavaHandler</title>
<g id="a_node15"><a xlink:href="../api/pang/postprocessors.html#pang.postprocessors.OttavaHandler" xlink:title="Ottava\nHandler" target="_top">
<path fill="#ffffcc" stroke="#ffffcc" stroke-width="2" d="M145,-234C145,-234 115,-234 115,-234 110,-234 105,-229 105,-224 105,-224 105,-214 105,-214 105,-209 110,-204 115,-204 115,-204 145,-204 145,-204 150,-204 155,-209 155,-214 155,-214 155,-224 155,-224 155,-229 150,-234 145,-234"/>
<text text-anchor="middle" x="130" y="-222" font-family="Arial" font-size="10.00">Ottava</text>
<text text-anchor="middle" x="130" y="-211" font-family="Arial" font-size="10.00">Handler</text>
</a>
</g>
</g>
<!-- pang.postprocessors.VerboseOttavaHandler -->
<g id="node16" class="node">
<title>pang.postprocessors.VerboseOttavaHandler</title>
<g id="a_node16"><a xlink:href="../api/pang/postprocessors.html#pang.postprocessors.VerboseOttavaHandler" xlink:title="Verbose\nOttava\nHandler" target="_top">
<path fill="#ffffcc" stroke="#ffffcc" stroke-width="2" d="M364,-233.5C364,-233.5 336,-233.5 336,-233.5 330,-233.5 324,-227.5 324,-221.5 324,-221.5 324,-204.5 324,-204.5 324,-198.5 330,-192.5 336,-192.5 336,-192.5 364,-192.5 364,-192.5 370,-192.5 376,-198.5 376,-204.5 376,-204.5 376,-221.5 376,-221.5 376,-227.5 370,-233.5 364,-233.5"/>
<text text-anchor="middle" x="350" y="-221.5" font-family="Arial" font-size="10.00">Verbose</text>
<text text-anchor="middle" x="350" y="-210.5" font-family="Arial" font-size="10.00">Ottava</text>
<text text-anchor="middle" x="350" y="-199.5" font-family="Arial" font-size="10.00">Handler</text>
</a>
</g>
</g>
<!-- pang.scoping.Scope -->
<g id="node17" class="node">
<title>pang.scoping.Scope</title>
<g id="a_node17"><a xlink:href="../api/pang/scoping.html#pang.scoping.Scope" xlink:title="Scope" target="_top">
<path fill="#e5d8bd" stroke="#e5d8bd" stroke-width="2" d="M245.67,-128.5C245.67,-128.5 214.33,-128.5 214.33,-128.5 211.17,-128.5 208,-125.33 208,-122.17 208,-122.17 208,-115.83 208,-115.83 208,-112.67 211.17,-109.5 214.33,-109.5 214.33,-109.5 245.67,-109.5 245.67,-109.5 248.83,-109.5 252,-112.67 252,-115.83 252,-115.83 252,-122.17 252,-122.17 252,-125.33 248.83,-128.5 245.67,-128.5"/>
<text text-anchor="middle" x="230" y="-116.5" font-family="Arial" font-size="10.00">Scope</text>
</a>
</g>
</g>
<!-- pang.segmentmaker.SegmentMaker -->
<g id="node18" class="node">
<title>pang.segmentmaker.SegmentMaker</title>
<g id="a_node18"><a xlink:href="../api/pang/segmentmaker.html#pang.segmentmaker.SegmentMaker" xlink:title="Segment\nMaker" target="_top">
<path fill="#fddaec" stroke="#fddaec" stroke-width="2" d="M368,-96C368,-96 332,-96 332,-96 327,-96 322,-91 322,-86 322,-86 322,-76 322,-76 322,-71 327,-66 332,-66 332,-66 368,-66 368,-66 373,-66 378,-71 378,-76 378,-76 378,-86 378,-86 378,-91 373,-96 368,-96"/>
<text text-anchor="middle" x="350" y="-84" font-family="Arial" font-size="10.00">Segment</text>
<text text-anchor="middle" x="350" y="-73" font-family="Arial" font-size="10.00">Maker</text>
</a>
</g>
</g>
<!-- pang.sequences.Sequence -->
<g id="node19" class="node">
<title>pang.sequences.Sequence</title>
<g id="a_node19"><a xlink:href="../api/pang/sequences.html#pang.sequences.Sequence" xlink:title="Sequence" target="_top">
<path fill="#f2f2f2" stroke="#f2f2f2" stroke-width="2" d="M153.67,-35.5C153.67,-35.5 106.33,-35.5 106.33,-35.5 103.17,-35.5 100,-32.33 100,-29.17 100,-29.17 100,-22.83 100,-22.83 100,-19.67 103.17,-16.5 106.33,-16.5 106.33,-16.5 153.67,-16.5 153.67,-16.5 156.83,-16.5 160,-19.67 160,-22.83 160,-22.83 160,-29.17 160,-29.17 160,-32.33 156.83,-35.5 153.67,-35.5"/>
<text text-anchor="middle" x="130" y="-23.5" font-family="Arial" font-size="10.00">Sequence</text>
</a>
</g>
</g>
</g>
</svg>
