<?xml version="1.0" encoding="UTF-8" standalone="no"?>
<!DOCTYPE svg PUBLIC "-//W3C//DTD SVG 1.1//EN"
 "http://www.w3.org/Graphics/SVG/1.1/DTD/svg11.dtd">
<!-- Generated by graphviz version 2.46.1 (20210213.1702)
 -->
<!-- Title: InheritanceGraph Pages: 1 -->
<svg width="377pt" height="221pt"
 viewBox="0.00 0.00 377.00 221.00" xmlns="http://www.w3.org/2000/svg" xmlns:xlink="http://www.w3.org/1999/xlink">
<g id="graph0" class="graph" transform="scale(1 1) rotate(0) translate(4 217)">
<title>InheritanceGraph</title>
<g id="clust1" class="cluster">
<title>cluster_builtins</title>
<path fill="transparent" stroke="#bcd2ee" stroke-width="2" stroke-dasharray="5,2" d="M20,-91C20,-91 55,-91 55,-91 61,-91 67,-97 67,-103 67,-103 67,-134 67,-134 67,-140 61,-146 55,-146 55,-146 20,-146 20,-146 14,-146 8,-140 8,-134 8,-134 8,-103 8,-103 8,-97 14,-91 20,-91"/>
<text text-anchor="middle" x="37.5" y="-134" font-family="Arial" font-size="10.00">builtins</text>
</g>
<g id="clust2" class="cluster">
<title>cluster_pang.soundpointsgenerators</title>
<path fill="transparent" stroke="#bcd2ee" stroke-width="2" stroke-dasharray="5,2" d="M99,-8C99,-8 349,-8 349,-8 355,-8 361,-14 361,-20 361,-20 361,-193 361,-193 361,-199 355,-205 349,-205 349,-205 99,-205 99,-205 93,-205 87,-199 87,-193 87,-193 87,-20 87,-20 87,-14 93,-8 99,-8"/>
<text text-anchor="middle" x="224" y="-193" font-family="Arial" font-size="10.00">pang.soundpointsgenerators</text>
</g>
<!-- builtins.object&#45;&gt;pang.soundpointsgenerators.SoundPointsGenerator -->
<g id="edge5" class="edge">
<title>builtins.object&#45;&gt;pang.soundpointsgenerators.SoundPointsGenerator</title>
<path fill="none" stroke="lightslategrey" d="M59.08,-109C66.77,-109 75.79,-109 84.61,-109"/>
<polygon fill="lightslategrey" stroke="lightslategrey" points="84.76,-112.5 94.76,-109 84.76,-105.5 84.76,-112.5"/>
</g>
<!-- pang.soundpointsgenerators.SoundPointsGenerator&#45;&gt;pang.soundpointsgenerators.AtaxicSoundPointsGenerator -->
<g id="edge1" class="edge">
<title>pang.soundpointsgenerators.SoundPointsGenerator&#45;&gt;pang.soundpointsgenerators.AtaxicSoundPointsGenerator</title>
<path fill="none" stroke="lightslategrey" d="M154.16,-88.35C162.82,-82.11 172.46,-75.17 181.58,-68.6"/>
<polygon fill="lightslategrey" stroke="lightslategrey" points="183.7,-71.38 189.77,-62.7 179.61,-65.7 183.7,-71.38"/>
</g>
<!-- pang.soundpointsgenerators.SoundPointsGenerator&#45;&gt;pang.soundpointsgenerators.GRWSoundPointsGenerator -->
<g id="edge2" class="edge">
<title>pang.soundpointsgenerators.SoundPointsGenerator&#45;&gt;pang.soundpointsgenerators.GRWSoundPointsGenerator</title>
<path fill="none" stroke="lightslategrey" d="M154.05,-103.55C165.25,-101.45 178.22,-99.06 190,-97 218.14,-92.07 249.83,-86.87 274.64,-82.88"/>
<polygon fill="lightslategrey" stroke="lightslategrey" points="275.5,-86.29 284.82,-81.25 274.39,-79.37 275.5,-86.29"/>
</g>
<!-- pang.soundpointsgenerators.SoundPointsGenerator&#45;&gt;pang.soundpointsgenerators.ManualSoundPointsGenerator -->
<g id="edge3" class="edge">
<title>pang.soundpointsgenerators.SoundPointsGenerator&#45;&gt;pang.soundpointsgenerators.ManualSoundPointsGenerator</title>
<path fill="none" stroke="lightslategrey" d="M154.16,-116.09C162.29,-118.1 171.28,-120.32 179.9,-122.45"/>
<polygon fill="lightslategrey" stroke="lightslategrey" points="179.22,-125.89 189.77,-124.9 180.91,-119.1 179.22,-125.89"/>
</g>
<!-- pang.soundpointsgenerators.SoundPointsGenerator&#45;&gt;pang.soundpointsgenerators.RandomWalkSoundPointsGenerator -->
<g id="edge4" class="edge">
<title>pang.soundpointsgenerators.SoundPointsGenerator&#45;&gt;pang.soundpointsgenerators.RandomWalkSoundPointsGenerator</title>
<path fill="none" stroke="lightslategrey" d="M141.36,-129.57C153.12,-143.05 170.46,-159.5 190,-167 218.99,-178.12 253.89,-171.17 279.91,-162.39"/>
<polygon fill="lightslategrey" stroke="lightslategrey" points="281.2,-165.64 289.42,-158.97 278.83,-159.06 281.2,-165.64"/>
</g>
<!-- builtins.object -->
<g id="node1" class="node">
<title>builtins.object</title>
<g id="a_node1"><a xlink:href="https://docs.python.org/3.9/library/functions.html#object" xlink:title="object" target="_top">
<path fill="#fbb4ae" stroke="#fbb4ae" stroke-width="2" d="M52.67,-118.5C52.67,-118.5 22.33,-118.5 22.33,-118.5 19.17,-118.5 16,-115.33 16,-112.17 16,-112.17 16,-105.83 16,-105.83 16,-102.67 19.17,-99.5 22.33,-99.5 22.33,-99.5 52.67,-99.5 52.67,-99.5 55.83,-99.5 59,-102.67 59,-105.83 59,-105.83 59,-112.17 59,-112.17 59,-115.33 55.83,-118.5 52.67,-118.5"/>
<text text-anchor="middle" x="37.5" y="-106.5" font-family="Arial" font-size="10.00">object</text>
</a>
</g>
</g>
<!-- pang.soundpointsgenerators.AtaxicSoundPointsGenerator -->
<g id="node2" class="node">
<title>pang.soundpointsgenerators.AtaxicSoundPointsGenerator</title>
<g id="a_node2"><a xlink:href="../api/pang/soundpointsgenerators.html#pang.soundpointsgenerators.AtaxicSoundPointsGenerator" xlink:title="Ataxic\nSound\nPoints\nGenerator" target="_top">
<path fill="black" stroke="black" stroke-width="2" d="M237,-68C237,-68 202,-68 202,-68 196,-68 190,-62 190,-56 190,-56 190,-28 190,-28 190,-22 196,-16 202,-16 202,-16 237,-16 237,-16 243,-16 249,-22 249,-28 249,-28 249,-56 249,-56 249,-62 243,-68 237,-68"/>
<text text-anchor="middle" x="219.5" y="-56" font-family="Arial" font-size="10.00" fill="white">Ataxic</text>
<text text-anchor="middle" x="219.5" y="-45" font-family="Arial" font-size="10.00" fill="white">Sound</text>
<text text-anchor="middle" x="219.5" y="-34" font-family="Arial" font-size="10.00" fill="white">Points</text>
<text text-anchor="middle" x="219.5" y="-23" font-family="Arial" font-size="10.00" fill="white">Generator</text>
</a>
</g>
</g>
<!-- pang.soundpointsgenerators.GRWSoundPointsGenerator -->
<g id="node3" class="node">
<title>pang.soundpointsgenerators.GRWSoundPointsGenerator</title>
<g id="a_node3"><a xlink:href="../api/pang/soundpointsgenerators.html#pang.soundpointsgenerators.GRWSoundPointsGenerator" xlink:title="GRWSound\nPoints\nGenerator" target="_top">
<path fill="black" stroke="black" stroke-width="2" d="M341,-96.5C341,-96.5 297,-96.5 297,-96.5 291,-96.5 285,-90.5 285,-84.5 285,-84.5 285,-67.5 285,-67.5 285,-61.5 291,-55.5 297,-55.5 297,-55.5 341,-55.5 341,-55.5 347,-55.5 353,-61.5 353,-67.5 353,-67.5 353,-84.5 353,-84.5 353,-90.5 347,-96.5 341,-96.5"/>
<text text-anchor="middle" x="319" y="-84.5" font-family="Arial" font-size="10.00" fill="white">GRWSound</text>
<text text-anchor="middle" x="319" y="-73.5" font-family="Arial" font-size="10.00" fill="white">Points</text>
<text text-anchor="middle" x="319" y="-62.5" font-family="Arial" font-size="10.00" fill="white">Generator</text>
</a>
</g>
</g>
<!-- pang.soundpointsgenerators.ManualSoundPointsGenerator -->
<g id="node4" class="node">
<title>pang.soundpointsgenerators.ManualSoundPointsGenerator</title>
<g id="a_node4"><a xlink:href="../api/pang/soundpointsgenerators.html#pang.soundpointsgenerators.ManualSoundPointsGenerator" xlink:title="Manual\nSound\nPoints\nGenerator" target="_top">
<path fill="black" stroke="black" stroke-width="2" d="M237,-158C237,-158 202,-158 202,-158 196,-158 190,-152 190,-146 190,-146 190,-118 190,-118 190,-112 196,-106 202,-106 202,-106 237,-106 237,-106 243,-106 249,-112 249,-118 249,-118 249,-146 249,-146 249,-152 243,-158 237,-158"/>
<text text-anchor="middle" x="219.5" y="-146" font-family="Arial" font-size="10.00" fill="white">Manual</text>
<text text-anchor="middle" x="219.5" y="-135" font-family="Arial" font-size="10.00" fill="white">Sound</text>
<text text-anchor="middle" x="219.5" y="-124" font-family="Arial" font-size="10.00" fill="white">Points</text>
<text text-anchor="middle" x="219.5" y="-113" font-family="Arial" font-size="10.00" fill="white">Generator</text>
</a>
</g>
</g>
<!-- pang.soundpointsgenerators.RandomWalkSoundPointsGenerator -->
<g id="node5" class="node">
<title>pang.soundpointsgenerators.RandomWalkSoundPointsGenerator</title>
<g id="a_node5"><a xlink:href="../api/pang/soundpointsgenerators.html#pang.soundpointsgenerators.RandomWalkSoundPointsGenerator" xlink:title="Random\nWalk\nSound\nPoints\nGenerator" target="_top">
<path fill="black" stroke="black" stroke-width="2" d="M336.5,-177.5C336.5,-177.5 301.5,-177.5 301.5,-177.5 295.5,-177.5 289.5,-171.5 289.5,-165.5 289.5,-165.5 289.5,-126.5 289.5,-126.5 289.5,-120.5 295.5,-114.5 301.5,-114.5 301.5,-114.5 336.5,-114.5 336.5,-114.5 342.5,-114.5 348.5,-120.5 348.5,-126.5 348.5,-126.5 348.5,-165.5 348.5,-165.5 348.5,-171.5 342.5,-177.5 336.5,-177.5"/>
<text text-anchor="middle" x="319" y="-165.5" font-family="Arial" font-size="10.00" fill="white">Random</text>
<text text-anchor="middle" x="319" y="-154.5" font-family="Arial" font-size="10.00" fill="white">Walk</text>
<text text-anchor="middle" x="319" y="-143.5" font-family="Arial" font-size="10.00" fill="white">Sound</text>
<text text-anchor="middle" x="319" y="-132.5" font-family="Arial" font-size="10.00" fill="white">Points</text>
<text text-anchor="middle" x="319" y="-121.5" font-family="Arial" font-size="10.00" fill="white">Generator</text>
</a>
</g>
</g>
<!-- pang.soundpointsgenerators.SoundPointsGenerator -->
<g id="node6" class="node">
<title>pang.soundpointsgenerators.SoundPointsGenerator</title>
<g id="a_node6"><a xlink:href="../api/pang/soundpointsgenerators.html#pang.soundpointsgenerators.SoundPointsGenerator" xlink:title="Sound\nPoints\nGenerator" target="_top">
<path fill="black" stroke="black" stroke-width="2" d="M142,-129.5C142,-129.5 107,-129.5 107,-129.5 101,-129.5 95,-123.5 95,-117.5 95,-117.5 95,-100.5 95,-100.5 95,-94.5 101,-88.5 107,-88.5 107,-88.5 142,-88.5 142,-88.5 148,-88.5 154,-94.5 154,-100.5 154,-100.5 154,-117.5 154,-117.5 154,-123.5 148,-129.5 142,-129.5"/>
<text text-anchor="middle" x="124.5" y="-117.5" font-family="Arial" font-size="10.00" fill="white">Sound</text>
<text text-anchor="middle" x="124.5" y="-106.5" font-family="Arial" font-size="10.00" fill="white">Points</text>
<text text-anchor="middle" x="124.5" y="-95.5" font-family="Arial" font-size="10.00" fill="white">Generator</text>
</a>
</g>
</g>
</g>
</svg>
