<?xml version="1.0" encoding="UTF-8" standalone="no"?>
<!DOCTYPE svg PUBLIC "-//W3C//DTD SVG 1.1//EN"
 "http://www.w3.org/Graphics/SVG/1.1/DTD/svg11.dtd">
<!-- Generated by graphviz version 2.47.0 (20210316.0004)
 -->
<!-- Title: InheritanceGraph Pages: 1 -->
<svg width="257pt" height="160pt"
 viewBox="0.00 0.00 257.00 160.00" xmlns="http://www.w3.org/2000/svg" xmlns:xlink="http://www.w3.org/1999/xlink">
<g id="graph0" class="graph" transform="scale(1 1) rotate(0) translate(4 156)">
<title>InheritanceGraph</title>
<g id="clust1" class="cluster">
<title>cluster_builtins</title>
<path fill="transparent" stroke="#bcd2ee" stroke-width="2" stroke-dasharray="5,2" d="M20,-48C20,-48 55,-48 55,-48 61,-48 67,-54 67,-60 67,-60 67,-91 67,-91 67,-97 61,-103 55,-103 55,-103 20,-103 20,-103 14,-103 8,-97 8,-91 8,-91 8,-60 8,-60 8,-54 14,-48 20,-48"/>
<text text-anchor="middle" x="37.5" y="-91" font-family="Arial" font-size="10.00">builtins</text>
</g>
<g id="clust2" class="cluster">
<title>cluster_pang.postprocessors</title>
<path fill="transparent" stroke="#bcd2ee" stroke-width="2" stroke-dasharray="5,2" d="M99,-8C99,-8 229,-8 229,-8 235,-8 241,-14 241,-20 241,-20 241,-132 241,-132 241,-138 235,-144 229,-144 229,-144 99,-144 99,-144 93,-144 87,-138 87,-132 87,-132 87,-20 87,-20 87,-14 93,-8 99,-8"/>
<text text-anchor="middle" x="164" y="-132" font-family="Arial" font-size="10.00">pang.postprocessors</text>
</g>
<!-- builtins.object&#45;&gt;pang.postprocessors.OttavaHandler -->
<g id="edge3" class="edge">
<title>builtins.object&#45;&gt;pang.postprocessors.OttavaHandler</title>
<path fill="none" stroke="lightslategrey" d="M59.23,-66C66.98,-66 76,-66 84.66,-66"/>
<polygon fill="lightslategrey" stroke="lightslategrey" points="84.91,-69.5 94.91,-66 84.91,-62.5 84.91,-69.5"/>
</g>
<!-- pang.postprocessors.OttavaHandler&#45;&gt;pang.postprocessors.ManualOttavaHandler -->
<g id="edge1" class="edge">
<title>pang.postprocessors.OttavaHandler&#45;&gt;pang.postprocessors.ManualOttavaHandler</title>
<path fill="none" stroke="lightslategrey" d="M145.13,-57.77C153.56,-54.89 163.19,-51.6 172.27,-48.51"/>
<polygon fill="lightslategrey" stroke="lightslategrey" points="173.48,-51.79 181.81,-45.25 171.21,-45.17 173.48,-51.79"/>
</g>
<!-- pang.postprocessors.OttavaHandler&#45;&gt;pang.postprocessors.VerboseOttavaHandler -->
<g id="edge2" class="edge">
<title>pang.postprocessors.OttavaHandler&#45;&gt;pang.postprocessors.VerboseOttavaHandler</title>
<path fill="none" stroke="lightslategrey" d="M145.13,-74.52C153.26,-77.39 162.5,-80.65 171.28,-83.75"/>
<polygon fill="lightslategrey" stroke="lightslategrey" points="170.33,-87.12 180.92,-87.15 172.66,-80.52 170.33,-87.12"/>
</g>
<!-- builtins.object -->
<g id="node1" class="node">
<title>builtins.object</title>
<g id="a_node1"><a xlink:href="https://docs.python.org/3.9/library/functions.html#object" xlink:title="object" target="_top">
<path fill="#fbb4ae" stroke="#fbb4ae" stroke-width="2" d="M52.67,-75.5C52.67,-75.5 22.33,-75.5 22.33,-75.5 19.17,-75.5 16,-72.33 16,-69.17 16,-69.17 16,-62.83 16,-62.83 16,-59.67 19.17,-56.5 22.33,-56.5 22.33,-56.5 52.67,-56.5 52.67,-56.5 55.83,-56.5 59,-59.67 59,-62.83 59,-62.83 59,-69.17 59,-69.17 59,-72.33 55.83,-75.5 52.67,-75.5"/>
<text text-anchor="middle" x="37.5" y="-63.5" font-family="Arial" font-size="10.00">object</text>
</a>
</g>
</g>
<!-- pang.postprocessors.ManualOttavaHandler -->
<g id="node2" class="node">
<title>pang.postprocessors.ManualOttavaHandler</title>
<g id="a_node2"><a xlink:href="../api/pang/postprocessors.html#pang.postprocessors.ManualOttavaHandler" xlink:title="Manual\nOttava\nHandler" target="_top">
<path fill="black" stroke="black" stroke-width="2" d="M220,-57.5C220,-57.5 194,-57.5 194,-57.5 188,-57.5 182,-51.5 182,-45.5 182,-45.5 182,-28.5 182,-28.5 182,-22.5 188,-16.5 194,-16.5 194,-16.5 220,-16.5 220,-16.5 226,-16.5 232,-22.5 232,-28.5 232,-28.5 232,-45.5 232,-45.5 232,-51.5 226,-57.5 220,-57.5"/>
<text text-anchor="middle" x="207" y="-45.5" font-family="Arial" font-size="10.00" fill="white">Manual</text>
<text text-anchor="middle" x="207" y="-34.5" font-family="Arial" font-size="10.00" fill="white">Ottava</text>
<text text-anchor="middle" x="207" y="-23.5" font-family="Arial" font-size="10.00" fill="white">Handler</text>
</a>
</g>
</g>
<!-- pang.postprocessors.OttavaHandler -->
<g id="node3" class="node">
<title>pang.postprocessors.OttavaHandler</title>
<g id="a_node3"><a xlink:href="../api/pang/postprocessors.html#pang.postprocessors.OttavaHandler" xlink:title="Ottava\nHandler" target="_top">
<path fill="black" stroke="black" stroke-width="2" d="M135,-81C135,-81 105,-81 105,-81 100,-81 95,-76 95,-71 95,-71 95,-61 95,-61 95,-56 100,-51 105,-51 105,-51 135,-51 135,-51 140,-51 145,-56 145,-61 145,-61 145,-71 145,-71 145,-76 140,-81 135,-81"/>
<text text-anchor="middle" x="120" y="-69" font-family="Arial" font-size="10.00" fill="white">Ottava</text>
<text text-anchor="middle" x="120" y="-58" font-family="Arial" font-size="10.00" fill="white">Handler</text>
</a>
</g>
</g>
<!-- pang.postprocessors.VerboseOttavaHandler -->
<g id="node4" class="node">
<title>pang.postprocessors.VerboseOttavaHandler</title>
<g id="a_node4"><a xlink:href="../api/pang/postprocessors.html#pang.postprocessors.VerboseOttavaHandler" xlink:title="Verbose\nOttava\nHandler" target="_top">
<path fill="black" stroke="black" stroke-width="2" d="M221,-116.5C221,-116.5 193,-116.5 193,-116.5 187,-116.5 181,-110.5 181,-104.5 181,-104.5 181,-87.5 181,-87.5 181,-81.5 187,-75.5 193,-75.5 193,-75.5 221,-75.5 221,-75.5 227,-75.5 233,-81.5 233,-87.5 233,-87.5 233,-104.5 233,-104.5 233,-110.5 227,-116.5 221,-116.5"/>
<text text-anchor="middle" x="207" y="-104.5" font-family="Arial" font-size="10.00" fill="white">Verbose</text>
<text text-anchor="middle" x="207" y="-93.5" font-family="Arial" font-size="10.00" fill="white">Ottava</text>
<text text-anchor="middle" x="207" y="-82.5" font-family="Arial" font-size="10.00" fill="white">Handler</text>
</a>
</g>
</g>
</g>
</svg>
