<?xml version="1.0" encoding="UTF-8" standalone="no"?>
<!DOCTYPE svg PUBLIC "-//W3C//DTD SVG 1.1//EN"
 "http://www.w3.org/Graphics/SVG/1.1/DTD/svg11.dtd">
<!-- Generated by graphviz version 2.47.0 (20210316.0004)
 -->
<!-- Title: InheritanceGraph Pages: 1 -->
<svg width="273pt" height="79pt"
 viewBox="0.00 0.00 273.00 79.00" xmlns="http://www.w3.org/2000/svg" xmlns:xlink="http://www.w3.org/1999/xlink">
<g id="graph0" class="graph" transform="scale(1 1) rotate(0) translate(4 75)">
<title>InheritanceGraph</title>
<g id="clust1" class="cluster">
<title>cluster_builtins</title>
<path fill="transparent" stroke="#bcd2ee" stroke-width="2" stroke-dasharray="5,2" d="M20,-8C20,-8 55,-8 55,-8 61,-8 67,-14 67,-20 67,-20 67,-51 67,-51 67,-57 61,-63 55,-63 55,-63 20,-63 20,-63 14,-63 8,-57 8,-51 8,-51 8,-20 8,-20 8,-14 14,-8 20,-8"/>
<text text-anchor="middle" x="37.5" y="-51" font-family="Arial" font-size="10.00">builtins</text>
</g>
<g id="clust2" class="cluster">
<title>cluster_pang.indicators</title>
<path fill="transparent" stroke="#bcd2ee" stroke-width="2" stroke-dasharray="5,2" d="M99,-8C99,-8 245,-8 245,-8 251,-8 257,-14 257,-20 257,-20 257,-51 257,-51 257,-57 251,-63 245,-63 245,-63 99,-63 99,-63 93,-63 87,-57 87,-51 87,-51 87,-20 87,-20 87,-14 93,-8 99,-8"/>
<text text-anchor="middle" x="172" y="-51" font-family="Arial" font-size="10.00">pang.indicators</text>
</g>
<!-- builtins.object&#45;&gt;pang.indicators.Indicator -->
<g id="edge2" class="edge">
<title>builtins.object&#45;&gt;pang.indicators.Indicator</title>
<path fill="none" stroke="lightslategrey" d="M59.32,-26C67.07,-26 76.11,-26 84.85,-26"/>
<polygon fill="lightslategrey" stroke="lightslategrey" points="84.86,-29.5 94.86,-26 84.86,-22.5 84.86,-29.5"/>
</g>
<!-- pang.indicators.Indicator&#45;&gt;pang.indicators.Harmonics -->
<g id="edge1" class="edge">
<title>pang.indicators.Indicator&#45;&gt;pang.indicators.Harmonics</title>
<path fill="none" stroke="lightslategrey" d="M149.4,-26C157.27,-26 166.08,-26 174.66,-26"/>
<polygon fill="lightslategrey" stroke="lightslategrey" points="174.92,-29.5 184.92,-26 174.92,-22.5 174.92,-29.5"/>
</g>
<!-- builtins.object -->
<g id="node1" class="node">
<title>builtins.object</title>
<g id="a_node1"><a xlink:href="https://docs.python.org/3.9/library/functions.html#object" xlink:title="object" target="_top">
<path fill="#fbb4ae" stroke="#fbb4ae" stroke-width="2" d="M52.67,-35.5C52.67,-35.5 22.33,-35.5 22.33,-35.5 19.17,-35.5 16,-32.33 16,-29.17 16,-29.17 16,-22.83 16,-22.83 16,-19.67 19.17,-16.5 22.33,-16.5 22.33,-16.5 52.67,-16.5 52.67,-16.5 55.83,-16.5 59,-19.67 59,-22.83 59,-22.83 59,-29.17 59,-29.17 59,-32.33 55.83,-35.5 52.67,-35.5"/>
<text text-anchor="middle" x="37.5" y="-23.5" font-family="Arial" font-size="10.00">object</text>
</a>
</g>
</g>
<!-- pang.indicators.Harmonics -->
<g id="node2" class="node">
<title>pang.indicators.Harmonics</title>
<g id="a_node2"><a xlink:href="../api/pang/indicators.html#pang.indicators.Harmonics" xlink:title="Harmonics" target="_top">
<path fill="black" stroke="black" stroke-width="2" d="M242.67,-35.5C242.67,-35.5 191.33,-35.5 191.33,-35.5 188.17,-35.5 185,-32.33 185,-29.17 185,-29.17 185,-22.83 185,-22.83 185,-19.67 188.17,-16.5 191.33,-16.5 191.33,-16.5 242.67,-16.5 242.67,-16.5 245.83,-16.5 249,-19.67 249,-22.83 249,-22.83 249,-29.17 249,-29.17 249,-32.33 245.83,-35.5 242.67,-35.5"/>
<text text-anchor="middle" x="217" y="-23.5" font-family="Arial" font-size="10.00" fill="white">Harmonics</text>
</a>
</g>
</g>
<!-- pang.indicators.Indicator -->
<g id="node3" class="node">
<title>pang.indicators.Indicator</title>
<g id="a_node3"><a xlink:href="../api/pang/indicators.html#pang.indicators.Indicator" xlink:title="Indicator" target="_top">
<path fill="black" stroke="black" stroke-width="2" d="M142.67,-35.5C142.67,-35.5 101.33,-35.5 101.33,-35.5 98.17,-35.5 95,-32.33 95,-29.17 95,-29.17 95,-22.83 95,-22.83 95,-19.67 98.17,-16.5 101.33,-16.5 101.33,-16.5 142.67,-16.5 142.67,-16.5 145.83,-16.5 149,-19.67 149,-22.83 149,-22.83 149,-29.17 149,-29.17 149,-32.33 145.83,-35.5 142.67,-35.5"/>
<text text-anchor="middle" x="122" y="-23.5" font-family="Arial" font-size="10.00" fill="white">Indicator</text>
</a>
</g>
</g>
</g>
</svg>
