<?xml version="1.0" encoding="UTF-8" standalone="no"?>
<!DOCTYPE svg PUBLIC "-//W3C//DTD SVG 1.1//EN"
 "http://www.w3.org/Graphics/SVG/1.1/DTD/svg11.dtd">
<!-- Generated by graphviz version 2.47.0 (20210316.0004)
 -->
<!-- Title: InheritanceGraph Pages: 1 -->
<svg width="170pt" height="79pt"
 viewBox="0.00 0.00 170.00 79.00" xmlns="http://www.w3.org/2000/svg" xmlns:xlink="http://www.w3.org/1999/xlink">
<g id="graph0" class="graph" transform="scale(1 1) rotate(0) translate(4 75)">
<title>InheritanceGraph</title>
<g id="clust1" class="cluster">
<title>cluster_builtins</title>
<path fill="transparent" stroke="#bcd2ee" stroke-width="2" stroke-dasharray="5,2" d="M20,-8C20,-8 55,-8 55,-8 61,-8 67,-14 67,-20 67,-20 67,-51 67,-51 67,-57 61,-63 55,-63 55,-63 20,-63 20,-63 14,-63 8,-57 8,-51 8,-51 8,-20 8,-20 8,-14 14,-8 20,-8"/>
<text text-anchor="middle" x="37.5" y="-51" font-family="Arial" font-size="10.00">builtins</text>
</g>
<g id="clust2" class="cluster">
<title>cluster_pang.scoping</title>
<path fill="transparent" stroke="#bcd2ee" stroke-width="2" stroke-dasharray="5,2" d="M99,-8C99,-8 149,-8 149,-8 155,-8 161,-14 161,-20 161,-20 161,-51 161,-51 161,-57 155,-63 149,-63 149,-63 99,-63 99,-63 93,-63 87,-57 87,-51 87,-51 87,-20 87,-20 87,-14 93,-8 99,-8"/>
<text text-anchor="middle" x="124" y="-51" font-family="Arial" font-size="10.00">pang.scoping</text>
</g>
<!-- builtins.object&#45;&gt;pang.scoping.Scope -->
<g id="edge1" class="edge">
<title>builtins.object&#45;&gt;pang.scoping.Scope</title>
<path fill="none" stroke="lightslategrey" d="M59.39,-26C69.06,-26 80.77,-26 91.49,-26"/>
<polygon fill="lightslategrey" stroke="lightslategrey" points="91.77,-29.5 101.77,-26 91.77,-22.5 91.77,-29.5"/>
</g>
<!-- builtins.object -->
<g id="node1" class="node">
<title>builtins.object</title>
<g id="a_node1"><a xlink:href="https://docs.python.org/3.9/library/functions.html#object" xlink:title="object" target="_top">
<path fill="#fbb4ae" stroke="#fbb4ae" stroke-width="2" d="M52.67,-35.5C52.67,-35.5 22.33,-35.5 22.33,-35.5 19.17,-35.5 16,-32.33 16,-29.17 16,-29.17 16,-22.83 16,-22.83 16,-19.67 19.17,-16.5 22.33,-16.5 22.33,-16.5 52.67,-16.5 52.67,-16.5 55.83,-16.5 59,-19.67 59,-22.83 59,-22.83 59,-29.17 59,-29.17 59,-32.33 55.83,-35.5 52.67,-35.5"/>
<text text-anchor="middle" x="37.5" y="-23.5" font-family="Arial" font-size="10.00">object</text>
</a>
</g>
</g>
<!-- pang.scoping.Scope -->
<g id="node2" class="node">
<title>pang.scoping.Scope</title>
<g id="a_node2"><a xlink:href="../api/pang/scoping.html#pang.scoping.Scope" xlink:title="Scope" target="_top">
<path fill="black" stroke="black" stroke-width="2" d="M139.67,-35.5C139.67,-35.5 108.33,-35.5 108.33,-35.5 105.17,-35.5 102,-32.33 102,-29.17 102,-29.17 102,-22.83 102,-22.83 102,-19.67 105.17,-16.5 108.33,-16.5 108.33,-16.5 139.67,-16.5 139.67,-16.5 142.83,-16.5 146,-19.67 146,-22.83 146,-22.83 146,-29.17 146,-29.17 146,-32.33 142.83,-35.5 139.67,-35.5"/>
<text text-anchor="middle" x="124" y="-23.5" font-family="Arial" font-size="10.00" fill="white">Scope</text>
</a>
</g>
</g>
</g>
</svg>
