<?xml version="1.0" encoding="UTF-8" standalone="no"?>
<!DOCTYPE svg PUBLIC "-//W3C//DTD SVG 1.1//EN"
 "http://www.w3.org/Graphics/SVG/1.1/DTD/svg11.dtd">
<!-- Generated by graphviz version 2.47.0 (20210316.0004)
 -->
<!-- Title: InheritanceGraph Pages: 1 -->
<svg width="351pt" height="127pt"
 viewBox="0.00 0.00 351.00 127.00" xmlns="http://www.w3.org/2000/svg" xmlns:xlink="http://www.w3.org/1999/xlink">
<g id="graph0" class="graph" transform="scale(1 1) rotate(0) translate(4 123)">
<title>InheritanceGraph</title>
<g id="clust1" class="cluster">
<title>cluster_builtins</title>
<path fill="transparent" stroke="#bcd2ee" stroke-width="2" stroke-dasharray="5,2" d="M20,-29C20,-29 55,-29 55,-29 61,-29 67,-35 67,-41 67,-41 67,-72 67,-72 67,-78 61,-84 55,-84 55,-84 20,-84 20,-84 14,-84 8,-78 8,-72 8,-72 8,-41 8,-41 8,-35 14,-29 20,-29"/>
<text text-anchor="middle" x="37.5" y="-72" font-family="Arial" font-size="10.00">builtins</text>
</g>
<g id="clust2" class="cluster">
<title>cluster_enum</title>
<path fill="transparent" stroke="#bcd2ee" stroke-width="2" stroke-dasharray="5,2" d="M99,-49C99,-49 133,-49 133,-49 139,-49 145,-55 145,-61 145,-61 145,-92 145,-92 145,-98 139,-104 133,-104 133,-104 99,-104 99,-104 93,-104 87,-98 87,-92 87,-92 87,-61 87,-61 87,-55 93,-49 99,-49"/>
<text text-anchor="middle" x="116" y="-92" font-family="Arial" font-size="10.00">enum</text>
</g>
<g id="clust3" class="cluster">
<title>cluster_pang.indicators</title>
<path fill="transparent" stroke="#bcd2ee" stroke-width="2" stroke-dasharray="5,2" d="M177,-8C177,-8 323,-8 323,-8 329,-8 335,-14 335,-20 335,-20 335,-99 335,-99 335,-105 329,-111 323,-111 323,-111 177,-111 177,-111 171,-111 165,-105 165,-99 165,-99 165,-20 165,-20 165,-14 171,-8 177,-8"/>
<text text-anchor="middle" x="250" y="-99" font-family="Arial" font-size="10.00">pang.indicators</text>
</g>
<!-- builtins.object&#45;&gt;enum.Enum -->
<g id="edge2" class="edge">
<title>builtins.object&#45;&gt;enum.Enum</title>
<path fill="none" stroke="lightslategrey" d="M59,-52.36C67.02,-54.46 76.37,-56.9 85.11,-59.19"/>
<polygon fill="lightslategrey" stroke="lightslategrey" points="84.41,-62.62 94.97,-61.76 86.18,-55.85 84.41,-62.62"/>
</g>
<!-- builtins.object&#45;&gt;pang.indicators.Indicator -->
<g id="edge3" class="edge">
<title>builtins.object&#45;&gt;pang.indicators.Indicator</title>
<path fill="none" stroke="lightslategrey" d="M59.15,-44.3C85.24,-40.88 130.59,-34.95 162.56,-30.77"/>
<polygon fill="lightslategrey" stroke="lightslategrey" points="163.38,-34.19 172.84,-29.42 162.47,-27.25 163.38,-34.19"/>
</g>
<!-- enum.Enum&#45;&gt;pang.indicators.IndicatorID -->
<g id="edge4" class="edge">
<title>enum.Enum&#45;&gt;pang.indicators.IndicatorID</title>
<path fill="none" stroke="lightslategrey" d="M137.27,-67.49C144.97,-67.68 154,-67.9 162.74,-68.12"/>
<polygon fill="lightslategrey" stroke="lightslategrey" points="162.69,-71.62 172.77,-68.36 162.86,-64.62 162.69,-71.62"/>
</g>
<!-- pang.indicators.Indicator&#45;&gt;pang.indicators.Harmonics -->
<g id="edge1" class="edge">
<title>pang.indicators.Indicator&#45;&gt;pang.indicators.Harmonics</title>
<path fill="none" stroke="lightslategrey" d="M227.4,-26C235.27,-26 244.08,-26 252.66,-26"/>
<polygon fill="lightslategrey" stroke="lightslategrey" points="252.92,-29.5 262.92,-26 252.92,-22.5 252.92,-29.5"/>
</g>
<!-- builtins.object -->
<g id="node1" class="node">
<title>builtins.object</title>
<g id="a_node1"><a xlink:href="https://docs.python.org/3.9/library/functions.html#object" xlink:title="object" target="_top">
<path fill="#fbb4ae" stroke="#fbb4ae" stroke-width="2" d="M52.67,-56.5C52.67,-56.5 22.33,-56.5 22.33,-56.5 19.17,-56.5 16,-53.33 16,-50.17 16,-50.17 16,-43.83 16,-43.83 16,-40.67 19.17,-37.5 22.33,-37.5 22.33,-37.5 52.67,-37.5 52.67,-37.5 55.83,-37.5 59,-40.67 59,-43.83 59,-43.83 59,-50.17 59,-50.17 59,-53.33 55.83,-56.5 52.67,-56.5"/>
<text text-anchor="middle" x="37.5" y="-44.5" font-family="Arial" font-size="10.00">object</text>
</a>
</g>
</g>
<!-- enum.Enum -->
<g id="node2" class="node">
<title>enum.Enum</title>
<g id="a_node2"><a xlink:href="https://docs.python.org/3.9/library/enum.html#enum.Enum" xlink:title="Enum" target="_top">
<path fill="#b3cde3" stroke="#b3cde3" stroke-width="2" d="M130.67,-76.5C130.67,-76.5 101.33,-76.5 101.33,-76.5 98.17,-76.5 95,-73.33 95,-70.17 95,-70.17 95,-63.83 95,-63.83 95,-60.67 98.17,-57.5 101.33,-57.5 101.33,-57.5 130.67,-57.5 130.67,-57.5 133.83,-57.5 137,-60.67 137,-63.83 137,-63.83 137,-70.17 137,-70.17 137,-73.33 133.83,-76.5 130.67,-76.5"/>
<text text-anchor="middle" x="116" y="-64.5" font-family="Arial" font-size="10.00">Enum</text>
</a>
</g>
</g>
<!-- pang.indicators.Harmonics -->
<g id="node3" class="node">
<title>pang.indicators.Harmonics</title>
<g id="a_node3"><a xlink:href="../api/pang/indicators.html#pang.indicators.Harmonics" xlink:title="Harmonics" target="_top">
<path fill="black" stroke="black" stroke-width="2" d="M320.67,-35.5C320.67,-35.5 269.33,-35.5 269.33,-35.5 266.17,-35.5 263,-32.33 263,-29.17 263,-29.17 263,-22.83 263,-22.83 263,-19.67 266.17,-16.5 269.33,-16.5 269.33,-16.5 320.67,-16.5 320.67,-16.5 323.83,-16.5 327,-19.67 327,-22.83 327,-22.83 327,-29.17 327,-29.17 327,-32.33 323.83,-35.5 320.67,-35.5"/>
<text text-anchor="middle" x="295" y="-23.5" font-family="Arial" font-size="10.00" fill="white">Harmonics</text>
</a>
</g>
</g>
<!-- pang.indicators.Indicator -->
<g id="node4" class="node">
<title>pang.indicators.Indicator</title>
<g id="a_node4"><a xlink:href="../api/pang/indicators.html#pang.indicators.Indicator" xlink:title="Indicator" target="_top">
<path fill="black" stroke="black" stroke-width="2" d="M220.67,-35.5C220.67,-35.5 179.33,-35.5 179.33,-35.5 176.17,-35.5 173,-32.33 173,-29.17 173,-29.17 173,-22.83 173,-22.83 173,-19.67 176.17,-16.5 179.33,-16.5 179.33,-16.5 220.67,-16.5 220.67,-16.5 223.83,-16.5 227,-19.67 227,-22.83 227,-22.83 227,-29.17 227,-29.17 227,-32.33 223.83,-35.5 220.67,-35.5"/>
<text text-anchor="middle" x="200" y="-23.5" font-family="Arial" font-size="10.00" fill="white">Indicator</text>
</a>
</g>
</g>
<!-- pang.indicators.IndicatorID -->
<g id="node5" class="node">
<title>pang.indicators.IndicatorID</title>
<g id="a_node5"><a xlink:href="../api/pang/indicators.html#pang.indicators.IndicatorID" xlink:title="Indicator\nID" target="_top">
<path fill="black" stroke="black" stroke-width="2" d="M217,-84C217,-84 183,-84 183,-84 178,-84 173,-79 173,-74 173,-74 173,-64 173,-64 173,-59 178,-54 183,-54 183,-54 217,-54 217,-54 222,-54 227,-59 227,-64 227,-64 227,-74 227,-74 227,-79 222,-84 217,-84"/>
<text text-anchor="middle" x="200" y="-72" font-family="Arial" font-size="10.00" fill="white">Indicator</text>
<text text-anchor="middle" x="200" y="-61" font-family="Arial" font-size="10.00" fill="white">ID</text>
</a>
</g>
</g>
</g>
</svg>
