<?xml version="1.0" encoding="UTF-8" standalone="no"?>
<!DOCTYPE svg PUBLIC "-//W3C//DTD SVG 1.1//EN"
 "http://www.w3.org/Graphics/SVG/1.1/DTD/svg11.dtd">
<!-- Generated by graphviz version 2.47.0 (20210316.0004)
 -->
<!-- Title: InheritanceGraph Pages: 1 -->
<svg width="711pt" height="659pt"
 viewBox="0.00 0.00 711.00 659.00" xmlns="http://www.w3.org/2000/svg" xmlns:xlink="http://www.w3.org/1999/xlink">
<g id="graph0" class="graph" transform="scale(1 1) rotate(0) translate(4 655)">
<title>InheritanceGraph</title>
<g id="clust1" class="cluster">
<title>cluster_builtins</title>
<path fill="transparent" stroke="#bcd2ee" stroke-width="2" stroke-dasharray="5,2" d="M20,-294C20,-294 55,-294 55,-294 61,-294 67,-300 67,-306 67,-306 67,-337 67,-337 67,-343 61,-349 55,-349 55,-349 20,-349 20,-349 14,-349 8,-343 8,-337 8,-337 8,-306 8,-306 8,-300 14,-294 20,-294"/>
<text text-anchor="middle" x="37.5" y="-337" font-family="Arial" font-size="10.00">builtins</text>
</g>
<g id="clust2" class="cluster">
<title>cluster_enum</title>
<path fill="transparent" stroke="#bcd2ee" stroke-width="2" stroke-dasharray="5,2" d="M122,-469C122,-469 156,-469 156,-469 162,-469 168,-475 168,-481 168,-481 168,-512 168,-512 168,-518 162,-524 156,-524 156,-524 122,-524 122,-524 116,-524 110,-518 110,-512 110,-512 110,-481 110,-481 110,-475 116,-469 122,-469"/>
<text text-anchor="middle" x="139" y="-512" font-family="Arial" font-size="10.00">enum</text>
</g>
<g id="clust3" class="cluster">
<title>cluster_pang.cloud</title>
<path fill="transparent" stroke="#bcd2ee" stroke-width="2" stroke-dasharray="5,2" d="M235,-372C235,-372 275,-372 275,-372 281,-372 287,-378 287,-384 287,-384 287,-415 287,-415 287,-421 281,-427 275,-427 275,-427 235,-427 235,-427 229,-427 223,-421 223,-415 223,-415 223,-384 223,-384 223,-378 229,-372 235,-372"/>
<text text-anchor="middle" x="255" y="-415" font-family="Arial" font-size="10.00">pang.cloud</text>
</g>
<g id="clust4" class="cluster">
<title>cluster_pang.commands</title>
<path fill="transparent" stroke="#bcd2ee" stroke-width="2" stroke-dasharray="5,2" d="M331,-323C331,-323 484,-323 484,-323 490,-323 496,-329 496,-335 496,-335 496,-388 496,-388 496,-394 490,-400 484,-400 484,-400 331,-400 331,-400 325,-400 319,-394 319,-388 319,-388 319,-335 319,-335 319,-329 325,-323 331,-323"/>
<text text-anchor="middle" x="407.5" y="-388" font-family="Arial" font-size="10.00">pang.commands</text>
</g>
<g id="clust5" class="cluster">
<title>cluster_pang.indicators</title>
<path fill="transparent" stroke="#bcd2ee" stroke-width="2" stroke-dasharray="5,2" d="M232,-435C232,-435 386,-435 386,-435 392,-435 398,-441 398,-447 398,-447 398,-526 398,-526 398,-532 392,-538 386,-538 386,-538 232,-538 232,-538 226,-538 220,-532 220,-526 220,-526 220,-447 220,-447 220,-441 226,-435 232,-435"/>
<text text-anchor="middle" x="309" y="-526" font-family="Arial" font-size="10.00">pang.indicators</text>
</g>
<g id="clust6" class="cluster">
<title>cluster_pang.noteserver</title>
<path fill="transparent" stroke="#bcd2ee" stroke-width="2" stroke-dasharray="5,2" d="M224.5,-269C224.5,-269 286.5,-269 286.5,-269 292.5,-269 298.5,-275 298.5,-281 298.5,-281 298.5,-322 298.5,-322 298.5,-328 292.5,-334 286.5,-334 286.5,-334 224.5,-334 224.5,-334 218.5,-334 212.5,-328 212.5,-322 212.5,-322 212.5,-281 212.5,-281 212.5,-275 218.5,-269 224.5,-269"/>
<text text-anchor="middle" x="255.5" y="-322" font-family="Arial" font-size="10.00">pang.noteserver</text>
</g>
<g id="clust7" class="cluster">
<title>cluster_pang.postprocessors</title>
<path fill="transparent" stroke="#bcd2ee" stroke-width="2" stroke-dasharray="5,2" d="M118,-546C118,-546 380,-546 380,-546 386,-546 392,-552 392,-558 392,-558 392,-631 392,-631 392,-637 386,-643 380,-643 380,-643 118,-643 118,-643 112,-643 106,-637 106,-631 106,-631 106,-558 106,-558 106,-552 112,-546 118,-546"/>
<text text-anchor="middle" x="249" y="-631" font-family="Arial" font-size="10.00">pang.postprocessors</text>
</g>
<g id="clust8" class="cluster">
<title>cluster_pang.scoping</title>
<path fill="transparent" stroke="#bcd2ee" stroke-width="2" stroke-dasharray="5,2" d="M333,-231C333,-231 383,-231 383,-231 389,-231 395,-237 395,-243 395,-243 395,-274 395,-274 395,-280 389,-286 383,-286 383,-286 333,-286 333,-286 327,-286 321,-280 321,-274 321,-274 321,-243 321,-243 321,-237 327,-231 333,-231"/>
<text text-anchor="middle" x="358" y="-274" font-family="Arial" font-size="10.00">pang.scoping</text>
</g>
<g id="clust9" class="cluster">
<title>cluster_pang.segmentmaker</title>
<path fill="transparent" stroke="#bcd2ee" stroke-width="2" stroke-dasharray="5,2" d="M99,-191C99,-191 180,-191 180,-191 186,-191 192,-197 192,-203 192,-203 192,-244 192,-244 192,-250 186,-256 180,-256 180,-256 99,-256 99,-256 93,-256 87,-250 87,-244 87,-244 87,-203 87,-203 87,-197 93,-191 99,-191"/>
<text text-anchor="middle" x="139.5" y="-244" font-family="Arial" font-size="10.00">pang.segmentmaker</text>
</g>
<g id="clust10" class="cluster">
<title>cluster_pang.sequences</title>
<path fill="transparent" stroke="#bcd2ee" stroke-width="2" stroke-dasharray="5,2" d="M223,-153C223,-153 287,-153 287,-153 293,-153 299,-159 299,-165 299,-165 299,-196 299,-196 299,-202 293,-208 287,-208 287,-208 223,-208 223,-208 217,-208 211,-202 211,-196 211,-196 211,-165 211,-165 211,-159 217,-153 223,-153"/>
<text text-anchor="middle" x="255" y="-196" font-family="Arial" font-size="10.00">pang.sequences</text>
</g>
<g id="clust11" class="cluster">
<title>cluster_pang.soundpointsgenerators</title>
<path fill="transparent" stroke="#bcd2ee" stroke-width="2" stroke-dasharray="5,2" d="M332.5,-8C332.5,-8 683,-8 683,-8 689,-8 695,-14 695,-20 695,-20 695,-205 695,-205 695,-211 689,-217 683,-217 683,-217 332.5,-217 332.5,-217 326.5,-217 320.5,-211 320.5,-205 320.5,-205 320.5,-20 320.5,-20 320.5,-14 326.5,-8 332.5,-8"/>
<text text-anchor="middle" x="507.75" y="-205" font-family="Arial" font-size="10.00">pang.soundpointsgenerators</text>
</g>
<!-- builtins.object&#45;&gt;enum.Enum -->
<g id="edge9" class="edge">
<title>builtins.object&#45;&gt;enum.Enum</title>
<path fill="none" stroke="lightslategrey" d="M39.6,-321.65C42.81,-346.17 54.14,-411.9 87,-454 92.89,-461.55 101.02,-467.9 109.06,-472.94"/>
<polygon fill="lightslategrey" stroke="lightslategrey" points="107.56,-476.12 117.98,-478.08 111.06,-470.06 107.56,-476.12"/>
</g>
<!-- builtins.object&#45;&gt;pang.cloud.Cloud -->
<g id="edge10" class="edge">
<title>builtins.object&#45;&gt;pang.cloud.Cloud</title>
<path fill="none" stroke="lightslategrey" d="M44.29,-321.89C52.21,-334.43 67.66,-355.66 87,-366 130.43,-389.21 188.83,-392.29 223.82,-391.66"/>
<polygon fill="lightslategrey" stroke="lightslategrey" points="223.99,-395.16 233.88,-391.37 223.78,-388.16 223.99,-395.16"/>
</g>
<!-- builtins.object&#45;&gt;pang.commands.Command -->
<g id="edge11" class="edge">
<title>builtins.object&#45;&gt;pang.commands.Command</title>
<path fill="none" stroke="lightslategrey" d="M59.16,-315.48C91.48,-320.85 155.99,-331.22 211,-338 246.56,-342.38 287.14,-346.18 316.48,-348.71"/>
<polygon fill="lightslategrey" stroke="lightslategrey" points="316.49,-352.22 326.75,-349.58 317.08,-345.24 316.49,-352.22"/>
</g>
<!-- builtins.object&#45;&gt;pang.indicators.Indicator -->
<g id="edge12" class="edge">
<title>builtins.object&#45;&gt;pang.indicators.Indicator</title>
<path fill="none" stroke="lightslategrey" d="M41.85,-321.57C48.15,-338.19 63.29,-372.51 87,-392 125.31,-423.49 181.3,-439.48 217.69,-447.02"/>
<polygon fill="lightslategrey" stroke="lightslategrey" points="217.38,-450.52 227.86,-449.01 218.72,-443.66 217.38,-450.52"/>
</g>
<!-- builtins.object&#45;&gt;pang.noteserver.NoteServer -->
<g id="edge13" class="edge">
<title>builtins.object&#45;&gt;pang.noteserver.NoteServer</title>
<path fill="none" stroke="lightslategrey" d="M59.16,-310.08C97,-306.57 177.65,-299.09 222.41,-294.93"/>
<polygon fill="lightslategrey" stroke="lightslategrey" points="222.81,-298.41 232.44,-294 222.16,-291.44 222.81,-298.41"/>
</g>
<!-- builtins.object&#45;&gt;pang.postprocessors.OttavaHandler -->
<g id="edge14" class="edge">
<title>builtins.object&#45;&gt;pang.postprocessors.OttavaHandler</title>
<path fill="none" stroke="lightslategrey" d="M38.67,-321.78C39.62,-353.69 45.88,-456.77 87,-528 92.42,-537.39 100.33,-545.98 108.31,-553.18"/>
<polygon fill="lightslategrey" stroke="lightslategrey" points="106.34,-556.1 116.23,-559.89 110.87,-550.76 106.34,-556.1"/>
</g>
<!-- builtins.object&#45;&gt;pang.scoping.Scope -->
<g id="edge15" class="edge">
<title>builtins.object&#45;&gt;pang.scoping.Scope</title>
<path fill="none" stroke="lightslategrey" d="M59.03,-303.16C67.57,-299.69 77.66,-295.87 87,-293 141.01,-276.43 155.27,-274.31 211,-265 250.2,-258.45 295.78,-253.94 325.45,-251.42"/>
<polygon fill="lightslategrey" stroke="lightslategrey" points="325.94,-254.89 335.62,-250.58 325.36,-247.92 325.94,-254.89"/>
</g>
<!-- builtins.object&#45;&gt;pang.segmentmaker.SegmentMaker -->
<g id="edge16" class="edge">
<title>builtins.object&#45;&gt;pang.segmentmaker.SegmentMaker</title>
<path fill="none" stroke="lightslategrey" d="M47.2,-302.18C56.72,-291.54 72.57,-274.2 87,-260 95.12,-252.02 104.27,-243.59 112.57,-236.16"/>
<polygon fill="lightslategrey" stroke="lightslategrey" points="115.04,-238.65 120.19,-229.39 110.39,-233.41 115.04,-238.65"/>
</g>
<!-- builtins.object&#45;&gt;pang.sequences.Sequence -->
<g id="edge17" class="edge">
<title>builtins.object&#45;&gt;pang.sequences.Sequence</title>
<path fill="none" stroke="lightslategrey" d="M39,-302.17C40.82,-278.02 49.14,-215.67 87,-187 123.35,-159.48 177.69,-159.63 214.43,-163.91"/>
<polygon fill="lightslategrey" stroke="lightslategrey" points="214.39,-167.43 224.76,-165.27 215.3,-160.49 214.39,-167.43"/>
</g>
<!-- builtins.object&#45;&gt;pang.soundpointsgenerators.SoundPoint -->
<g id="edge18" class="edge">
<title>builtins.object&#45;&gt;pang.soundpointsgenerators.SoundPoint</title>
<path fill="none" stroke="lightslategrey" d="M38.13,-302.33C37.63,-274.45 40.44,-193.58 87,-157 157.05,-101.96 271.61,-120.28 326.2,-133.44"/>
<polygon fill="lightslategrey" stroke="lightslategrey" points="325.43,-136.85 335.98,-135.9 327.14,-130.07 325.43,-136.85"/>
</g>
<!-- builtins.object&#45;&gt;pang.soundpointsgenerators.SoundPointsGenerator -->
<g id="edge19" class="edge">
<title>builtins.object&#45;&gt;pang.soundpointsgenerators.SoundPointsGenerator</title>
<path fill="none" stroke="lightslategrey" d="M39.49,-302.04C43.32,-265.82 58.34,-141.99 87,-117 151.57,-60.71 260.49,-69.71 318.28,-79.68"/>
<polygon fill="lightslategrey" stroke="lightslategrey" points="317.99,-83.19 328.45,-81.54 319.24,-76.3 317.99,-83.19"/>
</g>
<!-- enum.Enum&#45;&gt;pang.indicators.IndicatorID -->
<g id="edge20" class="edge">
<title>enum.Enum&#45;&gt;pang.indicators.IndicatorID</title>
<path fill="none" stroke="lightslategrey" d="M160.12,-488.59C175.97,-489.84 198.5,-491.62 217.52,-493.12"/>
<polygon fill="lightslategrey" stroke="lightslategrey" points="217.41,-496.62 227.65,-493.92 217.96,-489.64 217.41,-496.62"/>
</g>
<!-- pang.commands.Command&#45;&gt;pang.commands.QuantizeSequenceCommand -->
<g id="edge1" class="edge">
<title>pang.commands.Command&#45;&gt;pang.commands.QuantizeSequenceCommand</title>
<path fill="none" stroke="lightslategrey" d="M389.16,-352C397.55,-352 406.81,-352 415.69,-352"/>
<polygon fill="lightslategrey" stroke="lightslategrey" points="415.86,-355.5 425.86,-352 415.86,-348.5 415.86,-355.5"/>
</g>
<!-- pang.indicators.Indicator&#45;&gt;pang.indicators.Harmonics -->
<g id="edge2" class="edge">
<title>pang.indicators.Indicator&#45;&gt;pang.indicators.Harmonics</title>
<path fill="none" stroke="lightslategrey" d="M282.01,-453C292.21,-453 304.18,-453 315.51,-453"/>
<polygon fill="lightslategrey" stroke="lightslategrey" points="315.68,-456.5 325.68,-453 315.68,-449.5 315.68,-456.5"/>
</g>
<!-- pang.postprocessors.OttavaHandler&#45;&gt;pang.postprocessors.ManualOttavaHandler -->
<g id="edge3" class="edge">
<title>pang.postprocessors.OttavaHandler&#45;&gt;pang.postprocessors.ManualOttavaHandler</title>
<path fill="none" stroke="lightslategrey" d="M164.18,-575C180.35,-575 201.87,-575 219.79,-575"/>
<polygon fill="lightslategrey" stroke="lightslategrey" points="219.86,-578.5 229.86,-575 219.86,-571.5 219.86,-578.5"/>
</g>
<!-- pang.postprocessors.OttavaHandler&#45;&gt;pang.postprocessors.VerboseOttavaHandler -->
<g id="edge4" class="edge">
<title>pang.postprocessors.OttavaHandler&#45;&gt;pang.postprocessors.VerboseOttavaHandler</title>
<path fill="none" stroke="lightslategrey" d="M164.19,-588.07C177.57,-594.56 194.74,-601.71 211,-605 248.42,-612.58 292.22,-607.82 322.01,-602.59"/>
<polygon fill="lightslategrey" stroke="lightslategrey" points="322.75,-606.01 331.93,-600.74 321.46,-599.13 322.75,-606.01"/>
</g>
<!-- pang.soundpointsgenerators.SoundPointsGenerator&#45;&gt;pang.soundpointsgenerators.AtaxicSoundPointsGenerator -->
<g id="edge5" class="edge">
<title>pang.soundpointsgenerators.SoundPointsGenerator&#45;&gt;pang.soundpointsgenerators.AtaxicSoundPointsGenerator</title>
<path fill="none" stroke="lightslategrey" d="M387.58,-74.45C397.16,-69.9 408,-64.76 418.18,-59.93"/>
<polygon fill="lightslategrey" stroke="lightslategrey" points="419.75,-63.06 427.29,-55.61 416.76,-56.74 419.75,-63.06"/>
</g>
<!-- pang.soundpointsgenerators.SoundPointsGenerator&#45;&gt;pang.soundpointsgenerators.GRWSoundPointsGenerator -->
<g id="edge6" class="edge">
<title>pang.soundpointsgenerators.SoundPointsGenerator&#45;&gt;pang.soundpointsgenerators.GRWSoundPointsGenerator</title>
<path fill="none" stroke="lightslategrey" d="M387.67,-86.39C415.44,-84.66 458.69,-81.55 496,-77 501.8,-76.29 507.89,-75.43 513.89,-74.52"/>
<polygon fill="lightslategrey" stroke="lightslategrey" points="514.5,-77.97 523.83,-72.95 513.41,-71.05 514.5,-77.97"/>
</g>
<!-- pang.soundpointsgenerators.SoundPointsGenerator&#45;&gt;pang.soundpointsgenerators.ManualSoundPointsGenerator -->
<g id="edge7" class="edge">
<title>pang.soundpointsgenerators.SoundPointsGenerator&#45;&gt;pang.soundpointsgenerators.ManualSoundPointsGenerator</title>
<path fill="none" stroke="lightslategrey" d="M387.53,-89.82C441.03,-93.24 556.53,-100.62 617.29,-104.5"/>
<polygon fill="lightslategrey" stroke="lightslategrey" points="617.42,-108.01 627.62,-105.16 617.87,-101.03 617.42,-108.01"/>
</g>
<!-- pang.soundpointsgenerators.SoundPointsGenerator&#45;&gt;pang.soundpointsgenerators.RandomWalkSoundPointsGenerator -->
<g id="edge8" class="edge">
<title>pang.soundpointsgenerators.SoundPointsGenerator&#45;&gt;pang.soundpointsgenerators.RandomWalkSoundPointsGenerator</title>
<path fill="none" stroke="lightslategrey" d="M387.58,-108.62C397.46,-115.75 408.67,-123.84 419.12,-131.38"/>
<polygon fill="lightslategrey" stroke="lightslategrey" points="417.13,-134.27 427.29,-137.28 421.23,-128.59 417.13,-134.27"/>
</g>
<!-- builtins.object -->
<g id="node1" class="node">
<title>builtins.object</title>
<g id="a_node1"><a xlink:href="https://docs.python.org/3.9/library/functions.html#object" xlink:title="object" target="_top">
<path fill="#fbb4ae" stroke="#fbb4ae" stroke-width="2" d="M52.67,-321.5C52.67,-321.5 22.33,-321.5 22.33,-321.5 19.17,-321.5 16,-318.33 16,-315.17 16,-315.17 16,-308.83 16,-308.83 16,-305.67 19.17,-302.5 22.33,-302.5 22.33,-302.5 52.67,-302.5 52.67,-302.5 55.83,-302.5 59,-305.67 59,-308.83 59,-308.83 59,-315.17 59,-315.17 59,-318.33 55.83,-321.5 52.67,-321.5"/>
<text text-anchor="middle" x="37.5" y="-309.5" font-family="Arial" font-size="10.00">object</text>
</a>
</g>
</g>
<!-- enum.Enum -->
<g id="node2" class="node">
<title>enum.Enum</title>
<g id="a_node2"><a xlink:href="https://docs.python.org/3.9/library/enum.html#enum.Enum" xlink:title="Enum" target="_top">
<path fill="#b3cde3" stroke="#b3cde3" stroke-width="2" d="M153.67,-496.5C153.67,-496.5 124.33,-496.5 124.33,-496.5 121.17,-496.5 118,-493.33 118,-490.17 118,-490.17 118,-483.83 118,-483.83 118,-480.67 121.17,-477.5 124.33,-477.5 124.33,-477.5 153.67,-477.5 153.67,-477.5 156.83,-477.5 160,-480.67 160,-483.83 160,-483.83 160,-490.17 160,-490.17 160,-493.33 156.83,-496.5 153.67,-496.5"/>
<text text-anchor="middle" x="139" y="-484.5" font-family="Arial" font-size="10.00">Enum</text>
</a>
</g>
</g>
<!-- pang.cloud.Cloud -->
<g id="node3" class="node">
<title>pang.cloud.Cloud</title>
<g id="a_node3"><a xlink:href="../api/pang/cloud.html#pang.cloud.Cloud" xlink:title="Cloud" target="_top">
<path fill="#ccebc5" stroke="#ccebc5" stroke-width="2" d="M269.67,-399.5C269.67,-399.5 240.33,-399.5 240.33,-399.5 237.17,-399.5 234,-396.33 234,-393.17 234,-393.17 234,-386.83 234,-386.83 234,-383.67 237.17,-380.5 240.33,-380.5 240.33,-380.5 269.67,-380.5 269.67,-380.5 272.83,-380.5 276,-383.67 276,-386.83 276,-386.83 276,-393.17 276,-393.17 276,-396.33 272.83,-399.5 269.67,-399.5"/>
<text text-anchor="middle" x="255" y="-387.5" font-family="Arial" font-size="10.00">Cloud</text>
</a>
</g>
</g>
<!-- pang.commands.Command -->
<g id="node4" class="node">
<title>pang.commands.Command</title>
<g id="a_node4"><a xlink:href="../api/pang/commands.html#pang.commands.Command" xlink:title="Command" target="_top">
<path fill="#decbe4" stroke="#decbe4" stroke-width="2" d="M382.67,-361.5C382.67,-361.5 333.33,-361.5 333.33,-361.5 330.17,-361.5 327,-358.33 327,-355.17 327,-355.17 327,-348.83 327,-348.83 327,-345.67 330.17,-342.5 333.33,-342.5 333.33,-342.5 382.67,-342.5 382.67,-342.5 385.83,-342.5 389,-345.67 389,-348.83 389,-348.83 389,-355.17 389,-355.17 389,-358.33 385.83,-361.5 382.67,-361.5"/>
<text text-anchor="middle" x="358" y="-349.5" font-family="Arial" font-size="10.00">Command</text>
</a>
</g>
</g>
<!-- pang.commands.QuantizeSequenceCommand -->
<g id="node5" class="node">
<title>pang.commands.QuantizeSequenceCommand</title>
<g id="a_node5"><a xlink:href="../api/pang/commands.html#pang.commands.QuantizeSequenceCommand" xlink:title="Quantize\nSequence\nCommand" target="_top">
<path fill="#decbe4" stroke="#decbe4" stroke-width="2" d="M476,-372.5C476,-372.5 438,-372.5 438,-372.5 432,-372.5 426,-366.5 426,-360.5 426,-360.5 426,-343.5 426,-343.5 426,-337.5 432,-331.5 438,-331.5 438,-331.5 476,-331.5 476,-331.5 482,-331.5 488,-337.5 488,-343.5 488,-343.5 488,-360.5 488,-360.5 488,-366.5 482,-372.5 476,-372.5"/>
<text text-anchor="middle" x="457" y="-360.5" font-family="Arial" font-size="10.00">Quantize</text>
<text text-anchor="middle" x="457" y="-349.5" font-family="Arial" font-size="10.00">Sequence</text>
<text text-anchor="middle" x="457" y="-338.5" font-family="Arial" font-size="10.00">Command</text>
</a>
</g>
</g>
<!-- pang.indicators.Harmonics -->
<g id="node6" class="node">
<title>pang.indicators.Harmonics</title>
<g id="a_node6"><a xlink:href="../api/pang/indicators.html#pang.indicators.Harmonics" xlink:title="Harmonics" target="_top">
<path fill="#fed9a6" stroke="#fed9a6" stroke-width="2" d="M383.67,-462.5C383.67,-462.5 332.33,-462.5 332.33,-462.5 329.17,-462.5 326,-459.33 326,-456.17 326,-456.17 326,-449.83 326,-449.83 326,-446.67 329.17,-443.5 332.33,-443.5 332.33,-443.5 383.67,-443.5 383.67,-443.5 386.83,-443.5 390,-446.67 390,-449.83 390,-449.83 390,-456.17 390,-456.17 390,-459.33 386.83,-462.5 383.67,-462.5"/>
<text text-anchor="middle" x="358" y="-450.5" font-family="Arial" font-size="10.00">Harmonics</text>
</a>
</g>
</g>
<!-- pang.indicators.Indicator -->
<g id="node7" class="node">
<title>pang.indicators.Indicator</title>
<g id="a_node7"><a xlink:href="../api/pang/indicators.html#pang.indicators.Indicator" xlink:title="Indicator" target="_top">
<path fill="#fed9a6" stroke="#fed9a6" stroke-width="2" d="M275.67,-462.5C275.67,-462.5 234.33,-462.5 234.33,-462.5 231.17,-462.5 228,-459.33 228,-456.17 228,-456.17 228,-449.83 228,-449.83 228,-446.67 231.17,-443.5 234.33,-443.5 234.33,-443.5 275.67,-443.5 275.67,-443.5 278.83,-443.5 282,-446.67 282,-449.83 282,-449.83 282,-456.17 282,-456.17 282,-459.33 278.83,-462.5 275.67,-462.5"/>
<text text-anchor="middle" x="255" y="-450.5" font-family="Arial" font-size="10.00">Indicator</text>
</a>
</g>
</g>
<!-- pang.indicators.IndicatorID -->
<g id="node8" class="node">
<title>pang.indicators.IndicatorID</title>
<g id="a_node8"><a xlink:href="../api/pang/indicators.html#pang.indicators.IndicatorID" xlink:title="Indicator\nID" target="_top">
<path fill="#fed9a6" stroke="#fed9a6" stroke-width="2" d="M272,-511C272,-511 238,-511 238,-511 233,-511 228,-506 228,-501 228,-501 228,-491 228,-491 228,-486 233,-481 238,-481 238,-481 272,-481 272,-481 277,-481 282,-486 282,-491 282,-491 282,-501 282,-501 282,-506 277,-511 272,-511"/>
<text text-anchor="middle" x="255" y="-499" font-family="Arial" font-size="10.00">Indicator</text>
<text text-anchor="middle" x="255" y="-488" font-family="Arial" font-size="10.00">ID</text>
</a>
</g>
</g>
<!-- pang.noteserver.NoteServer -->
<g id="node9" class="node">
<title>pang.noteserver.NoteServer</title>
<g id="a_node9"><a xlink:href="../api/pang/noteserver.html#pang.noteserver.NoteServer" xlink:title="Note\nServer" target="_top">
<path fill="#ffffcc" stroke="#ffffcc" stroke-width="2" d="M267.5,-307C267.5,-307 242.5,-307 242.5,-307 237.5,-307 232.5,-302 232.5,-297 232.5,-297 232.5,-287 232.5,-287 232.5,-282 237.5,-277 242.5,-277 242.5,-277 267.5,-277 267.5,-277 272.5,-277 277.5,-282 277.5,-287 277.5,-287 277.5,-297 277.5,-297 277.5,-302 272.5,-307 267.5,-307"/>
<text text-anchor="middle" x="255" y="-295" font-family="Arial" font-size="10.00">Note</text>
<text text-anchor="middle" x="255" y="-284" font-family="Arial" font-size="10.00">Server</text>
</a>
</g>
</g>
<!-- pang.postprocessors.ManualOttavaHandler -->
<g id="node10" class="node">
<title>pang.postprocessors.ManualOttavaHandler</title>
<g id="a_node10"><a xlink:href="../api/pang/postprocessors.html#pang.postprocessors.ManualOttavaHandler" xlink:title="Manual\nOttava\nHandler" target="_top">
<path fill="#e5d8bd" stroke="#e5d8bd" stroke-width="2" d="M268,-595.5C268,-595.5 242,-595.5 242,-595.5 236,-595.5 230,-589.5 230,-583.5 230,-583.5 230,-566.5 230,-566.5 230,-560.5 236,-554.5 242,-554.5 242,-554.5 268,-554.5 268,-554.5 274,-554.5 280,-560.5 280,-566.5 280,-566.5 280,-583.5 280,-583.5 280,-589.5 274,-595.5 268,-595.5"/>
<text text-anchor="middle" x="255" y="-583.5" font-family="Arial" font-size="10.00">Manual</text>
<text text-anchor="middle" x="255" y="-572.5" font-family="Arial" font-size="10.00">Ottava</text>
<text text-anchor="middle" x="255" y="-561.5" font-family="Arial" font-size="10.00">Handler</text>
</a>
</g>
</g>
<!-- pang.postprocessors.OttavaHandler -->
<g id="node11" class="node">
<title>pang.postprocessors.OttavaHandler</title>
<g id="a_node11"><a xlink:href="../api/pang/postprocessors.html#pang.postprocessors.OttavaHandler" xlink:title="Ottava\nHandler" target="_top">
<path fill="#e5d8bd" stroke="#e5d8bd" stroke-width="2" d="M154,-590C154,-590 124,-590 124,-590 119,-590 114,-585 114,-580 114,-580 114,-570 114,-570 114,-565 119,-560 124,-560 124,-560 154,-560 154,-560 159,-560 164,-565 164,-570 164,-570 164,-580 164,-580 164,-585 159,-590 154,-590"/>
<text text-anchor="middle" x="139" y="-578" font-family="Arial" font-size="10.00">Ottava</text>
<text text-anchor="middle" x="139" y="-567" font-family="Arial" font-size="10.00">Handler</text>
</a>
</g>
</g>
<!-- pang.postprocessors.VerboseOttavaHandler -->
<g id="node12" class="node">
<title>pang.postprocessors.VerboseOttavaHandler</title>
<g id="a_node12"><a xlink:href="../api/pang/postprocessors.html#pang.postprocessors.VerboseOttavaHandler" xlink:title="Verbose\nOttava\nHandler" target="_top">
<path fill="#e5d8bd" stroke="#e5d8bd" stroke-width="2" d="M372,-615.5C372,-615.5 344,-615.5 344,-615.5 338,-615.5 332,-609.5 332,-603.5 332,-603.5 332,-586.5 332,-586.5 332,-580.5 338,-574.5 344,-574.5 344,-574.5 372,-574.5 372,-574.5 378,-574.5 384,-580.5 384,-586.5 384,-586.5 384,-603.5 384,-603.5 384,-609.5 378,-615.5 372,-615.5"/>
<text text-anchor="middle" x="358" y="-603.5" font-family="Arial" font-size="10.00">Verbose</text>
<text text-anchor="middle" x="358" y="-592.5" font-family="Arial" font-size="10.00">Ottava</text>
<text text-anchor="middle" x="358" y="-581.5" font-family="Arial" font-size="10.00">Handler</text>
</a>
</g>
</g>
<!-- pang.scoping.Scope -->
<g id="node13" class="node">
<title>pang.scoping.Scope</title>
<g id="a_node13"><a xlink:href="../api/pang/scoping.html#pang.scoping.Scope" xlink:title="Scope" target="_top">
<path fill="#fddaec" stroke="#fddaec" stroke-width="2" d="M373.67,-258.5C373.67,-258.5 342.33,-258.5 342.33,-258.5 339.17,-258.5 336,-255.33 336,-252.17 336,-252.17 336,-245.83 336,-245.83 336,-242.67 339.17,-239.5 342.33,-239.5 342.33,-239.5 373.67,-239.5 373.67,-239.5 376.83,-239.5 380,-242.67 380,-245.83 380,-245.83 380,-252.17 380,-252.17 380,-255.33 376.83,-258.5 373.67,-258.5"/>
<text text-anchor="middle" x="358" y="-246.5" font-family="Arial" font-size="10.00">Scope</text>
</a>
</g>
</g>
<!-- pang.segmentmaker.SegmentMaker -->
<g id="node14" class="node">
<title>pang.segmentmaker.SegmentMaker</title>
<g id="a_node14"><a xlink:href="../api/pang/segmentmaker.html#pang.segmentmaker.SegmentMaker" xlink:title="Segment\nMaker" target="_top">
<path fill="#f2f2f2" stroke="#f2f2f2" stroke-width="2" d="M157,-229C157,-229 121,-229 121,-229 116,-229 111,-224 111,-219 111,-219 111,-209 111,-209 111,-204 116,-199 121,-199 121,-199 157,-199 157,-199 162,-199 167,-204 167,-209 167,-209 167,-219 167,-219 167,-224 162,-229 157,-229"/>
<text text-anchor="middle" x="139" y="-217" font-family="Arial" font-size="10.00">Segment</text>
<text text-anchor="middle" x="139" y="-206" font-family="Arial" font-size="10.00">Maker</text>
</a>
</g>
</g>
<!-- pang.sequences.Sequence -->
<g id="node15" class="node">
<title>pang.sequences.Sequence</title>
<g id="a_node15"><a xlink:href="../api/pang/sequences.html#pang.sequences.Sequence" xlink:title="Sequence" target="_top">
<path fill="#fbb4ae" stroke="#fbb4ae" stroke-width="2" d="M278.67,-180.5C278.67,-180.5 231.33,-180.5 231.33,-180.5 228.17,-180.5 225,-177.33 225,-174.17 225,-174.17 225,-167.83 225,-167.83 225,-164.67 228.17,-161.5 231.33,-161.5 231.33,-161.5 278.67,-161.5 278.67,-161.5 281.83,-161.5 285,-164.67 285,-167.83 285,-167.83 285,-174.17 285,-174.17 285,-177.33 281.83,-180.5 278.67,-180.5"/>
<text text-anchor="middle" x="255" y="-168.5" font-family="Arial" font-size="10.00">Sequence</text>
</a>
</g>
</g>
<!-- pang.soundpointsgenerators.AtaxicSoundPointsGenerator -->
<g id="node16" class="node">
<title>pang.soundpointsgenerators.AtaxicSoundPointsGenerator</title>
<g id="a_node16"><a xlink:href="../api/pang/soundpointsgenerators.html#pang.soundpointsgenerators.AtaxicSoundPointsGenerator" xlink:title="Ataxic\nSound\nPoints\nGenerator" target="_top">
<path fill="#b3cde3" stroke="#b3cde3" stroke-width="2" d="M474.5,-68C474.5,-68 439.5,-68 439.5,-68 433.5,-68 427.5,-62 427.5,-56 427.5,-56 427.5,-28 427.5,-28 427.5,-22 433.5,-16 439.5,-16 439.5,-16 474.5,-16 474.5,-16 480.5,-16 486.5,-22 486.5,-28 486.5,-28 486.5,-56 486.5,-56 486.5,-62 480.5,-68 474.5,-68"/>
<text text-anchor="middle" x="457" y="-56" font-family="Arial" font-size="10.00">Ataxic</text>
<text text-anchor="middle" x="457" y="-45" font-family="Arial" font-size="10.00">Sound</text>
<text text-anchor="middle" x="457" y="-34" font-family="Arial" font-size="10.00">Points</text>
<text text-anchor="middle" x="457" y="-23" font-family="Arial" font-size="10.00">Generator</text>
</a>
</g>
</g>
<!-- pang.soundpointsgenerators.GRWSoundPointsGenerator -->
<g id="node17" class="node">
<title>pang.soundpointsgenerators.GRWSoundPointsGenerator</title>
<g id="a_node17"><a xlink:href="../api/pang/soundpointsgenerators.html#pang.soundpointsgenerators.GRWSoundPointsGenerator" xlink:title="GRWSound\nPoints\nGenerator" target="_top">
<path fill="#b3cde3" stroke="#b3cde3" stroke-width="2" d="M580,-87.5C580,-87.5 536,-87.5 536,-87.5 530,-87.5 524,-81.5 524,-75.5 524,-75.5 524,-58.5 524,-58.5 524,-52.5 530,-46.5 536,-46.5 536,-46.5 580,-46.5 580,-46.5 586,-46.5 592,-52.5 592,-58.5 592,-58.5 592,-75.5 592,-75.5 592,-81.5 586,-87.5 580,-87.5"/>
<text text-anchor="middle" x="558" y="-75.5" font-family="Arial" font-size="10.00">GRWSound</text>
<text text-anchor="middle" x="558" y="-64.5" font-family="Arial" font-size="10.00">Points</text>
<text text-anchor="middle" x="558" y="-53.5" font-family="Arial" font-size="10.00">Generator</text>
</a>
</g>
</g>
<!-- pang.soundpointsgenerators.ManualSoundPointsGenerator -->
<g id="node18" class="node">
<title>pang.soundpointsgenerators.ManualSoundPointsGenerator</title>
<g id="a_node18"><a xlink:href="../api/pang/soundpointsgenerators.html#pang.soundpointsgenerators.ManualSoundPointsGenerator" xlink:title="Manual\nSound\nPoints\nGenerator" target="_top">
<path fill="#b3cde3" stroke="#b3cde3" stroke-width="2" d="M675,-133C675,-133 640,-133 640,-133 634,-133 628,-127 628,-121 628,-121 628,-93 628,-93 628,-87 634,-81 640,-81 640,-81 675,-81 675,-81 681,-81 687,-87 687,-93 687,-93 687,-121 687,-121 687,-127 681,-133 675,-133"/>
<text text-anchor="middle" x="657.5" y="-121" font-family="Arial" font-size="10.00">Manual</text>
<text text-anchor="middle" x="657.5" y="-110" font-family="Arial" font-size="10.00">Sound</text>
<text text-anchor="middle" x="657.5" y="-99" font-family="Arial" font-size="10.00">Points</text>
<text text-anchor="middle" x="657.5" y="-88" font-family="Arial" font-size="10.00">Generator</text>
</a>
</g>
</g>
<!-- pang.soundpointsgenerators.RandomWalkSoundPointsGenerator -->
<g id="node19" class="node">
<title>pang.soundpointsgenerators.RandomWalkSoundPointsGenerator</title>
<g id="a_node19"><a xlink:href="../api/pang/soundpointsgenerators.html#pang.soundpointsgenerators.RandomWalkSoundPointsGenerator" xlink:title="Random\nWalk\nSound\nPoints\nGenerator" target="_top">
<path fill="#b3cde3" stroke="#b3cde3" stroke-width="2" d="M474.5,-189.5C474.5,-189.5 439.5,-189.5 439.5,-189.5 433.5,-189.5 427.5,-183.5 427.5,-177.5 427.5,-177.5 427.5,-138.5 427.5,-138.5 427.5,-132.5 433.5,-126.5 439.5,-126.5 439.5,-126.5 474.5,-126.5 474.5,-126.5 480.5,-126.5 486.5,-132.5 486.5,-138.5 486.5,-138.5 486.5,-177.5 486.5,-177.5 486.5,-183.5 480.5,-189.5 474.5,-189.5"/>
<text text-anchor="middle" x="457" y="-177.5" font-family="Arial" font-size="10.00">Random</text>
<text text-anchor="middle" x="457" y="-166.5" font-family="Arial" font-size="10.00">Walk</text>
<text text-anchor="middle" x="457" y="-155.5" font-family="Arial" font-size="10.00">Sound</text>
<text text-anchor="middle" x="457" y="-144.5" font-family="Arial" font-size="10.00">Points</text>
<text text-anchor="middle" x="457" y="-133.5" font-family="Arial" font-size="10.00">Generator</text>
</a>
</g>
</g>
<!-- pang.soundpointsgenerators.SoundPoint -->
<g id="node20" class="node">
<title>pang.soundpointsgenerators.SoundPoint</title>
<g id="a_node20"><a xlink:href="../api/pang/soundpointsgenerators.html#pang.soundpointsgenerators.SoundPoint" xlink:title="Sound\nPoint" target="_top">
<path fill="#b3cde3" stroke="#b3cde3" stroke-width="2" d="M370,-157C370,-157 346,-157 346,-157 341,-157 336,-152 336,-147 336,-147 336,-137 336,-137 336,-132 341,-127 346,-127 346,-127 370,-127 370,-127 375,-127 380,-132 380,-137 380,-137 380,-147 380,-147 380,-152 375,-157 370,-157"/>
<text text-anchor="middle" x="358" y="-145" font-family="Arial" font-size="10.00">Sound</text>
<text text-anchor="middle" x="358" y="-134" font-family="Arial" font-size="10.00">Point</text>
</a>
</g>
</g>
<!-- pang.soundpointsgenerators.SoundPointsGenerator -->
<g id="node21" class="node">
<title>pang.soundpointsgenerators.SoundPointsGenerator</title>
<g id="a_node21"><a xlink:href="../api/pang/soundpointsgenerators.html#pang.soundpointsgenerators.SoundPointsGenerator" xlink:title="Sound\nPoints\nGenerator" target="_top">
<path fill="#b3cde3" stroke="#b3cde3" stroke-width="2" d="M375.5,-108.5C375.5,-108.5 340.5,-108.5 340.5,-108.5 334.5,-108.5 328.5,-102.5 328.5,-96.5 328.5,-96.5 328.5,-79.5 328.5,-79.5 328.5,-73.5 334.5,-67.5 340.5,-67.5 340.5,-67.5 375.5,-67.5 375.5,-67.5 381.5,-67.5 387.5,-73.5 387.5,-79.5 387.5,-79.5 387.5,-96.5 387.5,-96.5 387.5,-102.5 381.5,-108.5 375.5,-108.5"/>
<text text-anchor="middle" x="358" y="-96.5" font-family="Arial" font-size="10.00">Sound</text>
<text text-anchor="middle" x="358" y="-85.5" font-family="Arial" font-size="10.00">Points</text>
<text text-anchor="middle" x="358" y="-74.5" font-family="Arial" font-size="10.00">Generator</text>
</a>
</g>
</g>
</g>
</svg>
