<?xml version="1.0" encoding="UTF-8" standalone="no"?>
<!DOCTYPE svg PUBLIC "-//W3C//DTD SVG 1.1//EN"
 "http://www.w3.org/Graphics/SVG/1.1/DTD/svg11.dtd">
<!-- Generated by graphviz version 2.46.1 (20210213.1702)
 -->
<!-- Title: InheritanceGraph Pages: 1 -->
<svg width="185pt" height="79pt"
 viewBox="0.00 0.00 185.00 79.00" xmlns="http://www.w3.org/2000/svg" xmlns:xlink="http://www.w3.org/1999/xlink">
<g id="graph0" class="graph" transform="scale(1 1) rotate(0) translate(4 75)">
<title>InheritanceGraph</title>
<g id="clust1" class="cluster">
<title>cluster_builtins</title>
<path fill="transparent" stroke="#bcd2ee" stroke-width="2" stroke-dasharray="5,2" d="M20,-8C20,-8 55,-8 55,-8 61,-8 67,-14 67,-20 67,-20 67,-51 67,-51 67,-57 61,-63 55,-63 55,-63 20,-63 20,-63 14,-63 8,-57 8,-51 8,-51 8,-20 8,-20 8,-14 14,-8 20,-8"/>
<text text-anchor="middle" x="37.5" y="-51" font-family="Arial" font-size="10.00">builtins</text>
</g>
<g id="clust2" class="cluster">
<title>cluster_pang.sequences</title>
<path fill="transparent" stroke="#bcd2ee" stroke-width="2" stroke-dasharray="5,2" d="M99,-8C99,-8 163,-8 163,-8 169,-8 175,-14 175,-20 175,-20 175,-51 175,-51 175,-57 169,-63 163,-63 163,-63 99,-63 99,-63 93,-63 87,-57 87,-51 87,-51 87,-20 87,-20 87,-14 93,-8 99,-8"/>
<text text-anchor="middle" x="131" y="-51" font-family="Arial" font-size="10.00">pang.sequences</text>
</g>
<!-- builtins.object&#45;&gt;pang.sequences.Sequence -->
<g id="edge1" class="edge">
<title>builtins.object&#45;&gt;pang.sequences.Sequence</title>
<path fill="none" stroke="lightslategrey" d="M59.26,-26C68.61,-26 79.97,-26 90.83,-26"/>
<polygon fill="lightslategrey" stroke="lightslategrey" points="91,-29.5 101,-26 91,-22.5 91,-29.5"/>
</g>
<!-- builtins.object -->
<g id="node1" class="node">
<title>builtins.object</title>
<g id="a_node1"><a xlink:href="https://docs.python.org/3.9/library/functions.html#object" xlink:title="object" target="_top">
<path fill="#fbb4ae" stroke="#fbb4ae" stroke-width="2" d="M52.67,-35.5C52.67,-35.5 22.33,-35.5 22.33,-35.5 19.17,-35.5 16,-32.33 16,-29.17 16,-29.17 16,-22.83 16,-22.83 16,-19.67 19.17,-16.5 22.33,-16.5 22.33,-16.5 52.67,-16.5 52.67,-16.5 55.83,-16.5 59,-19.67 59,-22.83 59,-22.83 59,-29.17 59,-29.17 59,-32.33 55.83,-35.5 52.67,-35.5"/>
<text text-anchor="middle" x="37.5" y="-23.5" font-family="Arial" font-size="10.00">object</text>
</a>
</g>
</g>
<!-- pang.sequences.Sequence -->
<g id="node2" class="node">
<title>pang.sequences.Sequence</title>
<g id="a_node2"><a xlink:href="../api/pang/sequences.html#pang.sequences.Sequence" xlink:title="Sequence" target="_top">
<path fill="black" stroke="black" stroke-width="2" d="M154.67,-35.5C154.67,-35.5 107.33,-35.5 107.33,-35.5 104.17,-35.5 101,-32.33 101,-29.17 101,-29.17 101,-22.83 101,-22.83 101,-19.67 104.17,-16.5 107.33,-16.5 107.33,-16.5 154.67,-16.5 154.67,-16.5 157.83,-16.5 161,-19.67 161,-22.83 161,-22.83 161,-29.17 161,-29.17 161,-32.33 157.83,-35.5 154.67,-35.5"/>
<text text-anchor="middle" x="131" y="-23.5" font-family="Arial" font-size="10.00" fill="white">Sequence</text>
</a>
</g>
</g>
</g>
</svg>
