<?xml version="1.0" encoding="UTF-8" standalone="no"?>
<!DOCTYPE svg PUBLIC "-//W3C//DTD SVG 1.1//EN"
 "http://www.w3.org/Graphics/SVG/1.1/DTD/svg11.dtd">
<!-- Generated by graphviz version 2.47.0 (20210316.0004)
 -->
<!-- Title: InheritanceGraph Pages: 1 -->
<svg width="279pt" height="101pt"
 viewBox="0.00 0.00 279.00 101.00" xmlns="http://www.w3.org/2000/svg" xmlns:xlink="http://www.w3.org/1999/xlink">
<g id="graph0" class="graph" transform="scale(1 1) rotate(0) translate(4 97)">
<title>InheritanceGraph</title>
<g id="clust1" class="cluster">
<title>cluster_builtins</title>
<path fill="transparent" stroke="#bcd2ee" stroke-width="2" stroke-dasharray="5,2" d="M20,-19C20,-19 55,-19 55,-19 61,-19 67,-25 67,-31 67,-31 67,-62 67,-62 67,-68 61,-74 55,-74 55,-74 20,-74 20,-74 14,-74 8,-68 8,-62 8,-62 8,-31 8,-31 8,-25 14,-19 20,-19"/>
<text text-anchor="middle" x="37.5" y="-62" font-family="Arial" font-size="10.00">builtins</text>
</g>
<g id="clust2" class="cluster">
<title>cluster_pang.commands</title>
<path fill="transparent" stroke="#bcd2ee" stroke-width="2" stroke-dasharray="5,2" d="M99,-8C99,-8 251,-8 251,-8 257,-8 263,-14 263,-20 263,-20 263,-73 263,-73 263,-79 257,-85 251,-85 251,-85 99,-85 99,-85 93,-85 87,-79 87,-73 87,-73 87,-20 87,-20 87,-14 93,-8 99,-8"/>
<text text-anchor="middle" x="175" y="-73" font-family="Arial" font-size="10.00">pang.commands</text>
</g>
<!-- builtins.object&#45;&gt;pang.commands.Command -->
<g id="edge2" class="edge">
<title>builtins.object&#45;&gt;pang.commands.Command</title>
<path fill="none" stroke="lightslategrey" d="M59.44,-37C67.06,-37 75.95,-37 84.68,-37"/>
<polygon fill="lightslategrey" stroke="lightslategrey" points="84.77,-40.5 94.77,-37 84.77,-33.5 84.77,-40.5"/>
</g>
<!-- pang.commands.Command&#45;&gt;pang.commands.QuantizeSequenceCommand -->
<g id="edge1" class="edge">
<title>pang.commands.Command&#45;&gt;pang.commands.QuantizeSequenceCommand</title>
<path fill="none" stroke="lightslategrey" d="M157.11,-37C165.24,-37 174.17,-37 182.76,-37"/>
<polygon fill="lightslategrey" stroke="lightslategrey" points="183,-40.5 193,-37 183,-33.5 183,-40.5"/>
</g>
<!-- builtins.object -->
<g id="node1" class="node">
<title>builtins.object</title>
<g id="a_node1"><a xlink:href="https://docs.python.org/3.9/library/functions.html#object" xlink:title="object" target="_top">
<path fill="#fbb4ae" stroke="#fbb4ae" stroke-width="2" d="M52.67,-46.5C52.67,-46.5 22.33,-46.5 22.33,-46.5 19.17,-46.5 16,-43.33 16,-40.17 16,-40.17 16,-33.83 16,-33.83 16,-30.67 19.17,-27.5 22.33,-27.5 22.33,-27.5 52.67,-27.5 52.67,-27.5 55.83,-27.5 59,-30.67 59,-33.83 59,-33.83 59,-40.17 59,-40.17 59,-43.33 55.83,-46.5 52.67,-46.5"/>
<text text-anchor="middle" x="37.5" y="-34.5" font-family="Arial" font-size="10.00">object</text>
</a>
</g>
</g>
<!-- pang.commands.Command -->
<g id="node2" class="node">
<title>pang.commands.Command</title>
<g id="a_node2"><a xlink:href="../api/pang/commands.html#pang.commands.Command" xlink:title="Command" target="_top">
<path fill="black" stroke="black" stroke-width="2" d="M150.67,-46.5C150.67,-46.5 101.33,-46.5 101.33,-46.5 98.17,-46.5 95,-43.33 95,-40.17 95,-40.17 95,-33.83 95,-33.83 95,-30.67 98.17,-27.5 101.33,-27.5 101.33,-27.5 150.67,-27.5 150.67,-27.5 153.83,-27.5 157,-30.67 157,-33.83 157,-33.83 157,-40.17 157,-40.17 157,-43.33 153.83,-46.5 150.67,-46.5"/>
<text text-anchor="middle" x="126" y="-34.5" font-family="Arial" font-size="10.00" fill="white">Command</text>
</a>
</g>
</g>
<!-- pang.commands.QuantizeSequenceCommand -->
<g id="node3" class="node">
<title>pang.commands.QuantizeSequenceCommand</title>
<g id="a_node3"><a xlink:href="../api/pang/commands.html#pang.commands.QuantizeSequenceCommand" xlink:title="Quantize\nSequence\nCommand" target="_top">
<path fill="black" stroke="black" stroke-width="2" d="M243,-57.5C243,-57.5 205,-57.5 205,-57.5 199,-57.5 193,-51.5 193,-45.5 193,-45.5 193,-28.5 193,-28.5 193,-22.5 199,-16.5 205,-16.5 205,-16.5 243,-16.5 243,-16.5 249,-16.5 255,-22.5 255,-28.5 255,-28.5 255,-45.5 255,-45.5 255,-51.5 249,-57.5 243,-57.5"/>
<text text-anchor="middle" x="224" y="-45.5" font-family="Arial" font-size="10.00" fill="white">Quantize</text>
<text text-anchor="middle" x="224" y="-34.5" font-family="Arial" font-size="10.00" fill="white">Sequence</text>
<text text-anchor="middle" x="224" y="-23.5" font-family="Arial" font-size="10.00" fill="white">Command</text>
</a>
</g>
</g>
</g>
</svg>
