<svg xmlns="http://www.w3.org/2000/svg" xmlns:xlink="http://www.w3.org/1999/xlink" version="1.2" width="93.18mm" height="13.47mm" viewBox="0.0000 0.0193 66.2829 9.5789">
<style text="style/css">
<![CDATA[
tspan { white-space: pre; }
]]>
</style>
<line transform="translate(0.0000, 8.0456)" stroke-linejoin="round" stroke-linecap="round" stroke-width="0.1164" stroke="currentColor" x1="0.0582" y1="-0.0000" x2="66.2247" y2="-0.0000"/>
<line transform="translate(0.0000, 7.0456)" stroke-linejoin="round" stroke-linecap="round" stroke-width="0.1164" stroke="currentColor" x1="0.0582" y1="-0.0000" x2="66.2247" y2="-0.0000"/>
<line transform="translate(0.0000, 6.0456)" stroke-linejoin="round" stroke-linecap="round" stroke-width="0.1164" stroke="currentColor" x1="0.0582" y1="-0.0000" x2="66.2247" y2="-0.0000"/>
<line transform="translate(0.0000, 5.0456)" stroke-linejoin="round" stroke-linecap="round" stroke-width="0.1164" stroke="currentColor" x1="0.0582" y1="-0.0000" x2="66.2247" y2="-0.0000"/>
<line transform="translate(0.0000, 4.0456)" stroke-linejoin="round" stroke-linecap="round" stroke-width="0.1164" stroke="currentColor" x1="0.0582" y1="-0.0000" x2="66.2247" y2="-0.0000"/>
<rect transform="translate(0.0000, 9.0456)" x="51.5577" y="-0.1082" width="1.9513" height="0.2164" ry="0.1082" fill="currentColor"/>
<rect transform="translate(0.0000, 9.0456)" x="37.1577" y="-0.1082" width="1.9513" height="0.2164" ry="0.1082" fill="currentColor"/>
<rect transform="translate(0.0000, 9.0456)" x="22.7577" y="-0.1082" width="1.9513" height="0.2164" ry="0.1082" fill="currentColor"/>
<rect transform="translate(0.0000, 9.0456)" x="8.3577" y="-0.1082" width="1.9513" height="0.2164" ry="0.1082" fill="currentColor"/>
<rect transform="translate(66.0617, 6.0456)" x="0.0000" y="-2.0000" width="0.2212" height="4.0000" ry="0.0000" fill="currentColor"/>
<rect transform="translate(38.7081, 6.0456)" x="-0.0757" y="-2.1713" width="0.1514" height="5.0000" ry="0.0500" fill="currentColor"/>
<path transform="translate(37.4829, 9.0456) scale(0.0040, -0.0040)" d="M212 138c59 0 113 -31 113 -95c0 -71 -52 -120 -99 -148c-34 -21 -73 -33 -113 -33c-59 0 -113 31 -113 95c0 71 53 120 100 148c34 21 72 33 112 33z" fill="currentColor"/>
<rect transform="translate(24.3081, 6.0456)" x="-0.0757" y="-2.1713" width="0.1514" height="5.0000" ry="0.0500" fill="currentColor"/>
<path transform="translate(23.0829, 9.0456) scale(0.0040, -0.0040)" d="M212 138c59 0 113 -31 113 -95c0 -71 -52 -120 -99 -148c-34 -21 -73 -33 -113 -33c-59 0 -113 31 -113 95c0 71 53 120 100 148c34 21 72 33 112 33z" fill="currentColor"/>
<path transform="translate(59.0829, 6.0456) scale(0.0040, -0.0040)" d="M67 -250l118 326c-33 -12 -66 -22 -101 -22c-46 0 -87 34 -87 79c0 40 33 72 73 72c25 0 49 -14 57 -37c10 -27 4 -59 33 -59c14 0 50 42 56 55c7 14 28 14 34 0l-119 -414c-9 -8 -21 -12 -32 -12s-23 4 -32 12z" fill="currentColor"/>
<polygon transform="translate(38.7837, 3.9242)" stroke-linejoin="round" stroke-linecap="round" stroke-width="0.0757" fill="currentColor" stroke="currentColor" points="-0.0378 0.4468 1.0046 0.7855 1.0046 0.3151 -0.0378 -0.0236"/>
<path transform="translate(44.6829, 6.0456) scale(0.0040, -0.0040)" d="M67 -250l118 326c-33 -12 -66 -22 -101 -22c-46 0 -87 34 -87 79c0 40 33 72 73 72c25 0 49 -14 57 -37c10 -27 4 -59 33 -59c14 0 50 42 56 55c7 14 28 14 34 0l-119 -414c-9 -8 -21 -12 -32 -12s-23 4 -32 12z" fill="currentColor"/>
<path transform="translate(51.8829, 9.0456) scale(0.0040, -0.0040)" d="M212 138c59 0 113 -31 113 -95c0 -71 -52 -120 -99 -148c-34 -21 -73 -33 -113 -33c-59 0 -113 31 -113 95c0 71 53 120 100 148c34 21 72 33 112 33z" fill="currentColor"/>
<rect transform="translate(53.1081, 6.0456)" x="-0.0757" y="-2.1713" width="0.1514" height="5.0000" ry="0.0500" fill="currentColor"/>
<polygon transform="translate(53.1837, 3.9242)" stroke-linejoin="round" stroke-linecap="round" stroke-width="0.0757" fill="currentColor" stroke="currentColor" points="-0.0378 0.4468 1.0046 0.7855 1.0046 0.3151 -0.0378 -0.0236"/>
<path transform="translate(8.6829, 9.0456) scale(0.0040, -0.0040)" d="M212 138c59 0 113 -31 113 -95c0 -71 -52 -120 -99 -148c-34 -21 -73 -33 -113 -33c-59 0 -113 31 -113 95c0 71 53 120 100 148c34 21 72 33 112 33z" fill="currentColor"/>
<path transform="translate(0.8000, 7.0456) scale(0.0040, -0.0040)" d="M379 264c3 0 7 1 10 1c157 0 258 -129 258 -263c0 -77 -33 -155 -108 -211c-22 -16 -46 -29 -72 -37c3 -33 4 -66 4 -99c0 -21 0 -41 -1 -62c-7 -121 -91 -229 -211 -229c-108 0 -196 88 -196 197c0 58 54 103 113 103c54 0 95 -47 95 -103c0 -52 -43 -95 -95 -95
c-9 0 -18 1 -27 4c25 -37 66 -61 113 -61h4c92 2 152 93 158 191c1 19 2 38 2 57c0 29 -1 58 -3 87c-29 -5 -58 -8 -88 -8c-189 0 -333 173 -333 376c0 177 129 308 244 443c-20 62 -40 124 -48 189c-7 52 -7 105 -7 158c0 114 54 221 147 288c-2 7 22 1 25 -1
c72 -83 135 -243 135 -356c0 -142 -84 -255 -176 -364c21 -68 40 -136 57 -205zM463 -201c65 24 110 94 110 161c0 88 -64 175 -167 188c24 -114 44 -227 57 -349zM77 25c0 -133 128 -243 261 -243c27 0 55 1 81 5c-13 126 -35 244 -60 362c-79 -8 -124 -60 -124 -118
c0 -43 25 -88 80 -120c5 -5 7 -11 7 -17c0 -12 -10 -23 -23 -23c-3 0 -7 1 -10 2c-81 43 -118 115 -118 186c0 89 60 177 163 200c-14 57 -30 113 -47 169c-105 -122 -210 -243 -210 -403zM403 1038c-99 -46 -161 -145 -161 -254c0 -71 21 -130 39 -188
c78 97 142 199 142 324c0 51 -4 72 -20 118z" fill="currentColor"/>
<path transform="translate(5.0000, 6.0456) scale(0.0040, -0.0040)" d="M356 30c-48 0 -72 40 -72 72c0 37 26 75 70 75c3 0 6 -1 9 -1c-26 36 -67 59 -113 59c-107 0 -113 -74 -113 -189c0 -15 1 -30 1 -46s-1 -31 -1 -46c0 -115 6 -189 113 -189c78 0 133 70 151 149c2 8 8 11 14 11c7 0 15 -5 15 -14c0 -95 -103 -176 -180 -176
c-68 0 -137 20 -184 70c-49 52 -66 124 -66 195s17 143 66 195c47 50 116 70 184 70c86 0 156 -67 171 -153c1 -4 1 -9 1 -13c0 -38 -30 -69 -66 -69z" fill="currentColor"/>
<rect transform="translate(5.0000, 2.6920)" x="1.0407" y="-2.6727" width="0.1158" height="2.5285" ry="0.0193" fill="currentColor"/>
<path transform="translate(5.0000, 2.6920) scale(0.0036, -0.0036)" d="M208 139c61 0 117 -33 117 -99c0 -71 -52 -119 -99 -147c-34 -20 -71 -32 -110 -32c-61 0 -116 33 -116 99c0 71 51 119 98 147c34 20 71 32 110 32z" fill="currentColor"/>
<text transform="translate(6.1565, 3.1885)" font-family="serif" font-size="2.1999" text-anchor="start" fill="currentColor">
<tspan> = 60</tspan>
</text>
<rect transform="translate(9.9081, 6.0456)" x="-0.0757" y="-2.1713" width="0.1514" height="5.0000" ry="0.0500" fill="currentColor"/>
</svg>
