<svg xmlns="http://www.w3.org/2000/svg" xmlns:xlink="http://www.w3.org/1999/xlink" version="1.2" width="173.82mm" height="16.53mm" viewBox="0.0000 0.0193 109.9043 10.4523">
<style text="style/css">
<![CDATA[
tspan { white-space: pre; }
]]>
</style>
<g color="rgb(49.8039%, 49.8039%, 49.8039%)">
<line transform="translate(0.0000, 8.0374)" stroke-linejoin="round" stroke-linecap="round" stroke-width="0.1073" stroke="currentColor" x1="0.0537" y1="-0.0000" x2="109.8506" y2="-0.0000"/>
<line transform="translate(0.0000, 7.0374)" stroke-linejoin="round" stroke-linecap="round" stroke-width="0.1073" stroke="currentColor" x1="0.0537" y1="-0.0000" x2="109.8506" y2="-0.0000"/>
<line transform="translate(0.0000, 6.0374)" stroke-linejoin="round" stroke-linecap="round" stroke-width="0.1073" stroke="currentColor" x1="0.0537" y1="-0.0000" x2="109.8506" y2="-0.0000"/>
<line transform="translate(0.0000, 5.0374)" stroke-linejoin="round" stroke-linecap="round" stroke-width="0.1073" stroke="currentColor" x1="0.0537" y1="-0.0000" x2="109.8506" y2="-0.0000"/>
<line transform="translate(0.0000, 4.0374)" stroke-linejoin="round" stroke-linecap="round" stroke-width="0.1073" stroke="currentColor" x1="0.0537" y1="-0.0000" x2="109.8506" y2="-0.0000"/>
</g>
<rect transform="translate(59.3198, 6.0374)" x="0.0000" y="-2.0537" width="0.2039" height="4.1073" ry="0.0000" fill="currentColor"/>
<rect transform="translate(109.7004, 6.0374)" x="0.0000" y="-2.0537" width="0.2039" height="4.1073" ry="0.0000" fill="currentColor"/>
<rect transform="translate(0.0000, 9.0374)" x="73.5786" y="-0.1037" width="1.9542" height="0.2073" ry="0.1037" fill="currentColor"/>
<rect transform="translate(0.0000, 9.0374)" x="67.5786" y="-0.1037" width="1.9542" height="0.2073" ry="0.1037" fill="currentColor"/>
<rect transform="translate(0.0000, 9.0374)" x="64.6286" y="-0.1037" width="1.9042" height="0.2073" ry="0.1037" fill="currentColor"/>
<rect transform="translate(0.0000, 9.0374)" x="62.6244" y="-0.1037" width="1.9042" height="0.2073" ry="0.1037" fill="currentColor"/>
<rect transform="translate(0.0000, 9.0374)" x="25.1219" y="-0.1037" width="1.9542" height="0.2073" ry="0.1037" fill="currentColor"/>
<rect transform="translate(0.0000, 9.0374)" x="23.0719" y="-0.1037" width="1.9042" height="0.2073" ry="0.1037" fill="currentColor"/>
<rect transform="translate(0.0000, 9.0374)" x="21.0677" y="-0.1037" width="1.9042" height="0.2073" ry="0.1037" fill="currentColor"/>
<path transform="translate(25.4476, 9.0374) scale(0.0040, -0.0040)" d="M215 137c57 0 111 -29 111 -92c0 -71 -54 -120 -101 -148c-35 -21 -74 -34 -114 -34c-57 0 -111 29 -111 92c0 71 54 120 101 148c35 21 74 34 114 34z" fill="currentColor"/>
<rect transform="translate(26.6806, 6.0374)" x="-0.0697" y="-0.3213" width="0.1395" height="3.1420" ry="0.0444" fill="currentColor"/>
<path transform="translate(27.0504, 6.0374) scale(0.0040, -0.0040)" d="M69 -250l118 326c-33 -12 -68 -22 -103 -22c-46 0 -87 33 -87 79c0 40 33 72 73 72c25 0 49 -14 57 -38c10 -27 4 -59 33 -59c15 0 52 45 59 59c6 13 26 13 31 0l-121 -417c-9 -7 -19 -11 -30 -11s-21 4 -30 11z" fill="currentColor"/>
<path transform="translate(30.2170, 6.0374) scale(0.0040, -0.0040)" d="M69 -250l118 326c-33 -12 -68 -22 -103 -22c-46 0 -87 33 -87 79c0 40 33 72 73 72c25 0 49 -14 57 -38c10 -27 4 -59 33 -59c15 0 52 45 59 59c6 13 26 13 31 0l-121 -417c-9 -7 -19 -11 -30 -11s-21 4 -30 11z" fill="currentColor"/>
<path transform="translate(34.7170, 6.0374) scale(0.0040, -0.0040)" d="M-24 -117c0 29 13 42 43 42c31 0 74 -11 113 -27l-129 154c-7 9 -11 18 -11 26c0 34 51 66 88 100c24 22 37 52 37 82c0 25 -9 49 -26 69l-33 40c-3 4 -4 7 -4 11c0 9 9 17 18 17c4 0 8 -2 12 -6l150 -179c7 -9 11 -18 11 -26c0 -34 -51 -65 -88 -99
c-24 -22 -37 -53 -37 -83c0 -25 8 -49 25 -69l82 -97c3 -4 4 -7 4 -11c0 -9 -8 -17 -17 -17c-4 0 -9 2 -13 6c-17 20 -60 36 -93 36c-41 0 -54 -25 -54 -66c0 -34 10 -73 27 -93c7 -9 -5 -20 -12 -11c-45 53 -93 147 -93 201z" fill="currentColor"/>
<line transform="translate(20.5934, 2.4838)" stroke-linejoin="round" stroke-linecap="round" stroke-width="0.1717" stroke="currentColor" x1="3.5542" y1="-0.0000" x2="3.5542" y2="0.7000"/>
<line transform="translate(20.5934, 2.4838)" stroke-linejoin="round" stroke-linecap="round" stroke-width="0.1717" stroke="currentColor" x1="-0.2000" y1="-0.0000" x2="-0.2000" y2="0.7000"/>
<line transform="translate(20.5934, 2.4838)" stroke-linejoin="round" stroke-linecap="round" stroke-width="0.1717" stroke="currentColor" x1="3.5542" y1="-0.0000" x2="3.4342" y2="-0.0000"/>
<line transform="translate(20.5934, 2.4838)" stroke-linejoin="round" stroke-linecap="round" stroke-width="0.1717" stroke="currentColor" x1="-0.2000" y1="-0.0000" x2="0.1200" y2="-0.0000"/>
<path transform="translate(14.5934, 6.5374) scale(0.0040, -0.0040)" d="M215 137c57 0 111 -29 111 -92c0 -71 -54 -120 -101 -148c-35 -21 -74 -34 -114 -34c-57 0 -111 29 -111 92c0 71 54 120 101 148c35 21 74 34 114 34z" fill="currentColor"/>
<rect transform="translate(15.8264, 6.0374)" x="-0.0697" y="-3.0000" width="0.1395" height="3.3206" ry="0.0444" fill="currentColor"/>
<path transform="translate(15.8962, 3.0819) scale(0.0040, -0.0040)" d="M0 0c0 -197 207 -335 207 -532c0 -71 -15 -141 -41 -207c-5 -8 -13 -12 -21 -12c-14 0 -27 11 -24 28c26 60 42 125 42 191c0 103 -93 207 -163 282h-18v250h18z" fill="currentColor"/>
<path transform="translate(20.5934, 6.0374) scale(0.0040, -0.0040)" d="M51 -500l87 327c-35 -12 -70 -23 -107 -23c-46 0 -87 33 -87 79c0 40 33 72 73 72c25 0 49 -14 57 -38c10 -27 4 -59 33 -59c16 0 53 52 57 69l40 149c-34 -12 -68 -22 -104 -22c-46 0 -87 33 -87 79c0 40 33 72 73 72c25 0 48 -14 56 -38c10 -27 5 -59 34 -59
c16 0 50 51 54 67l40 151c-33 -12 -67 -22 -102 -22c-46 0 -87 33 -87 79c0 40 33 72 73 72c25 0 49 -14 57 -38c10 -27 5 -59 34 -59c14 0 43 46 49 59s26 13 31 0l-214 -917c-9 -7 -19 -11 -30 -11s-21 4 -30 11z" fill="currentColor"/>
<path transform="translate(21.3934, 9.0374) scale(0.0040, -0.0040)" d="M215 137c57 0 111 -29 111 -92c0 -71 -54 -120 -101 -148c-35 -21 -74 -34 -114 -34c-57 0 -111 29 -111 92c0 71 54 120 101 148c35 21 74 34 114 34z" fill="currentColor"/>
<rect transform="translate(22.6264, 6.0374)" x="-0.0697" y="-0.3213" width="0.1395" height="3.1420" ry="0.0444" fill="currentColor"/>
<path transform="translate(23.3476, 9.0374) scale(0.0040, -0.0040)" d="M215 137c57 0 111 -29 111 -92c0 -71 -54 -120 -101 -148c-35 -21 -74 -34 -114 -34c-57 0 -111 29 -111 92c0 71 54 120 101 148c35 21 74 34 114 34z" fill="currentColor"/>
<rect transform="translate(24.5806, 6.0374)" x="-0.0697" y="-0.3213" width="0.1395" height="3.1420" ry="0.0444" fill="currentColor"/>
<line transform="translate(46.7170, 1.7338)" stroke-linejoin="round" stroke-linecap="round" stroke-width="0.1717" stroke="currentColor" x1="11.8028" y1="-0.0000" x2="11.8028" y2="0.7000"/>
<line transform="translate(46.7170, 1.7338)" stroke-linejoin="round" stroke-linecap="round" stroke-width="0.1717" stroke="currentColor" x1="-0.2000" y1="-0.0000" x2="-0.2000" y2="0.7000"/>
<line transform="translate(46.7170, 1.7338)" stroke-linejoin="round" stroke-linecap="round" stroke-width="0.1717" stroke="currentColor" x1="11.8028" y1="-0.0000" x2="7.5585" y2="-0.0000"/>
<line transform="translate(46.7170, 1.7338)" stroke-linejoin="round" stroke-linecap="round" stroke-width="0.1717" stroke="currentColor" x1="-0.2000" y1="-0.0000" x2="4.2443" y2="-0.0000"/>
<path transform="translate(64.9043, 6.0374)" stroke-width="0.0858" stroke-linejoin="round" stroke-linecap="round" stroke="currentColor" fill="currentColor" d="M0.8514 3.7500C1.4423 4.4107 2.8605 4.4107 3.4514 3.7500L3.4514 3.7500C2.8605 4.2820 1.4423 4.2820 0.8514 3.7500z"/>
<path transform="translate(62.9501, 6.0374)" stroke-width="0.0858" stroke-linejoin="round" stroke-linecap="round" stroke="currentColor" fill="currentColor" d="M0.8514 3.7500C1.2523 4.2489 2.0047 4.2489 2.4056 3.7500L2.4056 3.7500C2.0047 4.1202 1.2523 4.1202 0.8514 3.7500z"/>
<polygon transform="translate(54.8803, 3.3588)" stroke-linejoin="round" stroke-linecap="round" stroke-width="0.0889" fill="currentColor" stroke="currentColor" points="1.6979 -0.3306 1.6979 0.3306 0.0444 0.3306 0.0444 -0.3306"/>
<polygon transform="translate(54.8803, 4.5643)" stroke-linejoin="round" stroke-linecap="round" stroke-width="0.0889" fill="currentColor" stroke="currentColor" points="1.1253 -0.3306 1.1253 0.3306 0.0444 0.3306 0.0444 -0.3306"/>
<polygon transform="translate(54.8803, 5.7697)" stroke-linejoin="round" stroke-linecap="round" stroke-width="0.0889" fill="currentColor" stroke="currentColor" points="1.1253 -0.3306 1.1253 0.3306 0.0444 0.3306 0.0444 -0.3306"/>
<path transform="translate(55.3198, 6.0374)" stroke-width="0.0858" stroke-linejoin="round" stroke-linecap="round" stroke="currentColor" fill="currentColor" d="M1.5028 2.0000C2.2113 2.7384 4.1954 2.7384 4.9039 2.0000L4.9039 2.0000C4.1954 2.6096 2.2113 2.6096 1.5028 2.0000z"/>
<path transform="translate(53.7170, 6.0374)" stroke-width="0.0858" stroke-linejoin="round" stroke-linecap="round" stroke="currentColor" fill="currentColor" d="M0.8514 2.5000C1.1764 2.9219 1.7292 2.9219 2.0542 2.5000L2.0542 2.5000C1.7292 2.7931 1.1764 2.7931 0.8514 2.5000z"/>
<text transform="translate(51.3614, 2.2839)" font-family="serif" font-style="italic" font-size="1.7462" text-anchor="start" fill="currentColor">
<tspan>3:2</tspan>
</text>
<path transform="translate(67.9043, 6.0374)" stroke-width="0.0858" stroke-linejoin="round" stroke-linecap="round" stroke="currentColor" fill="currentColor" d="M0.8514 3.7500C1.8006 4.6049 5.5023 4.6049 6.4514 3.7500L6.4514 3.7500C5.5023 4.4762 1.8006 4.4762 0.8514 3.7500z"/>
<polygon transform="translate(22.5567, 5.7161)" stroke-linejoin="round" stroke-linecap="round" stroke-width="0.0889" fill="currentColor" stroke="currentColor" points="4.1493 -0.3306 4.1493 0.3306 0.0444 0.3306 0.0444 -0.3306"/>
<polygon transform="translate(22.5567, 6.9216)" stroke-linejoin="round" stroke-linecap="round" stroke-width="0.0889" fill="currentColor" stroke="currentColor" points="4.1493 -0.3306 4.1493 0.3306 0.0444 0.3306 0.0444 -0.3306"/>
<text transform="translate(26.5069, 3.0339)" font-family="serif" font-style="italic" font-size="1.7462" text-anchor="start" fill="currentColor">
<tspan>3:2</tspan>
</text>
<line transform="translate(26.6109, 2.4838)" stroke-linejoin="round" stroke-linecap="round" stroke-width="0.1717" stroke="currentColor" x1="2.3062" y1="-0.0000" x2="2.3062" y2="0.7000"/>
<line transform="translate(26.6109, 2.4838)" stroke-linejoin="round" stroke-linecap="round" stroke-width="0.1717" stroke="currentColor" x1="-0.2000" y1="-0.0000" x2="-0.2000" y2="0.7000"/>
<line transform="translate(26.6109, 2.4838)" stroke-linejoin="round" stroke-linecap="round" stroke-width="0.1717" stroke="currentColor" x1="2.3062" y1="-0.0000" x2="2.8102" y2="-0.0000"/>
<line transform="translate(26.6109, 2.4838)" stroke-linejoin="round" stroke-linecap="round" stroke-width="0.1717" stroke="currentColor" x1="-0.2000" y1="-0.0000" x2="-0.5040" y2="-0.0000"/>
<path transform="translate(23.3476, 6.0374)" stroke-width="0.0858" stroke-linejoin="round" stroke-linecap="round" stroke="currentColor" fill="currentColor" d="M0.8514 3.7500C1.2818 4.2771 2.1210 4.2771 2.5514 3.7500L2.5514 3.7500C2.1210 4.1483 1.2818 4.1483 0.8514 3.7500z"/>
<path transform="translate(21.3934, 6.0374)" stroke-width="0.0858" stroke-linejoin="round" stroke-linecap="round" stroke="currentColor" fill="currentColor" d="M0.8514 3.7500C1.2523 4.2489 2.0047 4.2489 2.4056 3.7500L2.4056 3.7500C2.0047 4.1202 1.2523 4.1202 0.8514 3.7500z"/>
<text transform="translate(25.7481, 1.1958)" font-family="serif" font-style="italic" font-size="1.7462" text-anchor="start" fill="currentColor">
<tspan>3:2</tspan>
</text>
<line transform="translate(20.5934, 0.6458)" stroke-linejoin="round" stroke-linecap="round" stroke-width="0.1717" stroke="currentColor" x1="12.8237" y1="-0.0000" x2="12.8237" y2="0.7000"/>
<line transform="translate(20.5934, 0.6458)" stroke-linejoin="round" stroke-linecap="round" stroke-width="0.1717" stroke="currentColor" x1="-0.2000" y1="-0.0000" x2="-0.2000" y2="0.7000"/>
<line transform="translate(20.5934, 0.6458)" stroke-linejoin="round" stroke-linecap="round" stroke-width="0.1717" stroke="currentColor" x1="12.8237" y1="-0.0000" x2="8.0689" y2="-0.0000"/>
<line transform="translate(20.5934, 0.6458)" stroke-linejoin="round" stroke-linecap="round" stroke-width="0.1717" stroke="currentColor" x1="-0.2000" y1="-0.0000" x2="4.7548" y2="-0.0000"/>
<text transform="translate(21.1134, 3.0339)" font-family="serif" font-style="italic" font-size="1.7462" text-anchor="start" fill="currentColor">
<tspan>5:4</tspan>
</text>
<path transform="translate(46.7170, 6.0374) scale(0.0040, -0.0040)" d="M69 -250l118 326c-33 -12 -68 -22 -103 -22c-46 0 -87 33 -87 79c0 40 33 72 73 72c25 0 49 -14 57 -38c10 -27 4 -59 33 -59c15 0 52 45 59 59c6 13 26 13 31 0l-121 -417c-9 -7 -19 -11 -30 -11s-21 4 -30 11z" fill="currentColor"/>
<path transform="translate(50.7170, 6.0374) scale(0.0040, -0.0040)" d="M64 -500l100 326c-33 -12 -67 -22 -103 -22c-46 0 -87 33 -87 79c0 40 33 72 73 72c25 0 48 -14 56 -38c10 -27 5 -59 34 -59c16 0 53 51 58 67l46 151c-33 -12 -67 -22 -102 -22c-46 0 -87 33 -87 79c0 40 33 72 73 72c25 0 48 -14 56 -38c10 -27 5 -59 34 -59
c14 0 48 45 54 59c6 13 26 13 31 0l-177 -667c-9 -7 -19 -11 -30 -11s-20 4 -29 11z" fill="currentColor"/>
<path transform="translate(52.3630, 5.5374) scale(0.0040, -0.0040)" d="M0 0c0 31 25 56 56 56s55 -25 55 -56s-24 -56 -55 -56s-56 25 -56 56z" fill="currentColor"/>
<path transform="translate(53.7170, 7.5374) scale(0.0040, -0.0040)" d="M215 137c57 0 111 -29 111 -92c0 -71 -54 -120 -101 -148c-35 -21 -74 -34 -114 -34c-57 0 -111 29 -111 92c0 71 54 120 101 148c35 21 74 34 114 34z" fill="currentColor"/>
<rect transform="translate(54.9501, 6.0374)" x="-0.0697" y="-2.6787" width="0.1395" height="3.9993" ry="0.0444" fill="currentColor"/>
<polygon transform="translate(61.5870, 1.7161)" stroke-linejoin="round" stroke-linecap="round" stroke-width="0.0889" fill="currentColor" stroke="currentColor" points="7.5756 0.3121 7.5756 0.9733 0.0444 0.3306 0.0444 -0.3306"/>
<polygon transform="translate(61.5870, 3.0197)" stroke-linejoin="round" stroke-linecap="round" stroke-width="0.0889" fill="currentColor" stroke="currentColor" points="4.5756 0.0591 4.5756 0.7202 0.0444 0.3306 0.0444 -0.3306"/>
<polygon transform="translate(61.5870, 4.3234)" stroke-linejoin="round" stroke-linecap="round" stroke-width="0.0889" fill="currentColor" stroke="currentColor" points="2.6214 -0.1057 2.6214 0.5554 0.0444 0.3306 0.0444 -0.3306"/>
<polygon transform="translate(63.0831, 5.7532)" stroke-linejoin="round" stroke-linecap="round" stroke-width="0.0889" fill="currentColor" stroke="currentColor" points="1.1253 -0.2319 1.1253 0.4292 0.0444 0.3306 0.0444 -0.3306"/>
<path transform="translate(60.4237, 7.5374) scale(0.0040, -0.0040)" d="M215 137c57 0 111 -29 111 -92c0 -71 -54 -120 -101 -148c-35 -21 -74 -34 -114 -34c-57 0 -111 29 -111 92c0 71 54 120 101 148c35 21 74 34 114 34z" fill="currentColor"/>
<path transform="translate(62.1725, 7.5374) scale(0.0040, -0.0040)" d="M0 0c0 31 25 56 56 56s55 -25 55 -56s-24 -56 -55 -56s-56 25 -56 56z" fill="currentColor"/>
<rect transform="translate(61.6568, 6.0374)" x="-0.0697" y="-4.3155" width="0.1395" height="5.6361" ry="0.0444" fill="currentColor"/>
<path transform="translate(62.9501, 9.0374) scale(0.0040, -0.0040)" d="M215 137c57 0 111 -29 111 -92c0 -71 -54 -120 -101 -148c-35 -21 -74 -34 -114 -34c-57 0 -111 29 -111 92c0 71 54 120 101 148c35 21 74 34 114 34z" fill="currentColor"/>
<rect transform="translate(64.1831, 6.0374)" x="-0.0697" y="-4.1024" width="0.1395" height="6.9230" ry="0.0444" fill="currentColor"/>
<path transform="translate(8.5934, 6.0374) scale(0.0040, -0.0040)" d="M69 -250l118 326c-33 -12 -68 -22 -103 -22c-46 0 -87 33 -87 79c0 40 33 72 73 72c25 0 49 -14 57 -38c10 -27 4 -59 33 -59c15 0 52 45 59 59c6 13 26 13 31 0l-121 -417c-9 -7 -19 -11 -30 -11s-21 4 -30 11z" fill="currentColor"/>
<path transform="translate(0.8000, 7.0374) scale(0.0040, -0.0040)" d="M378 263c4 0 7 1 11 1c156 0 257 -129 257 -262c0 -76 -34 -154 -108 -210c-22 -17 -46 -29 -72 -37c3 -34 4 -68 4 -102c0 -20 0 -40 -1 -60c-7 -121 -90 -228 -209 -228c-108 0 -196 87 -196 196c0 58 53 104 112 104c54 0 95 -48 95 -104c0 -52 -43 -95 -95 -95
c-10 0 -20 2 -29 6c26 -38 68 -63 116 -63h3c93 2 153 92 159 190c1 19 2 37 2 56c0 30 -2 60 -4 90c-29 -5 -58 -8 -88 -8c-188 0 -333 173 -333 375c0 177 130 307 246 442c-20 62 -38 125 -46 190c-6 52 -7 104 -7 157c0 115 55 223 148 290c7 5 16 4 22 -1
c71 -83 134 -244 134 -357c0 -143 -85 -255 -178 -364c21 -68 40 -137 57 -206zM462 -202c67 24 111 94 111 162c0 89 -65 178 -170 190c24 -115 46 -230 59 -352zM75 26c0 -134 129 -245 263 -245c28 0 55 2 81 6c-14 126 -36 244 -61 363c-79 -8 -124 -61 -124 -119
c0 -43 25 -89 80 -121c5 -5 7 -11 7 -16c0 -12 -10 -23 -22 -23c-3 0 -6 1 -9 2c-81 43 -118 116 -118 186c0 89 58 175 161 198c-14 58 -29 116 -46 173c-106 -122 -212 -244 -212 -404zM244 785c0 -73 20 -132 38 -191c79 97 144 199 144 324c0 53 -4 76 -20 124
c-99 -47 -162 -148 -162 -257z" fill="currentColor"/>
<path transform="translate(5.0000, 6.0374) scale(0.0040, -0.0040)" d="M194 120h120c0 -49 29 -95 75 -95c8 0 12 -7 12 -13s-4 -12 -12 -12c-45 0 -90 13 -135 13s-90 -13 -135 -13c-8 0 -12 6 -12 12s4 13 12 13c46 0 75 46 75 95zM203 301c22 15 45 30 61 51c12 15 19 34 27 51c2 4 5 6 9 6c6 0 14 -6 14 -15v-238h74c10 0 16 -8 16 -16
s-6 -15 -16 -15h-74v-5h-120v5h-163c-24 0 -33 15 -33 24c0 3 1 6 2 7c80 92 134 205 134 327c0 11 8 20 17 17c24 -7 48 -13 73 -13s48 6 72 13c2 1 4 1 6 1c9 0 14 -7 14 -13c0 -2 0 -3 -2 -5l-283 -327h163v122c0 9 2 18 9 23z" fill="currentColor"/>
<path transform="translate(5.0000, 8.1240) scale(0.0040, -0.0040)" d="M194 120h120c0 -49 29 -95 75 -95c8 0 12 -7 12 -13s-4 -12 -12 -12c-45 0 -90 13 -135 13s-90 -13 -135 -13c-8 0 -12 6 -12 12s4 13 12 13c46 0 75 46 75 95zM203 301c22 15 45 30 61 51c12 15 19 34 27 51c2 4 5 6 9 6c6 0 14 -6 14 -15v-238h74c10 0 16 -8 16 -16
s-6 -15 -16 -15h-74v-5h-120v5h-163c-24 0 -33 15 -33 24c0 3 1 6 2 7c80 92 134 205 134 327c0 11 8 20 17 17c24 -7 48 -13 73 -13s48 6 72 13c2 1 4 1 6 1c9 0 14 -7 14 -13c0 -2 0 -3 -2 -5l-283 -327h163v122c0 9 2 18 9 23z" fill="currentColor"/>
<rect transform="translate(5.0000, 2.6920)" x="1.0431" y="-2.6727" width="0.1158" height="2.5201" ry="0.0193" fill="currentColor"/>
<path transform="translate(5.0000, 2.6920) scale(0.0036, -0.0036)" d="M212 138c59 0 113 -31 113 -95c0 -71 -52 -120 -99 -148c-34 -21 -73 -33 -113 -33c-59 0 -113 31 -113 95c0 71 53 120 100 148c34 21 72 33 112 33z" fill="currentColor"/>
<text transform="translate(6.1589, 3.1844)" font-family="serif" font-size="2.2000" text-anchor="start" fill="currentColor">
<tspan> = 60</tspan>
</text>
<path transform="translate(55.3198, 7.5374) scale(0.0040, -0.0040)" d="M215 137c57 0 111 -29 111 -92c0 -71 -54 -120 -101 -148c-35 -21 -74 -34 -114 -34c-57 0 -111 29 -111 92c0 71 54 120 101 148c35 21 74 34 114 34z" fill="currentColor"/>
<rect transform="translate(56.5529, 6.0374)" x="-0.0697" y="-2.6787" width="0.1395" height="3.9993" ry="0.0444" fill="currentColor"/>
<path transform="translate(67.9043, 9.0374) scale(0.0040, -0.0040)" d="M215 137c57 0 111 -29 111 -92c0 -71 -54 -120 -101 -148c-35 -21 -74 -34 -114 -34c-57 0 -111 29 -111 92c0 71 54 120 101 148c35 21 74 34 114 34z" fill="currentColor"/>
<rect transform="translate(69.1374, 6.0374)" x="-0.0697" y="-3.6845" width="0.1395" height="6.5052" ry="0.0444" fill="currentColor"/>
<path transform="translate(73.9043, 9.0374) scale(0.0040, -0.0040)" d="M215 137c57 0 111 -29 111 -92c0 -71 -54 -120 -101 -148c-35 -21 -74 -34 -114 -34c-57 0 -111 29 -111 92c0 71 54 120 101 148c35 21 74 34 114 34z" fill="currentColor"/>
<rect transform="translate(75.1374, 6.0374)" x="-0.0697" y="-0.5000" width="0.1395" height="3.3206" ry="0.0444" fill="currentColor"/>
<path transform="translate(85.9043, 6.0374) scale(0.0040, -0.0040)" d="M364 0h-353c-6 0 -11 5 -11 11v134c0 6 5 11 11 11h353c6 0 11 -5 11 -11v-134c0 -6 -5 -11 -11 -11z" fill="currentColor"/>
<path transform="translate(64.9043, 9.0374) scale(0.0040, -0.0040)" d="M215 137c57 0 111 -29 111 -92c0 -71 -54 -120 -101 -148c-35 -21 -74 -34 -114 -34c-57 0 -111 29 -111 92c0 71 54 120 101 148c35 21 74 34 114 34z" fill="currentColor"/>
<rect transform="translate(66.1374, 6.0374)" x="-0.0697" y="-3.9376" width="0.1395" height="6.7582" ry="0.0444" fill="currentColor"/>
</svg>
