<svg xmlns="http://www.w3.org/2000/svg" xmlns:xlink="http://www.w3.org/1999/xlink" version="1.2" width="210.00mm" height="297.00mm" viewBox="0 0 132.7795 187.7882">
<style text="style/css">
<![CDATA[
tspan { white-space: pre; }
]]>
</style>
<!-- Page: 1/1 -->
<g color="rgb(49.8039%, 49.8039%, 49.8039%)">
<line transform="translate(16.0600, 12.8911)" stroke-linejoin="round" stroke-linecap="round" stroke-width="0.1073" stroke="currentColor" x1="0.0537" y1="-0.0000" x2="59.7148" y2="-0.0000"/>
<line transform="translate(16.0600, 11.8911)" stroke-linejoin="round" stroke-linecap="round" stroke-width="0.1073" stroke="currentColor" x1="0.0537" y1="-0.0000" x2="59.7148" y2="-0.0000"/>
<line transform="translate(16.0600, 10.8911)" stroke-linejoin="round" stroke-linecap="round" stroke-width="0.1073" stroke="currentColor" x1="0.0537" y1="-0.0000" x2="59.7148" y2="-0.0000"/>
<line transform="translate(16.0600, 9.8911)" stroke-linejoin="round" stroke-linecap="round" stroke-width="0.1073" stroke="currentColor" x1="0.0537" y1="-0.0000" x2="59.7148" y2="-0.0000"/>
<line transform="translate(16.0600, 8.8911)" stroke-linejoin="round" stroke-linecap="round" stroke-width="0.1073" stroke="currentColor" x1="0.0537" y1="-0.0000" x2="59.7148" y2="-0.0000"/>
</g>
<rect transform="translate(75.6246, 10.8911)" x="0.0000" y="-2.0537" width="0.2039" height="4.1073" ry="0.0000" fill="currentColor"/>
<rect transform="translate(71.8982, 10.8911)" x="-0.0697" y="0.1794" width="0.1395" height="4.1420" ry="0.0444" fill="currentColor"/>
<path transform="translate(67.2256, 10.8911) scale(0.0040, -0.0040)" d="M64 -500l100 326c-33 -12 -67 -22 -103 -22c-46 0 -87 33 -87 79c0 40 33 72 73 72c25 0 48 -14 56 -38c10 -27 5 -59 34 -59c16 0 53 51 58 67l46 151c-33 -12 -67 -22 -102 -22c-46 0 -87 33 -87 79c0 40 33 72 73 72c25 0 48 -14 56 -38c10 -27 5 -59 34 -59
c14 0 48 45 54 59c6 13 26 13 31 0l-177 -667c-9 -7 -19 -11 -30 -11s-20 4 -29 11z" fill="currentColor"/>
<path transform="translate(71.8284, 10.8911) scale(0.0040, -0.0040)" d="M215 137c57 0 111 -29 111 -92c0 -71 -54 -120 -101 -148c-35 -21 -74 -34 -114 -34c-57 0 -111 29 -111 92c0 71 54 120 101 148c35 21 74 34 114 34z" fill="currentColor"/>
<rect transform="translate(70.2954, 10.8911)" x="-0.0697" y="0.1794" width="0.1395" height="4.1420" ry="0.0444" fill="currentColor"/>
<path transform="translate(70.2256, 10.8911) scale(0.0040, -0.0040)" d="M215 137c57 0 111 -29 111 -92c0 -71 -54 -120 -101 -148c-35 -21 -74 -34 -114 -34c-57 0 -111 29 -111 92c0 71 54 120 101 148c35 21 74 34 114 34z" fill="currentColor"/>
<path transform="translate(68.8716, 10.3911) scale(0.0040, -0.0040)" d="M0 0c0 31 25 56 56 56s55 -25 55 -56s-24 -56 -55 -56s-56 25 -56 56z" fill="currentColor"/>
<line transform="translate(36.6534, 6.5875)" stroke-linejoin="round" stroke-linecap="round" stroke-width="0.1717" stroke="currentColor" x1="4.0028" y1="-0.0000" x2="4.0028" y2="0.7000"/>
<line transform="translate(36.6534, 6.5875)" stroke-linejoin="round" stroke-linecap="round" stroke-width="0.1717" stroke="currentColor" x1="-0.2000" y1="-0.0000" x2="-0.2000" y2="0.7000"/>
<line transform="translate(36.6534, 6.5875)" stroke-linejoin="round" stroke-linecap="round" stroke-width="0.1717" stroke="currentColor" x1="4.0028" y1="-0.0000" x2="3.6585" y2="-0.0000"/>
<line transform="translate(36.6534, 6.5875)" stroke-linejoin="round" stroke-linecap="round" stroke-width="0.1717" stroke="currentColor" x1="-0.2000" y1="-0.0000" x2="0.3443" y2="-0.0000"/>
<rect transform="translate(39.4864, 10.8911)" x="-0.0697" y="-2.6787" width="0.1395" height="2.9993" ry="0.0444" fill="currentColor"/>
<text transform="translate(37.3977, 7.1376)" font-family="serif" font-style="italic" font-size="1.7462" text-anchor="start" fill="currentColor">
<tspan>5:4</tspan>
</text>
<line transform="translate(36.6534, 4.7494)" stroke-linejoin="round" stroke-linecap="round" stroke-width="0.1717" stroke="currentColor" x1="13.2723" y1="-0.0000" x2="13.2723" y2="0.7000"/>
<line transform="translate(36.6534, 4.7494)" stroke-linejoin="round" stroke-linecap="round" stroke-width="0.1717" stroke="currentColor" x1="-0.2000" y1="-0.0000" x2="-0.2000" y2="0.7000"/>
<line transform="translate(36.6534, 4.7494)" stroke-linejoin="round" stroke-linecap="round" stroke-width="0.1717" stroke="currentColor" x1="13.2723" y1="-0.0000" x2="8.2932" y2="-0.0000"/>
<line transform="translate(36.6534, 4.7494)" stroke-linejoin="round" stroke-linecap="round" stroke-width="0.1717" stroke="currentColor" x1="-0.2000" y1="-0.0000" x2="4.9791" y2="-0.0000"/>
<text transform="translate(42.0324, 5.2995)" font-family="serif" font-style="italic" font-size="1.7462" text-anchor="start" fill="currentColor">
<tspan>3:2</tspan>
</text>
<path transform="translate(38.2534, 10.8911)" stroke-width="0.0858" stroke-linejoin="round" stroke-linecap="round" stroke="currentColor" fill="currentColor" d="M0.8514 1.2250C1.1764 1.6469 1.7292 1.6469 2.0542 1.2250L2.0542 1.2250C1.7292 1.5181 1.1764 1.5181 0.8514 1.2250z"/>
<path transform="translate(39.8562, 10.8911)" stroke-width="0.0858" stroke-linejoin="round" stroke-linecap="round" stroke="currentColor" fill="currentColor" d="M0.8514 1.2250C1.2818 1.7521 2.1210 1.7521 2.5514 1.2250L2.5514 1.2250C2.1210 1.6233 1.2818 1.6233 0.8514 1.2250z"/>
<line transform="translate(43.1195, 6.5875)" stroke-linejoin="round" stroke-linecap="round" stroke-width="0.1717" stroke="currentColor" x1="2.3062" y1="-0.0000" x2="2.3062" y2="0.7000"/>
<line transform="translate(43.1195, 6.5875)" stroke-linejoin="round" stroke-linecap="round" stroke-width="0.1717" stroke="currentColor" x1="-0.2000" y1="-0.0000" x2="-0.2000" y2="0.7000"/>
<line transform="translate(43.1195, 6.5875)" stroke-linejoin="round" stroke-linecap="round" stroke-width="0.1717" stroke="currentColor" x1="2.3062" y1="-0.0000" x2="2.8102" y2="-0.0000"/>
<line transform="translate(43.1195, 6.5875)" stroke-linejoin="round" stroke-linecap="round" stroke-width="0.1717" stroke="currentColor" x1="-0.2000" y1="-0.0000" x2="-0.5040" y2="-0.0000"/>
<text transform="translate(43.0155, 7.1376)" font-family="serif" font-style="italic" font-size="1.7462" text-anchor="start" fill="currentColor">
<tspan>3:2</tspan>
</text>
<polygon transform="translate(39.4167, 8.2125)" stroke-linejoin="round" stroke-linecap="round" stroke-width="0.0889" fill="currentColor" stroke="currentColor" points="3.7979 -0.3306 3.7979 0.3306 0.0444 0.3306 0.0444 -0.3306"/>
<polygon transform="translate(39.4167, 9.4179)" stroke-linejoin="round" stroke-linecap="round" stroke-width="0.0889" fill="currentColor" stroke="currentColor" points="3.7979 -0.3306 3.7979 0.3306 0.0444 0.3306 0.0444 -0.3306"/>
<path transform="translate(70.2256, 10.8911)" stroke-width="0.0858" stroke-linejoin="round" stroke-linecap="round" stroke="currentColor" fill="currentColor" d="M0.8514 -1.2250C1.1764 -1.6469 1.7292 -1.6469 2.0542 -1.2250L2.0542 -1.2250C1.7292 -1.5181 1.1764 -1.5181 0.8514 -1.2250z"/>
<polygon transform="translate(70.2256, 12.8015)" stroke-linejoin="round" stroke-linecap="round" stroke-width="0.0889" fill="currentColor" stroke="currentColor" points="1.1253 -0.3306 1.1253 0.3306 0.0444 0.3306 0.0444 -0.3306"/>
<polygon transform="translate(70.2256, 14.0070)" stroke-linejoin="round" stroke-linecap="round" stroke-width="0.0889" fill="currentColor" stroke="currentColor" points="1.1253 -0.3306 1.1253 0.3306 0.0444 0.3306 0.0444 -0.3306"/>
<polygon transform="translate(70.2256, 15.2125)" stroke-linejoin="round" stroke-linecap="round" stroke-width="0.0889" fill="currentColor" stroke="currentColor" points="1.6979 -0.3306 1.6979 0.3306 0.0444 0.3306 0.0444 -0.3306"/>
<path transform="translate(30.6534, 10.8911) scale(0.0040, -0.0040)" d="M215 137c57 0 111 -29 111 -92c0 -71 -54 -120 -101 -148c-35 -21 -74 -34 -114 -34c-57 0 -111 29 -111 92c0 71 54 120 101 148c35 21 74 34 114 34z" fill="currentColor"/>
<path transform="translate(38.2534, 11.3911) scale(0.0040, -0.0040)" d="M215 137c57 0 111 -29 111 -92c0 -71 -54 -120 -101 -148c-35 -21 -74 -34 -114 -34c-57 0 -111 29 -111 92c0 71 54 120 101 148c35 21 74 34 114 34z" fill="currentColor"/>
<path transform="translate(36.6534, 10.8911) scale(0.0040, -0.0040)" d="M51 -500l87 327c-35 -12 -70 -23 -107 -23c-46 0 -87 33 -87 79c0 40 33 72 73 72c25 0 49 -14 57 -38c10 -27 4 -59 33 -59c16 0 53 52 57 69l40 149c-34 -12 -68 -22 -104 -22c-46 0 -87 33 -87 79c0 40 33 72 73 72c25 0 48 -14 56 -38c10 -27 5 -59 34 -59
c16 0 50 51 54 67l40 151c-33 -12 -67 -22 -102 -22c-46 0 -87 33 -87 79c0 40 33 72 73 72c25 0 49 -14 57 -38c10 -27 5 -59 34 -59c14 0 43 46 49 59s26 13 31 0l-214 -917c-9 -7 -19 -11 -30 -11s-21 4 -30 11z" fill="currentColor"/>
<path transform="translate(24.6534, 10.8911) scale(0.0040, -0.0040)" d="M69 -250l118 326c-33 -12 -68 -22 -103 -22c-46 0 -87 33 -87 79c0 40 33 72 73 72c25 0 49 -14 57 -38c10 -27 4 -59 33 -59c15 0 52 45 59 59c6 13 26 13 31 0l-121 -417c-9 -7 -19 -11 -30 -11s-21 4 -30 11z" fill="currentColor"/>
<path transform="translate(29.5034, 10.8911) scale(0.0040, -0.0040)" d="M29 39l-2 -64v-11c0 -22 2 -43 5 -65c44 38 91 80 91 138c0 33 -13 66 -42 66c-31 0 -51 -31 -52 -64zM-28 454c9 5 18 8 28 8s19 -3 28 -8l-7 -343c25 23 58 36 92 36c51 0 87 -49 87 -103c0 -79 -84 -117 -144 -169c-16 -14 -25 -41 -47 -41c-14 0 -25 13 -25 27z" fill="currentColor"/>
<path transform="translate(30.7928, 14.2217) scale(0.0040, -0.0040)" d="M0 0h-18v250h18v-250zM0 0v250c96 59 222 149 222 259c0 57 -15 111 -40 162c-3 17 10 29 24 29c8 0 16 -5 21 -13c25 -56 40 -116 40 -178c0 -203 -267 -306 -267 -509z" fill="currentColor"/>
<rect transform="translate(30.7231, 10.8911)" x="-0.0697" y="0.1794" width="0.1395" height="3.1956" ry="0.0444" fill="currentColor"/>
<path transform="translate(43.5590, 10.8911) scale(0.0040, -0.0040)" d="M69 -250l118 326c-33 -12 -68 -22 -103 -22c-46 0 -87 33 -87 79c0 40 33 72 73 72c25 0 49 -14 57 -38c10 -27 4 -59 33 -59c15 0 52 45 59 59c6 13 26 13 31 0l-121 -417c-9 -7 -19 -11 -30 -11s-21 4 -30 11z" fill="currentColor"/>
<rect transform="translate(21.0600, 7.5457)" x="1.0431" y="-2.6727" width="0.1158" height="2.5201" ry="0.0193" fill="currentColor"/>
<path transform="translate(21.0600, 7.5457) scale(0.0036, -0.0036)" d="M212 138c59 0 113 -31 113 -95c0 -71 -52 -120 -99 -148c-34 -21 -73 -33 -113 -33c-59 0 -113 31 -113 95c0 71 53 120 100 148c34 21 72 33 112 33z" fill="currentColor"/>
<text transform="translate(22.2189, 8.0381)" font-family="serif" font-size="2.2000" text-anchor="start" fill="currentColor">
<tspan> = 60</tspan>
</text>
<rect transform="translate(43.1892, 10.8911)" x="-0.0697" y="-2.6787" width="0.1395" height="2.9993" ry="0.0444" fill="currentColor"/>
<path transform="translate(41.9562, 11.3911) scale(0.0040, -0.0040)" d="M215 137c57 0 111 -29 111 -92c0 -71 -54 -120 -101 -148c-35 -21 -74 -34 -114 -34c-57 0 -111 29 -111 92c0 71 54 120 101 148c35 21 74 34 114 34z" fill="currentColor"/>
<rect transform="translate(41.0892, 10.8911)" x="-0.0697" y="-2.6787" width="0.1395" height="2.9993" ry="0.0444" fill="currentColor"/>
<path transform="translate(39.8562, 11.3911) scale(0.0040, -0.0040)" d="M215 137c57 0 111 -29 111 -92c0 -71 -54 -120 -101 -148c-35 -21 -74 -34 -114 -34c-57 0 -111 29 -111 92c0 71 54 120 101 148c35 21 74 34 114 34z" fill="currentColor"/>
<path transform="translate(21.0600, 10.8911) scale(0.0040, -0.0040)" d="M194 120h120c0 -49 29 -95 75 -95c8 0 12 -7 12 -13s-4 -12 -12 -12c-45 0 -90 13 -135 13s-90 -13 -135 -13c-8 0 -12 6 -12 12s4 13 12 13c46 0 75 46 75 95zM203 301c22 15 45 30 61 51c12 15 19 34 27 51c2 4 5 6 9 6c6 0 14 -6 14 -15v-238h74c10 0 16 -8 16 -16
s-6 -15 -16 -15h-74v-5h-120v5h-163c-24 0 -33 15 -33 24c0 3 1 6 2 7c80 92 134 205 134 327c0 11 8 20 17 17c24 -7 48 -13 73 -13s48 6 72 13c2 1 4 1 6 1c9 0 14 -7 14 -13c0 -2 0 -3 -2 -5l-283 -327h163v122c0 9 2 18 9 23z" fill="currentColor"/>
<path transform="translate(21.0600, 12.9777) scale(0.0040, -0.0040)" d="M194 120h120c0 -49 29 -95 75 -95c8 0 12 -7 12 -13s-4 -12 -12 -12c-45 0 -90 13 -135 13s-90 -13 -135 -13c-8 0 -12 6 -12 12s4 13 12 13c46 0 75 46 75 95zM203 301c22 15 45 30 61 51c12 15 19 34 27 51c2 4 5 6 9 6c6 0 14 -6 14 -15v-238h74c10 0 16 -8 16 -16
s-6 -15 -16 -15h-74v-5h-120v5h-163c-24 0 -33 15 -33 24c0 3 1 6 2 7c80 92 134 205 134 327c0 11 8 20 17 17c24 -7 48 -13 73 -13s48 6 72 13c2 1 4 1 6 1c9 0 14 -7 14 -13c0 -2 0 -3 -2 -5l-283 -327h163v122c0 9 2 18 9 23z" fill="currentColor"/>
<path transform="translate(71.8284, 10.8911)" stroke-width="0.0858" stroke-linejoin="round" stroke-linecap="round" stroke="currentColor" fill="currentColor" d="M1.5028 -0.2812C2.0076 -0.8744 3.0913 -0.8744 3.5961 -0.2812L3.5961 -0.2812C3.0913 -0.7456 2.0076 -0.7456 1.5028 -0.2812z"/>
<text transform="translate(68.5180, 17.3876)" font-family="serif" font-style="italic" font-size="1.7462" text-anchor="start" fill="currentColor">
<tspan>3:2</tspan>
</text>
<line transform="translate(63.7256, 16.8375)" stroke-linejoin="round" stroke-linecap="round" stroke-width="0.1717" stroke="currentColor" x1="12.0989" y1="-0.0000" x2="12.0989" y2="-0.7000"/>
<line transform="translate(63.7256, 16.8375)" stroke-linejoin="round" stroke-linecap="round" stroke-width="0.1717" stroke="currentColor" x1="-0.2000" y1="-0.0000" x2="-0.2000" y2="-0.7000"/>
<line transform="translate(63.7256, 16.8375)" stroke-linejoin="round" stroke-linecap="round" stroke-width="0.1717" stroke="currentColor" x1="12.0989" y1="-0.0000" x2="7.7065" y2="-0.0000"/>
<line transform="translate(63.7256, 16.8375)" stroke-linejoin="round" stroke-linecap="round" stroke-width="0.1717" stroke="currentColor" x1="-0.2000" y1="-0.0000" x2="4.3924" y2="-0.0000"/>
<path transform="translate(51.2256, 10.8911) scale(0.0040, -0.0040)" d="M-24 -117c0 29 13 42 43 42c31 0 74 -11 113 -27l-129 154c-7 9 -11 18 -11 26c0 34 51 66 88 100c24 22 37 52 37 82c0 25 -9 49 -26 69l-33 40c-3 4 -4 7 -4 11c0 9 9 17 18 17c4 0 8 -2 12 -6l150 -179c7 -9 11 -18 11 -26c0 -34 -51 -65 -88 -99
c-24 -22 -37 -53 -37 -83c0 -25 8 -49 25 -69l82 -97c3 -4 4 -7 4 -11c0 -9 -8 -17 -17 -17c-4 0 -9 2 -13 6c-17 20 -60 36 -93 36c-41 0 -54 -25 -54 -66c0 -34 10 -73 27 -93c7 -9 -5 -20 -12 -11c-45 53 -93 147 -93 201z" fill="currentColor"/>
<path transform="translate(63.2256, 10.8911) scale(0.0040, -0.0040)" d="M69 -250l118 326c-33 -12 -68 -22 -103 -22c-46 0 -87 33 -87 79c0 40 33 72 73 72c25 0 49 -14 57 -38c10 -27 4 -59 33 -59c15 0 52 45 59 59c6 13 26 13 31 0l-121 -417c-9 -7 -19 -11 -30 -11s-21 4 -30 11z" fill="currentColor"/>
<path transform="translate(46.7256, 10.8911) scale(0.0040, -0.0040)" d="M69 -250l118 326c-33 -12 -68 -22 -103 -22c-46 0 -87 33 -87 79c0 40 33 72 73 72c25 0 49 -14 57 -38c10 -27 4 -59 33 -59c15 0 52 45 59 59c6 13 26 13 31 0l-121 -417c-9 -7 -19 -11 -30 -11s-21 4 -30 11z" fill="currentColor"/>
<path transform="translate(16.8600, 11.8911) scale(0.0040, -0.0040)" d="M378 263c4 0 7 1 11 1c156 0 257 -129 257 -262c0 -76 -34 -154 -108 -210c-22 -17 -46 -29 -72 -37c3 -34 4 -68 4 -102c0 -20 0 -40 -1 -60c-7 -121 -90 -228 -209 -228c-108 0 -196 87 -196 196c0 58 53 104 112 104c54 0 95 -48 95 -104c0 -52 -43 -95 -95 -95
c-10 0 -20 2 -29 6c26 -38 68 -63 116 -63h3c93 2 153 92 159 190c1 19 2 37 2 56c0 30 -2 60 -4 90c-29 -5 -58 -8 -88 -8c-188 0 -333 173 -333 375c0 177 130 307 246 442c-20 62 -38 125 -46 190c-6 52 -7 104 -7 157c0 115 55 223 148 290c7 5 16 4 22 -1
c71 -83 134 -244 134 -357c0 -143 -85 -255 -178 -364c21 -68 40 -137 57 -206zM462 -202c67 24 111 94 111 162c0 89 -65 178 -170 190c24 -115 46 -230 59 -352zM75 26c0 -134 129 -245 263 -245c28 0 55 2 81 6c-14 126 -36 244 -61 363c-79 -8 -124 -61 -124 -119
c0 -43 25 -89 80 -121c5 -5 7 -11 7 -16c0 -12 -10 -23 -22 -23c-3 0 -6 1 -9 2c-81 43 -118 116 -118 186c0 89 58 175 161 198c-14 58 -29 116 -46 173c-106 -122 -212 -244 -212 -404zM244 785c0 -73 20 -132 38 -191c79 97 144 199 144 324c0 53 -4 76 -20 124
c-99 -47 -162 -148 -162 -257z" fill="currentColor"/>
<g color="rgb(49.8039%, 49.8039%, 49.8039%)">
<line transform="translate(16.0600, 24.8911)" stroke-linejoin="round" stroke-linecap="round" stroke-width="0.1073" stroke="currentColor" x1="0.0537" y1="-0.0000" x2="56.0899" y2="-0.0000"/>
<line transform="translate(16.0600, 23.8911)" stroke-linejoin="round" stroke-linecap="round" stroke-width="0.1073" stroke="currentColor" x1="0.0537" y1="-0.0000" x2="56.0899" y2="-0.0000"/>
<line transform="translate(16.0600, 22.8911)" stroke-linejoin="round" stroke-linecap="round" stroke-width="0.1073" stroke="currentColor" x1="0.0537" y1="-0.0000" x2="56.0899" y2="-0.0000"/>
<line transform="translate(16.0600, 21.8911)" stroke-linejoin="round" stroke-linecap="round" stroke-width="0.1073" stroke="currentColor" x1="0.0537" y1="-0.0000" x2="56.0899" y2="-0.0000"/>
<line transform="translate(16.0600, 20.8911)" stroke-linejoin="round" stroke-linecap="round" stroke-width="0.1073" stroke="currentColor" x1="0.0537" y1="-0.0000" x2="56.0899" y2="-0.0000"/>
</g>
<rect transform="translate(71.9997, 22.8911)" x="0.0000" y="-2.0537" width="0.2039" height="4.1073" ry="0.0000" fill="currentColor"/>
<rect transform="translate(25.6705, 22.8911)" x="-0.0697" y="0.1794" width="0.1395" height="6.3206" ry="0.0444" fill="currentColor"/>
<rect transform="translate(30.2733, 22.8911)" x="-0.0697" y="0.1794" width="0.1395" height="6.3206" ry="0.0444" fill="currentColor"/>
<path transform="translate(30.2036, 22.8911) scale(0.0040, -0.0040)" d="M215 137c57 0 111 -29 111 -92c0 -71 -54 -120 -101 -148c-35 -21 -74 -34 -114 -34c-57 0 -111 29 -111 92c0 71 54 120 101 148c35 21 74 34 114 34z" fill="currentColor"/>
<rect transform="translate(27.2733, 22.8911)" x="-0.0697" y="0.1794" width="0.1395" height="6.3206" ry="0.0444" fill="currentColor"/>
<path transform="translate(27.2036, 22.8911) scale(0.0040, -0.0040)" d="M215 137c57 0 111 -29 111 -92c0 -71 -54 -120 -101 -148c-35 -21 -74 -34 -114 -34c-57 0 -111 29 -111 92c0 71 54 120 101 148c35 21 74 34 114 34z" fill="currentColor"/>
<path transform="translate(24.5548, 22.8911) scale(0.0040, -0.0040)" d="M-8 375c8 5 17 7 26 7s18 -2 26 -7l-3 -187l104 21h4c10 0 18 -8 18 -18l7 -566c-8 -5 -16 -7 -25 -7s-18 2 -26 7l2 187l-103 -21h-4c-10 0 -18 8 -18 18zM130 111l-90 -18l-3 -204l90 18z" fill="currentColor"/>
<path transform="translate(25.6008, 22.8911)" stroke-width="0.0858" stroke-linejoin="round" stroke-linecap="round" stroke="currentColor" fill="currentColor" d="M0.8514 -1.2250C1.1764 -1.6469 1.7292 -1.6469 2.0542 -1.2250L2.0542 -1.2250C1.7292 -1.5181 1.1764 -1.5181 0.8514 -1.2250z"/>
<path transform="translate(27.2036, 22.8911)" stroke-width="0.0858" stroke-linejoin="round" stroke-linecap="round" stroke="currentColor" fill="currentColor" d="M1.5028 -0.2604C1.8489 -0.7044 2.4540 -0.7044 2.8000 -0.2604L2.8000 -0.2604C2.4540 -0.5756 1.8489 -0.5756 1.5028 -0.2604z"/>
<path transform="translate(30.2036, 22.8911)" stroke-width="0.0858" stroke-linejoin="round" stroke-linecap="round" stroke="currentColor" fill="currentColor" d="M1.5028 -0.1986C2.3215 -0.9965 4.9813 -0.9965 5.8000 -0.1986L5.8000 -0.1986C4.9813 -0.8678 2.3215 -0.8678 1.5028 -0.1986z"/>
<polygon transform="translate(24.5705, 25.4802)" stroke-linejoin="round" stroke-linecap="round" stroke-width="0.0889" fill="currentColor" stroke="currentColor" points="1.1253 -0.3306 1.1253 0.3306 0.0444 0.3306 0.0444 -0.3306"/>
<polygon transform="translate(21.8600, 26.7838)" stroke-linejoin="round" stroke-linecap="round" stroke-width="0.0889" fill="currentColor" stroke="currentColor" points="3.8358 -0.3306 3.8358 0.3306 0.0444 0.3306 0.0444 -0.3306"/>
<polygon transform="translate(21.8600, 28.0875)" stroke-linejoin="round" stroke-linecap="round" stroke-width="0.0889" fill="currentColor" stroke="currentColor" points="5.4386 -0.3306 5.4386 0.3306 0.0444 0.3306 0.0444 -0.3306"/>
<polygon transform="translate(21.8600, 29.3911)" stroke-linejoin="round" stroke-linecap="round" stroke-width="0.0889" fill="currentColor" stroke="currentColor" points="8.4386 -0.3306 8.4386 0.3306 0.0444 0.3306 0.0444 -0.3306"/>
<path transform="translate(48.2036, 22.8911) scale(0.0040, -0.0040)" d="M364 0h-353c-6 0 -11 5 -11 11v134c0 6 5 11 11 11h353c6 0 11 -5 11 -11v-134c0 -6 -5 -11 -11 -11z" fill="currentColor"/>
<rect transform="translate(36.2733, 22.8911)" x="-0.0697" y="0.1794" width="0.1395" height="3.1540" ry="0.0444" fill="currentColor"/>
<path transform="translate(36.2036, 22.8911) scale(0.0040, -0.0040)" d="M215 137c57 0 111 -29 111 -92c0 -71 -54 -120 -101 -148c-35 -21 -74 -34 -114 -34c-57 0 -111 29 -111 92c0 71 54 120 101 148c35 21 74 34 114 34z" fill="currentColor"/>
<path transform="translate(16.0600, 22.8911)" stroke-width="0.0858" stroke-linejoin="round" stroke-linecap="round" stroke="currentColor" fill="currentColor" d="M3.5650 -2.0000C4.1696 -2.6706 5.6468 -2.6706 6.2514 -2.0000L6.2514 -2.0000C5.6468 -2.5419 4.1696 -2.5419 3.5650 -2.0000z"/>
<path transform="translate(25.6008, 22.8911) scale(0.0040, -0.0040)" d="M215 137c57 0 111 -29 111 -92c0 -71 -54 -120 -101 -148c-35 -21 -74 -34 -114 -34c-57 0 -111 29 -111 92c0 71 54 120 101 148c35 21 74 34 114 34z" fill="currentColor"/>
<path transform="translate(16.8600, 23.8911) scale(0.0040, -0.0040)" d="M378 263c4 0 7 1 11 1c156 0 257 -129 257 -262c0 -76 -34 -154 -108 -210c-22 -17 -46 -29 -72 -37c3 -34 4 -68 4 -102c0 -20 0 -40 -1 -60c-7 -121 -90 -228 -209 -228c-108 0 -196 87 -196 196c0 58 53 104 112 104c54 0 95 -48 95 -104c0 -52 -43 -95 -95 -95
c-10 0 -20 2 -29 6c26 -38 68 -63 116 -63h3c93 2 153 92 159 190c1 19 2 37 2 56c0 30 -2 60 -4 90c-29 -5 -58 -8 -88 -8c-188 0 -333 173 -333 375c0 177 130 307 246 442c-20 62 -38 125 -46 190c-6 52 -7 104 -7 157c0 115 55 223 148 290c7 5 16 4 22 -1
c71 -83 134 -244 134 -357c0 -143 -85 -255 -178 -364c21 -68 40 -137 57 -206zM462 -202c67 24 111 94 111 162c0 89 -65 178 -170 190c24 -115 46 -230 59 -352zM75 26c0 -134 129 -245 263 -245c28 0 55 2 81 6c-14 126 -36 244 -61 363c-79 -8 -124 -61 -124 -119
c0 -43 25 -89 80 -121c5 -5 7 -11 7 -16c0 -12 -10 -23 -22 -23c-3 0 -6 1 -9 2c-81 43 -118 116 -118 186c0 89 58 175 161 198c-14 58 -29 116 -46 173c-106 -122 -212 -244 -212 -404zM244 785c0 -73 20 -132 38 -191c79 97 144 199 144 324c0 53 -4 76 -20 124
c-99 -47 -162 -148 -162 -257z" fill="currentColor"/>
<path transform="translate(20.7100, 22.8911) scale(0.0040, -0.0040)" d="M29 39l-2 -64v-11c0 -22 2 -43 5 -65c44 38 91 80 91 138c0 33 -13 66 -42 66c-31 0 -51 -31 -52 -64zM-28 454c9 5 18 8 28 8s19 -3 28 -8l-7 -343c25 23 58 36 92 36c51 0 87 -49 87 -103c0 -79 -84 -117 -144 -169c-16 -14 -25 -41 -47 -41c-14 0 -25 13 -25 27z" fill="currentColor"/>
<rect transform="translate(21.9297, 22.8911)" x="-0.0697" y="0.1794" width="0.1395" height="6.3206" ry="0.0444" fill="currentColor"/>
<path transform="translate(23.6088, 22.3911) scale(0.0040, -0.0040)" d="M0 0c0 31 25 56 56 56s55 -25 55 -56s-24 -56 -55 -56s-56 25 -56 56z" fill="currentColor"/>
<path transform="translate(21.8600, 22.8911) scale(0.0040, -0.0040)" d="M215 137c57 0 111 -29 111 -92c0 -71 -54 -120 -101 -148c-35 -21 -74 -34 -114 -34c-57 0 -111 29 -111 92c0 71 54 120 101 148c35 21 74 34 114 34z" fill="currentColor"/>
</svg>
